<svg xmlns="http://www.w3.org/2000/svg" width="15.25in" height="6.125in" viewBox="0 0 1098 441">
  <rect x="9" y="9" width="1080" height="423" rx="9" fill="#998675" stroke="#000" stroke-miterlimit="10"/>
  <g>
    <rect x="180" y="171" width="180" height="252" rx="9" fill="#736357" stroke="#000" stroke-miterlimit="10"/>
    <rect x="369" y="171" width="180" height="252" rx="9" fill="#736357" stroke="#000" stroke-miterlimit="10"/>
    <rect x="603" y="207" width="180" height="252" rx="9" transform="translate(360 1026) rotate(-90)" fill="#736357" stroke="#000" stroke-miterlimit="10"/>
    <rect x="864" y="207" width="180" height="252" rx="9" transform="translate(621 1287) rotate(-90)" fill="#736357" stroke="#000" stroke-miterlimit="10"/>
    <rect x="18" y="18" width="144" height="144" rx="9" fill="#736357" stroke="#000" stroke-miterlimit="10"/>
    <rect x="18" y="279" width="144" height="144" rx="9" fill="#736357" stroke="#000" stroke-miterlimit="10"/>
    <rect x="171" y="18" width="144" height="144" rx="9" fill="#c7b299" stroke="#000" stroke-miterlimit="10"/>
    <rect x="324" y="18" width="144" height="144" rx="9" fill="#c7b299" stroke="#000" stroke-miterlimit="10"/>
    <rect x="477" y="18" width="144" height="144" rx="9" fill="#c7b299" stroke="#000" stroke-miterlimit="10"/>
    <rect x="630" y="18" width="144" height="144" rx="9" fill="#c7b299" stroke="#000" stroke-miterlimit="10"/>
    <rect x="783" y="18" width="144" height="144" rx="9" fill="#c7b299" stroke="#000" stroke-miterlimit="10"/>
    <rect x="936" y="18" width="144" height="144" rx="9" fill="#c7b299" stroke="#000" stroke-miterlimit="10"/>
    <g>
      <path d="M435.461,284.257l2.412-.211a5.324,5.324,0,0,0,.8,2.379,4.35,4.35,0,0,0,1.944,1.5,7.355,7.355,0,0,0,2.967.573,7.107,7.107,0,0,0,2.584-.435,3.582,3.582,0,0,0,1.668-1.193,2.771,2.771,0,0,0,.547-1.654,2.519,2.519,0,0,0-.527-1.589,3.927,3.927,0,0,0-1.741-1.141,34.6,34.6,0,0,0-3.441-.942,17.555,17.555,0,0,1-3.731-1.206,5.239,5.239,0,0,1-2.063-1.8,4.413,4.413,0,0,1-.679-2.4,4.928,4.928,0,0,1,.83-2.737,5.162,5.162,0,0,1,2.426-1.931A9.215,9.215,0,0,1,443,270.81a9.693,9.693,0,0,1,3.79.691,5.463,5.463,0,0,1,2.524,2.037,5.852,5.852,0,0,1,.95,3.045l-2.452.186a3.963,3.963,0,0,0-1.338-2.77,5.215,5.215,0,0,0-3.369-.936,5.405,5.405,0,0,0-3.381.851,2.551,2.551,0,0,0-1.062,2.05,2.2,2.2,0,0,0,.752,1.714,10.194,10.194,0,0,0,3.856,1.378,25.513,25.513,0,0,1,4.279,1.232,5.869,5.869,0,0,1,2.491,1.971,4.8,4.8,0,0,1,.8,2.749,5.257,5.257,0,0,1-.883,2.907,5.818,5.818,0,0,1-2.538,2.122,8.833,8.833,0,0,1-3.724.759,11.113,11.113,0,0,1-4.4-.766,6.151,6.151,0,0,1-2.782-2.3A6.524,6.524,0,0,1,435.461,284.257Z" fill="#fff"/>
      <path d="M454.05,290.466V271.139h2.373V282.16l5.616-5.7h3.071l-5.351,5.194,5.892,8.807h-2.926l-4.628-7.158-1.674,1.607v5.551Z" fill="#fff"/>
      <path d="M467.55,273.868v-2.729h2.373v2.729Zm0,16.6v-14h2.373v14Z" fill="#fff"/>
      <path d="M473.482,290.466V271.139h2.373v19.327Z" fill="#fff"/>
      <path d="M479.48,290.466V271.139h2.374v19.327Z" fill="#fff"/>
      <path d="M430.325,322.866V303.539h6.657a16.269,16.269,0,0,1,3.442.276,6.559,6.559,0,0,1,2.834,1.385,7.877,7.877,0,0,1,2.288,3.3,12.971,12.971,0,0,1,.758,4.594,13.449,13.449,0,0,1-.515,3.9,9.443,9.443,0,0,1-1.318,2.815,6.96,6.96,0,0,1-1.76,1.753,7.137,7.137,0,0,1-2.307.969,13.1,13.1,0,0,1-3.105.33Zm2.558-2.281h4.127a10,10,0,0,0,3-.356,4.294,4.294,0,0,0,1.733-1,6.091,6.091,0,0,0,1.417-2.446,11.935,11.935,0,0,0,.508-3.724,9,9,0,0,0-.995-4.661,5.013,5.013,0,0,0-2.42-2.181,9.982,9.982,0,0,0-3.309-.4h-4.06Z" fill="#fff"/>
      <path d="M459.1,318.357l2.453.3A5.987,5.987,0,0,1,459.408,322a7.28,7.28,0,0,1-8.88-.7,7.4,7.4,0,0,1-1.8-5.307,7.736,7.736,0,0,1,1.82-5.484,6.155,6.155,0,0,1,4.719-1.951,5.985,5.985,0,0,1,4.587,1.911,7.591,7.591,0,0,1,1.781,5.379c0,.141-.005.352-.013.633H451.182a5.373,5.373,0,0,0,1.3,3.533,3.884,3.884,0,0,0,2.927,1.226,3.633,3.633,0,0,0,2.228-.685A4.551,4.551,0,0,0,459.1,318.357Zm-7.791-3.836h7.818a4.744,4.744,0,0,0-.9-2.65A3.636,3.636,0,0,0,455.3,310.5a3.766,3.766,0,0,0-2.749,1.1A4.332,4.332,0,0,0,451.313,314.521Z" fill="#fff"/>
      <path d="M473.672,317.737l2.334.3a6.061,6.061,0,0,1-1.958,3.777,5.706,5.706,0,0,1-3.87,1.365,6.007,6.007,0,0,1-4.62-1.879,7.618,7.618,0,0,1-1.747-5.385,9.732,9.732,0,0,1,.752-3.969,5.228,5.228,0,0,1,2.287-2.551,6.779,6.779,0,0,1,3.341-.85,5.815,5.815,0,0,1,3.731,1.153,5.289,5.289,0,0,1,1.859,3.277l-2.306.356a3.85,3.85,0,0,0-1.167-2.123,3.022,3.022,0,0,0-2.025-.712,3.685,3.685,0,0,0-2.913,1.285,6.106,6.106,0,0,0-1.12,4.068,6.3,6.3,0,0,0,1.08,4.1,3.516,3.516,0,0,0,2.822,1.279,3.322,3.322,0,0,0,2.333-.857A4.247,4.247,0,0,0,473.672,317.737Z" fill="#fff"/>
      <path d="M478.049,322.866V303.539h2.373v11.022l5.616-5.7h3.071l-5.351,5.195,5.892,8.806h-2.926l-4.628-7.158-1.674,1.607v5.551Z" fill="#fff"/>
    </g>
    <g>
      <path d="M246.461,284.257l2.412-.211a5.324,5.324,0,0,0,.8,2.379,4.35,4.35,0,0,0,1.944,1.5,7.355,7.355,0,0,0,2.967.573,7.107,7.107,0,0,0,2.584-.435,3.582,3.582,0,0,0,1.668-1.193,2.771,2.771,0,0,0,.547-1.654,2.519,2.519,0,0,0-.527-1.589,3.927,3.927,0,0,0-1.741-1.141,34.6,34.6,0,0,0-3.441-.942,17.555,17.555,0,0,1-3.731-1.206,5.239,5.239,0,0,1-2.063-1.8,4.413,4.413,0,0,1-.679-2.4,4.928,4.928,0,0,1,.83-2.737,5.162,5.162,0,0,1,2.426-1.931A9.215,9.215,0,0,1,254,270.81a9.693,9.693,0,0,1,3.79.691,5.463,5.463,0,0,1,2.524,2.037,5.852,5.852,0,0,1,.95,3.045l-2.452.186a3.963,3.963,0,0,0-1.338-2.77,5.215,5.215,0,0,0-3.369-.936,5.405,5.405,0,0,0-3.381.851,2.551,2.551,0,0,0-1.062,2.05,2.2,2.2,0,0,0,.752,1.714,10.194,10.194,0,0,0,3.856,1.378,25.513,25.513,0,0,1,4.279,1.232,5.869,5.869,0,0,1,2.491,1.971,4.8,4.8,0,0,1,.8,2.749,5.257,5.257,0,0,1-.883,2.907,5.818,5.818,0,0,1-2.538,2.122,8.833,8.833,0,0,1-3.724.759,11.113,11.113,0,0,1-4.4-.766,6.151,6.151,0,0,1-2.782-2.3A6.524,6.524,0,0,1,246.461,284.257Z" fill="#fff"/>
      <path d="M265.05,290.466V271.139h2.373V282.16l5.616-5.7h3.071l-5.351,5.194,5.892,8.807h-2.926l-4.628-7.158-1.674,1.607v5.551Z" fill="#fff"/>
      <path d="M278.55,273.868v-2.729h2.373v2.729Zm0,16.6v-14h2.373v14Z" fill="#fff"/>
      <path d="M284.482,290.466V271.139h2.373v19.327Z" fill="#fff"/>
      <path d="M290.48,290.466V271.139h2.374v19.327Z" fill="#fff"/>
      <path d="M226.323,322.866V303.539h6.657a16.269,16.269,0,0,1,3.442.276,6.559,6.559,0,0,1,2.834,1.385,7.877,7.877,0,0,1,2.288,3.3,12.971,12.971,0,0,1,.758,4.594,13.449,13.449,0,0,1-.515,3.9,9.443,9.443,0,0,1-1.318,2.815,6.96,6.96,0,0,1-1.76,1.753,7.137,7.137,0,0,1-2.307.969,13.1,13.1,0,0,1-3.1.33Zm2.558-2.281h4.127a10,10,0,0,0,3-.356,4.294,4.294,0,0,0,1.733-1,6.091,6.091,0,0,0,1.417-2.446,11.935,11.935,0,0,0,.508-3.724,9,9,0,0,0-1-4.661,5.013,5.013,0,0,0-2.42-2.181,9.982,9.982,0,0,0-3.309-.4h-4.06Z" fill="#fff"/>
      <path d="M245.531,306.269v-2.73H247.9v2.73Zm0,16.6v-14H247.9v14Z" fill="#fff"/>
      <path d="M250.566,318.687l2.348-.37a3.266,3.266,0,0,0,1.1,2.162,3.828,3.828,0,0,0,2.524.752,3.7,3.7,0,0,0,2.426-.666,1.988,1.988,0,0,0,.791-1.562,1.447,1.447,0,0,0-.7-1.266,10.3,10.3,0,0,0-2.426-.8,22.133,22.133,0,0,1-3.618-1.141,3.449,3.449,0,0,1-2.05-3.21,3.6,3.6,0,0,1,.428-1.733,3.834,3.834,0,0,1,1.167-1.326,4.9,4.9,0,0,1,1.509-.692,7.213,7.213,0,0,1,2.05-.283,8.11,8.11,0,0,1,2.894.474,3.939,3.939,0,0,1,1.839,1.286,5.024,5.024,0,0,1,.818,2.169l-2.32.316a2.54,2.54,0,0,0-.917-1.688,3.353,3.353,0,0,0-2.142-.606,3.89,3.89,0,0,0-2.334.54,1.576,1.576,0,0,0-.7,1.266,1.307,1.307,0,0,0,.291.831,2.082,2.082,0,0,0,.909.633q.356.131,2.1.606a29.086,29.086,0,0,1,3.512,1.1,3.567,3.567,0,0,1,1.563,1.246,3.475,3.475,0,0,1,.567,2.03,3.984,3.984,0,0,1-.692,2.234,4.472,4.472,0,0,1-2,1.622,7.284,7.284,0,0,1-2.953.574,6.577,6.577,0,0,1-4.16-1.134A5.272,5.272,0,0,1,250.566,318.687Z" fill="#fff"/>
      <path d="M274.152,317.737l2.334.3a6.061,6.061,0,0,1-1.958,3.777,5.7,5.7,0,0,1-3.87,1.365,6.007,6.007,0,0,1-4.62-1.879,7.618,7.618,0,0,1-1.747-5.385,9.732,9.732,0,0,1,.752-3.969,5.233,5.233,0,0,1,2.287-2.551,6.786,6.786,0,0,1,3.342-.85,5.812,5.812,0,0,1,3.73,1.153,5.3,5.3,0,0,1,1.86,3.277l-2.307.356a3.844,3.844,0,0,0-1.167-2.123,3.02,3.02,0,0,0-2.024-.712,3.684,3.684,0,0,0-2.913,1.285,6.106,6.106,0,0,0-1.121,4.068,6.3,6.3,0,0,0,1.081,4.1,3.514,3.514,0,0,0,2.822,1.279,3.323,3.323,0,0,0,2.333-.857A4.246,4.246,0,0,0,274.152,317.737Z" fill="#fff"/>
      <path d="M287.652,321.14a8.835,8.835,0,0,1-2.538,1.582,7.362,7.362,0,0,1-2.616.461,5.092,5.092,0,0,1-3.547-1.127,3.722,3.722,0,0,1-1.239-2.881,3.9,3.9,0,0,1,1.694-3.243,5.785,5.785,0,0,1,1.707-.779,17.147,17.147,0,0,1,2.11-.355,21.685,21.685,0,0,0,4.232-.818c.008-.325.013-.531.013-.62a2.619,2.619,0,0,0-.673-2.043,3.97,3.97,0,0,0-2.7-.8,4.191,4.191,0,0,0-2.472.587,3.581,3.581,0,0,0-1.18,2.077l-2.32-.317a5.751,5.751,0,0,1,1.041-2.406,4.57,4.57,0,0,1,2.1-1.411,9.365,9.365,0,0,1,3.178-.494,8.4,8.4,0,0,1,2.914.422A3.829,3.829,0,0,1,289,310.032a3.721,3.721,0,0,1,.738,1.615,13.358,13.358,0,0,1,.119,2.188V317a33.38,33.38,0,0,0,.152,4.187,5.271,5.271,0,0,0,.6,1.68h-2.478A5.049,5.049,0,0,1,287.652,321.14Zm-.2-5.3a17.345,17.345,0,0,1-3.877.9,9.085,9.085,0,0,0-2.069.475,2.08,2.08,0,0,0-.937.771,2.1,2.1,0,0,0,.39,2.709,3.088,3.088,0,0,0,2.1.633,4.9,4.9,0,0,0,2.44-.6,3.7,3.7,0,0,0,1.568-1.641,5.728,5.728,0,0,0,.383-2.373Z" fill="#fff"/>
      <path d="M293.506,322.866v-14h2.135v2.122a5.815,5.815,0,0,1,1.509-1.964,2.64,2.64,0,0,1,1.524-.474,4.633,4.633,0,0,1,2.438.764l-.817,2.2a3.4,3.4,0,0,0-1.74-.514,2.26,2.26,0,0,0-1.4.468,2.538,2.538,0,0,0-.884,1.3,9.258,9.258,0,0,0-.394,2.768v7.33Z" fill="#fff"/>
      <path d="M311.606,322.866V321.1a4.356,4.356,0,0,1-3.916,2.083,5.494,5.494,0,0,1-3.078-.923,6.069,6.069,0,0,1-2.174-2.577,8.9,8.9,0,0,1-.772-3.8,9.955,9.955,0,0,1,.7-3.8,5.52,5.52,0,0,1,2.1-2.617,5.615,5.615,0,0,1,3.124-.909,4.668,4.668,0,0,1,3.863,1.925v-6.935h2.36v19.327Zm-7.5-6.987a6.068,6.068,0,0,0,1.135,4.02,3.414,3.414,0,0,0,2.676,1.332,3.356,3.356,0,0,0,2.644-1.272,5.87,5.87,0,0,0,1.087-3.882,6.587,6.587,0,0,0-1.108-4.219,3.406,3.406,0,0,0-2.728-1.345,3.289,3.289,0,0,0-2.644,1.293A6.376,6.376,0,0,0,304.1,315.879Z" fill="#fff"/>
    </g>
    <g>
      <path d="M58.09,266.166,50.6,246.839h2.767l5.024,14.04q.606,1.689,1.015,3.164.447-1.582,1.041-3.164l5.221-14.04h2.61l-7.567,19.327Z" fill="#fff"/>
      <path d="M69.8,249.568v-2.729H72.17v2.729Zm0,16.6v-14H72.17v14Z" fill="#fff"/>
      <path d="M80.963,264.043l.343,2.1a8.85,8.85,0,0,1-1.793.211,4.049,4.049,0,0,1-2-.41,2.272,2.272,0,0,1-1-1.074,8.471,8.471,0,0,1-.29-2.8v-8.055h-1.74v-1.846h1.74V248.7l2.359-1.424v4.892h2.387v1.846H78.576V262.2A4.112,4.112,0,0,0,78.7,263.5a.991.991,0,0,0,.408.462,1.586,1.586,0,0,0,.812.171A7.656,7.656,0,0,0,80.963,264.043Z" fill="#fff"/>
      <path d="M92.42,264.439a8.8,8.8,0,0,1-2.538,1.582,7.348,7.348,0,0,1-2.616.461,5.092,5.092,0,0,1-3.547-1.127,3.72,3.72,0,0,1-1.24-2.88,3.842,3.842,0,0,1,.468-1.879,3.883,3.883,0,0,1,1.227-1.365,5.808,5.808,0,0,1,1.707-.778,17.158,17.158,0,0,1,2.109-.355,21.715,21.715,0,0,0,4.233-.818c.007-.325.012-.531.012-.62a2.618,2.618,0,0,0-.672-2.043,3.971,3.971,0,0,0-2.7-.8,4.2,4.2,0,0,0-2.471.587,3.578,3.578,0,0,0-1.18,2.078l-2.32-.317a5.738,5.738,0,0,1,1.041-2.406,4.562,4.562,0,0,1,2.095-1.411,9.369,9.369,0,0,1,3.178-.494,8.4,8.4,0,0,1,2.914.422,3.839,3.839,0,0,1,1.648,1.061,3.744,3.744,0,0,1,.738,1.615,13.391,13.391,0,0,1,.118,2.188V260.3a33.567,33.567,0,0,0,.152,4.186,5.279,5.279,0,0,0,.6,1.681H92.9A5,5,0,0,1,92.42,264.439Zm-.2-5.3a17.373,17.373,0,0,1-3.877.9,9.1,9.1,0,0,0-2.07.475,2.076,2.076,0,0,0-.936.771,2.1,2.1,0,0,0,.389,2.709,3.091,3.091,0,0,0,2.1.633,4.883,4.883,0,0,0,2.439-.6,3.693,3.693,0,0,0,1.569-1.64,5.728,5.728,0,0,0,.383-2.373Z" fill="#fff"/>
      <path d="M98.246,266.166V246.839h2.373v19.327Z" fill="#fff"/>
      <path d="M104.311,249.568v-2.729h2.373v2.729Zm0,16.6v-14h2.373v14Z" fill="#fff"/>
      <path d="M115.477,264.043l.342,2.1a8.842,8.842,0,0,1-1.793.211,4.054,4.054,0,0,1-2-.41,2.275,2.275,0,0,1-1-1.074,8.462,8.462,0,0,1-.291-2.8v-8.055h-1.74v-1.846h1.74V248.7l2.36-1.424v4.892h2.387v1.846H113.09V262.2a4.112,4.112,0,0,0,.126,1.306.991.991,0,0,0,.408.462,1.583,1.583,0,0,0,.812.171A7.669,7.669,0,0,0,115.477,264.043Z" fill="#fff"/>
      <path d="M117.691,271.559l-.263-2.229a5.268,5.268,0,0,0,1.358.211,2.607,2.607,0,0,0,1.266-.264,2.162,2.162,0,0,0,.778-.738,11.661,11.661,0,0,0,.725-1.767c.044-.131.114-.325.211-.58l-5.313-14.027h2.557l2.914,8.108q.567,1.542,1.015,3.243a31.838,31.838,0,0,1,.975-3.19l2.993-8.161h2.373L123.954,266.4a27.987,27.987,0,0,1-1.331,3.177,4.686,4.686,0,0,1-1.451,1.721,3.423,3.423,0,0,1-1.951.547A4.792,4.792,0,0,1,117.691,271.559Z" fill="#fff"/>
    </g>
    <g>
      <path d="M64.006,198.666V179.339h2.558v19.327Z" fill="#fff"/>
      <path d="M70.77,198.666v-14h2.136v1.991a5.031,5.031,0,0,1,4.455-2.307,5.83,5.83,0,0,1,2.327.455A3.653,3.653,0,0,1,81.277,186a4.586,4.586,0,0,1,.739,1.754,13.6,13.6,0,0,1,.131,2.307v8.609H79.774v-8.517a6.421,6.421,0,0,0-.276-2.169,2.288,2.288,0,0,0-.982-1.146,3.124,3.124,0,0,0-1.655-.429,3.852,3.852,0,0,0-2.617.962q-1.1.965-1.1,3.653v7.646Z" fill="#fff"/>
      <path d="M82.767,204.1l.448-2.018a4.783,4.783,0,0,0,1.121.186,1.258,1.258,0,0,0,1.08-.482,4.9,4.9,0,0,0,.356-2.406V184.665h2.374v14.766a6.912,6.912,0,0,1-.673,3.6,3.14,3.14,0,0,1-2.848,1.319A6.868,6.868,0,0,1,82.767,204.1Zm3.005-22v-2.755h2.374v2.755Z" fill="#fff"/>
      <path d="M100.959,198.666v-2.057a5.123,5.123,0,0,1-4.442,2.373,5.665,5.665,0,0,1-2.314-.474,3.813,3.813,0,0,1-1.6-1.194,4.485,4.485,0,0,1-.731-1.759,12,12,0,0,1-.146-2.215v-8.675H94.1v7.765a13.82,13.82,0,0,0,.145,2.506,2.472,2.472,0,0,0,.949,1.469,2.942,2.942,0,0,0,1.793.534,3.9,3.9,0,0,0,2-.547,3.044,3.044,0,0,0,1.325-1.49,7.483,7.483,0,0,0,.389-2.736v-7.5h2.373v14Z" fill="#fff"/>
      <path d="M106.773,198.666v-14h2.135v2.122a5.815,5.815,0,0,1,1.51-1.964,2.639,2.639,0,0,1,1.523-.474,4.636,4.636,0,0,1,2.439.764l-.817,2.2a3.416,3.416,0,0,0-1.741-.513,2.26,2.26,0,0,0-1.4.468,2.539,2.539,0,0,0-.884,1.3,9.237,9.237,0,0,0-.395,2.769v7.33Z" fill="#fff"/>
      <path d="M115.685,204.059l-.264-2.229a5.274,5.274,0,0,0,1.358.211,2.6,2.6,0,0,0,1.266-.264,2.162,2.162,0,0,0,.778-.738,11.661,11.661,0,0,0,.725-1.767c.044-.131.114-.325.211-.58l-5.313-14.027H117l2.914,8.108q.567,1.542,1.016,3.243a31.575,31.575,0,0,1,.974-3.19l2.993-8.161h2.373L121.947,198.9a27.8,27.8,0,0,1-1.331,3.177,4.686,4.686,0,0,1-1.451,1.721,3.423,3.423,0,0,1-1.951.547A4.782,4.782,0,0,1,115.685,204.059Z" fill="#fff"/>
    </g>
    <g>
      <path d="M765.988,194.166V174.839h2.559v19.327Z" fill="#fff"/>
      <path d="M772.752,194.166v-14h2.137v1.991a5.029,5.029,0,0,1,4.455-2.307,5.83,5.83,0,0,1,2.327.455,3.659,3.659,0,0,1,1.589,1.192A4.6,4.6,0,0,1,784,183.25a13.571,13.571,0,0,1,.132,2.307v8.609h-2.373v-8.517a6.416,6.416,0,0,0-.277-2.169,2.283,2.283,0,0,0-.982-1.146,3.121,3.121,0,0,0-1.654-.429,3.848,3.848,0,0,0-2.617.962q-1.1.965-1.1,3.653v7.646Z" fill="#fff"/>
      <path d="M791.657,194.166l-5.326-14h2.5l3.006,8.385q.488,1.358.9,2.821.316-1.107.883-2.663l3.111-8.543h2.44l-5.3,14Z" fill="#fff"/>
      <path d="M810.853,189.657l2.452.3a5.987,5.987,0,0,1-2.149,3.335,7.284,7.284,0,0,1-8.88-.7,7.4,7.4,0,0,1-1.8-5.307,7.736,7.736,0,0,1,1.82-5.484,6.155,6.155,0,0,1,4.719-1.951,5.985,5.985,0,0,1,4.588,1.911,7.6,7.6,0,0,1,1.78,5.379c0,.141,0,.352-.013.632H802.93a5.374,5.374,0,0,0,1.3,3.534,3.884,3.884,0,0,0,2.927,1.226,3.633,3.633,0,0,0,2.228-.685A4.559,4.559,0,0,0,810.853,189.657Zm-7.792-3.837h7.818a4.743,4.743,0,0,0-.9-2.649,3.636,3.636,0,0,0-2.939-1.371,3.766,3.766,0,0,0-2.749,1.095A4.332,4.332,0,0,0,803.061,185.82Z" fill="#fff"/>
      <path d="M816.283,194.166v-14h2.137v1.991a5.03,5.03,0,0,1,4.455-2.307,5.83,5.83,0,0,1,2.327.455,3.659,3.659,0,0,1,1.589,1.192,4.57,4.57,0,0,1,.738,1.754,13.571,13.571,0,0,1,.132,2.307v8.609h-2.373v-8.517a6.446,6.446,0,0,0-.276-2.169,2.29,2.29,0,0,0-.983-1.146,3.118,3.118,0,0,0-1.654-.429,3.848,3.848,0,0,0-2.617.962q-1.1.965-1.1,3.653v7.646Z" fill="#fff"/>
      <path d="M836.48,192.043l.343,2.1a8.842,8.842,0,0,1-1.793.211,4.054,4.054,0,0,1-2-.41,2.282,2.282,0,0,1-1-1.074,8.5,8.5,0,0,1-.29-2.8v-8.055h-1.74v-1.846h1.74V176.7l2.36-1.424v4.892h2.386v1.846h-2.386V190.2a4.112,4.112,0,0,0,.126,1.306.986.986,0,0,0,.408.462,1.581,1.581,0,0,0,.811.171A7.642,7.642,0,0,0,836.48,192.043Z" fill="#fff"/>
      <path d="M837.918,187.166q0-3.889,2.162-5.762a6.515,6.515,0,0,1,4.4-1.555,6.283,6.283,0,0,1,4.72,1.891,7.2,7.2,0,0,1,1.832,5.228,9.258,9.258,0,0,1-.81,4.252,5.735,5.735,0,0,1-2.36,2.405,6.875,6.875,0,0,1-3.382.857,6.3,6.3,0,0,1-4.753-1.884A7.534,7.534,0,0,1,837.918,187.166Zm2.439,0a5.963,5.963,0,0,0,1.173,4.027,3.909,3.909,0,0,0,5.894-.006,6.113,6.113,0,0,0,1.173-4.1,5.788,5.788,0,0,0-1.18-3.935,3.911,3.911,0,0,0-5.887-.006A5.937,5.937,0,0,0,840.357,187.166Z" fill="#fff"/>
      <path d="M853.791,194.166v-14h2.135v2.122a5.815,5.815,0,0,1,1.51-1.964,2.634,2.634,0,0,1,1.523-.474,4.633,4.633,0,0,1,2.438.764l-.817,2.2a3.41,3.41,0,0,0-1.74-.513,2.26,2.26,0,0,0-1.4.468,2.532,2.532,0,0,0-.883,1.3,9.237,9.237,0,0,0-.395,2.769v7.33Z" fill="#fff"/>
      <path d="M862.7,199.559l-.264-2.229a5.281,5.281,0,0,0,1.359.211,2.607,2.607,0,0,0,1.266-.264,2.162,2.162,0,0,0,.778-.738,11.811,11.811,0,0,0,.724-1.767c.044-.131.115-.325.211-.58l-5.312-14.027h2.557l2.914,8.108q.567,1.542,1.015,3.243a31.838,31.838,0,0,1,.975-3.19l2.993-8.161h2.373L868.965,194.4a27.987,27.987,0,0,1-1.331,3.177,4.686,4.686,0,0,1-1.451,1.721,3.426,3.426,0,0,1-1.952.547A4.787,4.787,0,0,1,862.7,199.559Z" fill="#fff"/>
    </g>
    <g>
      <path d="M891.6,230.166V210.839H905.57v2.28H894.153v5.92h10.692v2.268H894.153v6.578h11.866v2.281Z" fill="#fff"/>
      <path d="M918.174,235.531v-6.855a4.258,4.258,0,0,1-1.549,1.293,4.556,4.556,0,0,1-2.116.513,5.593,5.593,0,0,1-4.291-1.99,7.838,7.838,0,0,1-1.8-5.459,9.372,9.372,0,0,1,.731-3.783,5.471,5.471,0,0,1,2.123-2.538,5.68,5.68,0,0,1,3.052-.863,4.688,4.688,0,0,1,4.087,2.188v-1.872h2.136v19.366Zm-7.317-12.4a6.187,6.187,0,0,0,1.133,4.054,3.438,3.438,0,0,0,2.717,1.351,3.322,3.322,0,0,0,2.609-1.285,5.917,5.917,0,0,0,1.095-3.909,6.54,6.54,0,0,0-1.153-4.206,3.422,3.422,0,0,0-2.709-1.41,3.268,3.268,0,0,0-2.617,1.311A6.4,6.4,0,0,0,910.857,223.126Z" fill="#fff"/>
      <path d="M933.439,230.166v-2.057A5.122,5.122,0,0,1,929,230.482a5.661,5.661,0,0,1-2.313-.474,3.813,3.813,0,0,1-1.6-1.194,4.471,4.471,0,0,1-.732-1.759,12.114,12.114,0,0,1-.145-2.215v-8.675h2.373v7.765a13.916,13.916,0,0,0,.145,2.506,2.474,2.474,0,0,0,.95,1.469,2.94,2.94,0,0,0,1.793.534,3.9,3.9,0,0,0,2-.547,3.049,3.049,0,0,0,1.325-1.49,7.486,7.486,0,0,0,.388-2.736v-7.5h2.374v14Z" fill="#fff"/>
      <path d="M939.293,213.568v-2.729h2.373v2.729Zm0,16.6v-14h2.373v14Z" fill="#fff"/>
      <path d="M945.277,235.531V216.165h2.162v1.819a5.316,5.316,0,0,1,1.728-1.6,4.733,4.733,0,0,1,2.333-.534,5.534,5.534,0,0,1,3.164.922,5.667,5.667,0,0,1,2.07,2.6,9.511,9.511,0,0,1,.7,3.686,9.366,9.366,0,0,1-.772,3.869,5.828,5.828,0,0,1-2.241,2.636,5.757,5.757,0,0,1-3.092.916,4.464,4.464,0,0,1-2.129-.5,4.849,4.849,0,0,1-1.55-1.265v6.815Zm2.15-12.287a6.086,6.086,0,0,0,1.094,4,3.353,3.353,0,0,0,2.65,1.292,3.429,3.429,0,0,0,2.709-1.338,6.345,6.345,0,0,0,1.128-4.146,6.181,6.181,0,0,0-1.1-4.008,3.312,3.312,0,0,0-2.63-1.332,3.416,3.416,0,0,0-2.682,1.418A6.331,6.331,0,0,0,947.427,223.244Z" fill="#fff"/>
      <path d="M960.293,230.166v-14h2.123v1.964a4.975,4.975,0,0,1,1.754-1.654,4.923,4.923,0,0,1,2.491-.626,4.61,4.61,0,0,1,2.551.645,3.458,3.458,0,0,1,1.4,1.807,5.027,5.027,0,0,1,4.324-2.452,4.268,4.268,0,0,1,3.2,1.153,4.936,4.936,0,0,1,1.12,3.553v9.611H976.9v-8.82a6.491,6.491,0,0,0-.23-2.05,1.99,1.99,0,0,0-.837-1.009,2.62,2.62,0,0,0-1.424-.382,3.309,3.309,0,0,0-2.452.983,4.325,4.325,0,0,0-.976,3.143v8.135h-2.373v-9.1a4,4,0,0,0-.58-2.373,2.2,2.2,0,0,0-1.9-.791,3.45,3.45,0,0,0-1.853.528,3,3,0,0,0-1.232,1.542,8.681,8.681,0,0,0-.383,2.927v7.264Z" fill="#fff"/>
      <path d="M992.369,225.657l2.452.3a5.98,5.98,0,0,1-2.148,3.335,7.284,7.284,0,0,1-8.88-.7,7.4,7.4,0,0,1-1.8-5.307,7.741,7.741,0,0,1,1.82-5.484,6.157,6.157,0,0,1,4.719-1.951,5.983,5.983,0,0,1,4.588,1.911,7.591,7.591,0,0,1,1.78,5.379q0,.212-.012.632H984.446a5.374,5.374,0,0,0,1.3,3.534,3.882,3.882,0,0,0,2.927,1.226,3.628,3.628,0,0,0,2.227-.685A4.545,4.545,0,0,0,992.369,225.657Zm-7.792-3.837H992.4a4.751,4.751,0,0,0-.9-2.649,3.637,3.637,0,0,0-2.939-1.371,3.766,3.766,0,0,0-2.749,1.095A4.328,4.328,0,0,0,984.577,221.82Z" fill="#fff"/>
      <path d="M997.8,230.166v-14h2.137v1.991a5.029,5.029,0,0,1,4.455-2.307,5.834,5.834,0,0,1,2.327.455,3.659,3.659,0,0,1,1.589,1.192,4.6,4.6,0,0,1,.738,1.754,13.571,13.571,0,0,1,.132,2.307v8.609h-2.373v-8.517a6.416,6.416,0,0,0-.277-2.169,2.283,2.283,0,0,0-.982-1.146,3.123,3.123,0,0,0-1.654-.429,3.853,3.853,0,0,0-2.618.962q-1.1.965-1.1,3.653v7.646Z" fill="#fff"/>
      <path d="M1018,228.043l.343,2.1a8.85,8.85,0,0,1-1.793.211,4.054,4.054,0,0,1-2-.41,2.272,2.272,0,0,1-1-1.074,8.5,8.5,0,0,1-.29-2.8v-8.055h-1.74v-1.846h1.74V212.7l2.359-1.424v4.892H1018v1.846h-2.387V226.2a4.112,4.112,0,0,0,.126,1.306.988.988,0,0,0,.409.462,1.579,1.579,0,0,0,.811.171A7.656,7.656,0,0,0,1018,228.043Z" fill="#fff"/>
    </g>
    <g>
      <path d="M630.6,230.166V210.839H644.57v2.28H633.153v5.92h10.692v2.268H633.153v6.578h11.866v2.281Z" fill="#fff"/>
      <path d="M657.174,235.531v-6.855a4.258,4.258,0,0,1-1.549,1.293,4.556,4.556,0,0,1-2.116.513,5.593,5.593,0,0,1-4.291-1.99,7.838,7.838,0,0,1-1.8-5.459,9.372,9.372,0,0,1,.731-3.783,5.471,5.471,0,0,1,2.123-2.538,5.68,5.68,0,0,1,3.052-.863,4.688,4.688,0,0,1,4.087,2.188v-1.872h2.136v19.366Zm-7.317-12.4a6.187,6.187,0,0,0,1.133,4.054,3.438,3.438,0,0,0,2.717,1.351,3.322,3.322,0,0,0,2.609-1.285,5.917,5.917,0,0,0,1.095-3.909,6.54,6.54,0,0,0-1.153-4.206,3.422,3.422,0,0,0-2.709-1.41,3.268,3.268,0,0,0-2.617,1.311A6.4,6.4,0,0,0,649.857,223.126Z" fill="#fff"/>
      <path d="M672.439,230.166v-2.057A5.122,5.122,0,0,1,668,230.482a5.661,5.661,0,0,1-2.313-.474,3.813,3.813,0,0,1-1.6-1.194,4.471,4.471,0,0,1-.732-1.759,12.114,12.114,0,0,1-.145-2.215v-8.675h2.373v7.765a13.916,13.916,0,0,0,.145,2.506,2.474,2.474,0,0,0,.95,1.469,2.94,2.94,0,0,0,1.793.534,3.9,3.9,0,0,0,2-.547,3.049,3.049,0,0,0,1.325-1.49,7.486,7.486,0,0,0,.388-2.736v-7.5h2.374v14Z" fill="#fff"/>
      <path d="M678.293,213.568v-2.729h2.373v2.729Zm0,16.6v-14h2.373v14Z" fill="#fff"/>
      <path d="M684.277,235.531V216.165h2.162v1.819a5.316,5.316,0,0,1,1.728-1.6,4.733,4.733,0,0,1,2.333-.534,5.534,5.534,0,0,1,3.164.922,5.667,5.667,0,0,1,2.07,2.6,9.511,9.511,0,0,1,.7,3.686,9.366,9.366,0,0,1-.772,3.869,5.828,5.828,0,0,1-2.241,2.636,5.757,5.757,0,0,1-3.092.916,4.464,4.464,0,0,1-2.129-.5,4.849,4.849,0,0,1-1.55-1.265v6.815Zm2.15-12.287a6.086,6.086,0,0,0,1.094,4,3.353,3.353,0,0,0,2.65,1.292,3.429,3.429,0,0,0,2.709-1.338,6.345,6.345,0,0,0,1.128-4.146,6.181,6.181,0,0,0-1.1-4.008,3.312,3.312,0,0,0-2.63-1.332,3.416,3.416,0,0,0-2.682,1.418A6.331,6.331,0,0,0,686.427,223.244Z" fill="#fff"/>
      <path d="M699.293,230.166v-14h2.123v1.964a4.975,4.975,0,0,1,1.754-1.654,4.923,4.923,0,0,1,2.491-.626,4.61,4.61,0,0,1,2.551.645,3.458,3.458,0,0,1,1.4,1.807,5.027,5.027,0,0,1,4.324-2.452,4.268,4.268,0,0,1,3.2,1.153,4.936,4.936,0,0,1,1.12,3.553v9.611H715.9v-8.82a6.491,6.491,0,0,0-.23-2.05,1.99,1.99,0,0,0-.837-1.009,2.62,2.62,0,0,0-1.424-.382,3.309,3.309,0,0,0-2.452.983,4.325,4.325,0,0,0-.976,3.143v8.135h-2.373v-9.1a4,4,0,0,0-.58-2.373,2.2,2.2,0,0,0-1.9-.791,3.45,3.45,0,0,0-1.853.528,3,3,0,0,0-1.232,1.542,8.681,8.681,0,0,0-.383,2.927v7.264Z" fill="#fff"/>
      <path d="M731.369,225.657l2.452.3a5.98,5.98,0,0,1-2.148,3.335,7.284,7.284,0,0,1-8.88-.7,7.4,7.4,0,0,1-1.8-5.307,7.741,7.741,0,0,1,1.82-5.484,6.157,6.157,0,0,1,4.719-1.951,5.983,5.983,0,0,1,4.588,1.911,7.591,7.591,0,0,1,1.78,5.379q0,.212-.012.632H723.446a5.374,5.374,0,0,0,1.3,3.534,3.882,3.882,0,0,0,2.927,1.226,3.628,3.628,0,0,0,2.227-.685A4.545,4.545,0,0,0,731.369,225.657Zm-7.792-3.837H731.4a4.751,4.751,0,0,0-.9-2.649,3.637,3.637,0,0,0-2.939-1.371,3.766,3.766,0,0,0-2.749,1.095A4.328,4.328,0,0,0,723.577,221.82Z" fill="#fff"/>
      <path d="M736.8,230.166v-14h2.137v1.991a5.029,5.029,0,0,1,4.455-2.307,5.834,5.834,0,0,1,2.327.455,3.659,3.659,0,0,1,1.589,1.192,4.6,4.6,0,0,1,.738,1.754,13.571,13.571,0,0,1,.132,2.307v8.609h-2.373v-8.517a6.416,6.416,0,0,0-.277-2.169,2.283,2.283,0,0,0-.982-1.146,3.123,3.123,0,0,0-1.654-.429,3.853,3.853,0,0,0-2.618.962q-1.1.965-1.1,3.653v7.646Z" fill="#fff"/>
      <path d="M757,228.043l.343,2.1a8.85,8.85,0,0,1-1.793.211,4.054,4.054,0,0,1-2-.41,2.272,2.272,0,0,1-1-1.074,8.5,8.5,0,0,1-.29-2.8v-8.055h-1.74v-1.846h1.74V212.7l2.359-1.424v4.892H757v1.846h-2.387V226.2a4.112,4.112,0,0,0,.126,1.306.988.988,0,0,0,.409.462,1.579,1.579,0,0,0,.811.171A7.656,7.656,0,0,0,757,228.043Z" fill="#fff"/>
    </g>
  </g>
</svg>
