<svg xmlns="http://www.w3.org/2000/svg" width="4in" height="4in" viewBox="0 0 288 288">
  <g>
    <circle cx="144" cy="144" r="142" fill="aqua"/>
    <path d="M144,4a140,140,0,0,1,99,239A140,140,0,0,1,45.005,45.005,139.087,139.087,0,0,1,144,4m0-4A144,144,0,1,0,288,144,144,144,0,0,0,144,0Z" fill="#231f20"/>
  </g>
  <g>
    <g>
      <path d="M48.2,190.1c-.134.77-1.3-.6-.514-.608l77.488-.633c13.9-.114,28.172-.295,41.112-5.38l-18.484-5.89a744.75,744.75,0,0,1,81.842-7.259c17.12-.57,32.448-14.55,35.933-31.321s-4.27-34.963-17.96-45.258S215.16,80.9,198.718,85.7c-11.756,3.436-23.894,13.585-21.429,25.582,4.026-19.325-5.918-40.167-22.325-51.142s-38.105-12.564-56.842-6.354S63.542,73.385,52.1,89.47c-5.115,7.19-9.544,15.317-9.947,24.131s4.216,18.342,12.534,21.286c-.079-4.21-4.853-7.089-9.043-6.672s-7.761,3.126-10.95,5.875c-6.548,5.645-12.684,12.1-16.1,20.044s-3.718,17.623.968,24.888c7.126,11.047,22.484,12.886,35.58,11.733" fill="#fff"/>
      <path d="M47.066,188.159l-.368.186,2.727.352-.392-.462.352,2.727.244-.332-1.942,1.114,62.587-.511c18.827-.154,38.67,1.147,56.612-5.582a2.271,2.271,0,0,0,0-4.339L148.4,175.421v4.34q36.517-5.234,73.421-6.877c9.465-.415,18.024-.9,26.331-5.973a43.564,43.564,0,0,0,16.065-17.376c7.749-15.371,4.709-34-5.364-47.568-10.7-14.418-28.606-21.579-46.315-20.794-16.395.726-40.686,10.324-37.42,30.71.349,2.179,3.938,2.117,4.34,0,2.857-15.04-1.5-30.359-10.991-42.275-10.061-12.624-25.155-19.722-41.052-21.331-33.533-3.4-65.729,18.558-81.752,47.065-7.769,13.821-8.9,34.71,8.424,41.714a2.257,2.257,0,0,0,2.848-2.169C55.458,123.551,42.743,125.1,35.8,130.3c-9.415,7.057-18.716,17.247-21.242,29.073-2.182,10.22.6,20.965,9.259,27.317,8.846,6.489,20.782,7.15,31.328,6.311,2.867-.228,2.892-4.73,0-4.5-15.075,1.2-35.861-1.881-36.826-20.912-.461-9.088,3.953-17.342,9.8-23.98a75.685,75.685,0,0,1,9.378-8.956c3.428-2.748,13.856-8.066,14.938.23l2.848-2.17c-16.438-6.645-10.793-27.448-3.573-38.671a98.448,98.448,0,0,1,30.05-30.013c23.776-14.9,57.863-17.067,79.063,3.788,11.234,11.052,17.269,27.212,14.295,42.866h4.34c-2.937-18.328,22.651-25.186,36.2-25.07,16.658.142,32.92,7.864,41.788,22.27,8.354,13.571,9.253,30.937-.039,44.277a37.94,37.94,0,0,1-18.654,14.223c-8.377,2.828-17.975,1.991-26.708,2.489-21.7,1.237-43.328,3.462-64.843,6.545-2.355.338-1.912,3.73,0,4.34l18.484,5.89v-4.339c-19.563,7.337-41.837,5.31-62.37,5.478l-31.79.26-16.888.138c-2.853.023-7.224-1.1-9.141,1.5a2.279,2.279,0,0,0,.351,2.727l.392.462a2.283,2.283,0,0,0,2.727.352l.367-.187c2.582-1.312.307-5.2-2.271-3.885Z" fill="#231f20"/>
    </g>
    <g>
      <path d="M120.9,230.227c-.182.947-1.841-.055-1.4-.911s1.623-.92,2.587-.872a477.009,477.009,0,0,0,116.573-8.614c7.923-1.579,17.768-5.822,17.132-13.875-.386-4.877-4.789-8.43-9.182-10.586-17.545-8.609-40.8-3.229-52.777,12.213A137.689,137.689,0,0,0,128.528,213c-8.749,2.941-18.313,8.1-19.975,17.179a138.107,138.107,0,0,0,36.434-.211" fill="#fff"/>
      <path d="M119.763,228.284l-.541.375h2.271l.18.059-.579,2.189c.955-.9,4.539-.051,5.874,0q3.415.134,6.832.218,7.322.18,14.647.133,14.16-.088,28.3-1.016a483.057,483.057,0,0,0,53.881-6.606c9.288-1.673,27.577-4.075,27.428-17.092-.143-12.445-17.686-17-27.481-17.471a46.713,46.713,0,0,0-38.327,16.917l2.189-.578A142.725,142.725,0,0,0,140.3,207.32c-12.628,2.951-30.541,7.629-33.917,22.265a2.292,2.292,0,0,0,2.169,2.848,145.036,145.036,0,0,0,36.434-.211c2.83-.374,2.867-4.879,0-4.5a145.036,145.036,0,0,1-36.434.211l2.17,2.848c2.306-10,13.108-14.039,21.9-16.731a135.229,135.229,0,0,1,34.65-5.829,136.915,136.915,0,0,1,15.612.315c3.885.3,9.912,2.869,12.977.095,3.2-2.9,5.6-5.99,9.352-8.372a43.361,43.361,0,0,1,12.842-5.466c9-2.226,19.038-1.649,27.419,2.519,4.419,2.2,10,6.569,7.424,12.133-1.9,4.11-7.129,6.13-11.184,7.321-10.86,3.19-22.684,4.43-33.88,5.911q-17.425,2.306-34.992,3.306-19.5,1.12-39.046.643c-3.255-.08-6.506-.234-9.759-.34-1.726-.056-3.714-.386-5.247.647-2.363,1.593-1.714,4.267.428,5.612a2.209,2.209,0,0,0,2.271,0l.542-.375c2.365-1.638.117-5.54-2.272-3.886Z" fill="#231f20"/>
    </g>
  </g>
</svg>
