<svg xmlns="http://www.w3.org/2000/svg" width="4in" height="4in" viewBox="0 0 288 288">
  <g>
    <circle cx="144" cy="144" r="142" fill="#994500"/>
    <path d="M144,4a140,140,0,0,1,99,239A140,140,0,0,1,45.005,45.005,139.087,139.087,0,0,1,144,4m0-4A144,144,0,1,0,288,144,144,144,0,0,0,144,0Z" fill="#231f20"/>
  </g>
  <g>
    <path d="M256.05,115.179c-7.149-19.133-23.744-34.036-42.329-37.328,5.42-1.78,10.185-7.636,10.9-14.047,1.061-9.515-4.062-18.575-10.067-25.594-2.413-2.82-5.077-5.516-8.332-7.037-8.384-3.916-18.542,1.331-23.674,9.534s-6.314,18.538-6.695,28.45c-2.832-6.684-10.822-8.137-17.572-8.7l-15.491-1.3,10.854-2.849-15.491,1.3c-6.75.565-14.74,2.017-17.572,8.7-.381-9.911-1.563-20.246-6.695-28.449S98.6,24.407,90.213,28.324c-3.255,1.521-5.918,4.217-8.331,7.037-6.005,7.018-11.129,16.078-10.067,25.594C72.53,67.366,77.3,73.222,82.715,75,64.13,78.293,47.535,93.2,40.387,112.33c-8.44,22.588-2.982,44.2,5.634,65.363,7.835,19.245,24.848,27.361,37.211,42.763,3.34,4.161,6.14,8.822,9.635,12.829,8.284,9.5,19.815,14.414,31.517,16.423,18.174,3.12,32.652,3.783,50.512-2.705a109.471,109.471,0,0,0,36.065-21.816c10.262-9.31,14.933-23.132,24.965-31.887,10.389-9.065,17.041-15.81,21.276-30.451C261.671,147.4,261.69,130.277,256.05,115.179Zm-135.375,34.56c-7.063,2.393-13.223-2.68-14.411-10.3a20.449,20.449,0,0,1-.17-4.821,13.768,13.768,0,0,1-.847-4.514,5.555,5.555,0,0,1,2.476-4.694,18.708,18.708,0,0,1,2.258-1.291,18.716,18.716,0,0,1,5.632-5.142c3.672-2.146,7.076,1.029,7.486,4.435a12.986,12.986,0,0,1,6.424,6.177C133.825,137.984,128.513,147.082,120.675,149.739Zm37.79,31.132c-1.6,4.992-3.646,10.671-8.208,13.3-3.3,1.9-6.84,1.462-10.421,1.416a4.816,4.816,0,0,1-4.724-4.32c-4.786,1.676-8.577-6.526-3.718-10.1,3.227-2.371,6.311-4.891,10-6.363,4.432-1.766,9.006-1.5,13.575-.618C157.51,174.673,159.3,178.281,158.465,180.871ZM190.1,152.68c-.024.1-.047.209-.071.315-1.2,5.163-7.057,4.723-9.1,1.234-6.016-.277-11.641-4.256-11.751-11.389-.118-7.72,5.942-13.8,11.537-17.427a4.767,4.767,0,0,1,6.059.85,22.277,22.277,0,0,1,2.375,3.351,4.492,4.492,0,0,1,4.5.088c3.792,2.115,7.352,4.743,7.177,11.168C200.66,146.917,195.553,150.733,190.1,152.68Z" fill="#fff"/>
    <g>
      <path d="M258.219,114.581c-7.406-19.1-23.368-34.941-43.9-38.9V80.02c23.1-8.985,10.225-42.523-6.96-50.789-8.812-4.239-18.939.457-24.717,7.519-7.319,8.945-8.558,21.3-9.038,32.407l4.193-1.136c-5.87-11.871-24.057-10.195-35.006-11.111l.6,4.42,10.854-2.85c2.388-.627,1.986-4.635-.6-4.419-10.971.917-29.13-.772-35.005,11.11l4.192,1.136c-.479-11.1-1.712-23.473-9.038-32.406-5.8-7.077-15.879-11.734-24.716-7.52-9.516,4.537-17.449,17.228-19.224,27.355-1.735,9.9,2.653,19.7,12.263,23.435V72.832c-29.175,5.625-48.185,34.285-48.2,62.968-.006,16.106,4.855,33.785,12.481,47.949,6.733,12.5,18.3,20.831,28.211,30.6,5.73,5.651,9.991,12.207,14.971,18.468a49.135,49.135,0,0,0,17.327,13.771c13.718,6.556,31.163,8.547,46.207,7.438,16.237-1.2,31.947-7.528,45.472-16.428,6.607-4.348,13.222-9.334,18.34-15.4,4.695-5.569,8.277-11.929,12.437-17.881,4.9-7.013,11.586-11.887,17.341-18.094A53.8,53.8,0,0,0,257.6,168.759a79.084,79.084,0,0,0,.621-54.178c-.97-2.706-5.32-1.539-4.339,1.2a75.4,75.4,0,0,1,1.153,46.473,50.556,50.556,0,0,1-8.945,17.849c-3.814,4.73-8.511,8.475-12.887,12.641-9.927,9.452-14.766,22.869-25.114,32a103.993,103.993,0,0,1-40.118,22.131c-15.178,4.272-31.528,3.4-46.792-.1a53.188,53.188,0,0,1-19.439-8.444c-6.624-4.8-10.763-11.439-15.644-17.833-7.686-10.067-18.016-17.44-26.646-26.6-10.363-11-15.613-25.627-18.9-40.173-3.97-17.559-2.35-36.086,7.385-51.545,7.975-12.665,20.586-22.155,35.382-25.008,2.4-.463,1.852-3.619,0-4.339-10.488-4.08-10.9-16.385-6.828-25.236,3.066-6.666,9.238-16.152,16.888-18.009,8.008-1.943,15.695,4.211,19.39,10.793,4.4,7.83,5.19,17.14,5.569,25.927.09,2.081,3.146,3.253,4.193,1.136,2.4-4.862,7.272-6.473,12.342-7.227,6.188-.921,12.545-1.134,18.778-1.655l-.6-4.42-10.854,2.85c-2.573.675-1.837,4.216.6,4.419,6.236.522,12.587.736,18.779,1.655,5.076.754,9.932,2.354,12.341,7.227,1.045,2.114,4.1.948,4.193-1.135.379-8.778,1.165-18.11,5.569-25.928,3.7-6.567,11.373-12.738,19.39-10.792,7.674,1.862,13.818,11.285,16.888,18.009,4.041,8.849,3.676,21.149-6.828,25.235-1.851.72-2.407,3.875,0,4.339,18.927,3.65,33.9,18.058,40.757,35.758C254.916,118.449,259.269,117.288,258.219,114.581Z" fill="#231f20"/>
      <path d="M120.077,147.569c-7.678,2.12-11.513-4.636-11.8-11.353a28.041,28.041,0,0,0-.237-2.912c-.437-3.066-.383-4.272,1.929-6.634.843-.861,1.659-1.211,2.561-2.165,1.8-1.9,1.991-2.155,4.988-2.274,4.737-.188,1.827-.064,3.641,2.32a7.07,7.07,0,0,0,1.351,1.075c2.612,2.225,4.891,3.626,5.893,7.229,1.766,6.35-2.513,12.458-8.324,14.714-2.671,1.037-1.51,5.39,1.2,4.339,8.1-3.145,13.922-11.354,11.467-20.249a16.636,16.636,0,0,0-3.131-6.021c-1.341-1.639-3.308-2.537-4.629-4.078-2.473-2.883-3.479-6.354-8.307-5.355a12.164,12.164,0,0,0-5.153,2.956,72.49,72.49,0,0,0-6.4,5.539c-3.422,3.768-1.684,9.437-1.2,13.934.971,8.99,8.124,15.822,17.352,13.274C124.061,151.138,122.877,146.8,120.077,147.569Z" fill="#231f20"/>
      <path d="M156.3,180.273c-1.311,4.013-2.706,8.673-6.277,11.271-2.905,2.114-11.469,3.85-12.737-.88a2.3,2.3,0,0,0-2.768-1.571c-2.747.606-3.607-3.349-2.677-5.15,1.011-1.96,5.126-4.157,6.944-5.264,2.813-1.713,18.929-6.555,17.515,1.594-.492,2.832,3.844,4.049,4.339,1.2.883-5.086-1.752-8.834-6.777-9.752-7.55-1.378-14,.573-20.161,4.968-3.962,2.827-7.908,5.68-6.521,11.144,1.024,4.035,4.432,6.509,8.534,5.6l-2.768-1.571c1.784,6.652,9.218,7.019,15.031,5.594,7.494-1.838,10.5-9.365,12.662-15.986C161.536,178.71,157.192,177.528,156.3,180.273Z" fill="#231f20"/>
      <path d="M187.929,152.082c-1.192,5.254-4.667.762-7.006-.1-4.062-1.5-7.892-1.708-9.212-6.875-1.177-4.61,1.089-9.247,4.077-12.62a21.019,21.019,0,0,1,4.934-4.369c3.255-1.815,4.83-.031,6.478,2.634a2.284,2.284,0,0,0,2.541,1.034c5.149-1.84,9.062,5.138,8.833,9.087-.3,5.1-4.76,7.975-9.074,9.64-2.673,1.032-1.512,5.384,1.2,4.339,7.326-2.826,13.546-8.335,12.171-16.89-.988-6.14-7.809-12.843-14.322-10.515l2.541,1.034c-2.319-3.749-5.5-7.3-10.314-5.547-5.054,1.836-9.969,7.552-12.147,12.3-4.691,10.224,1.267,20.254,12.3,21.251l-1.943-1.115c3.8,5.236,11.719,4.833,13.288-2.086C192.907,150.458,188.57,149.254,187.929,152.082Z" fill="#231f20"/>
    </g>
  </g>
</svg>
