<svg xmlns="http://www.w3.org/2000/svg" width="4in" height="4in" viewBox="0 0 288 288">
  <g>
    <g>
      <path d="M135.691,230.833c-17.225,0-32.35-5.728-43.7-16.58l-21.175-21.17.178-.178C60.066,179.634,55.4,161.843,57.824,142.488c2.562-20.316,12.7-40.241,28.577-56.074,18.577-18.538,42.6-29.176,65.945-29.176,15.659,0,29.574,4.768,40.535,13.769l.178-.178L213.38,91.146l.854.889c12.812,13.414,18.506,32.2,16.015,52.979-2.456,20.53-12.634,40.633-28.684,56.679-18.506,18.5-42.528,29.14-65.874,29.14Z" fill="#231f20"/>
      <path d="M152.382,60.4c15.338,0,29.716,4.91,40.677,14.944l.036-.035,18.007,18,.854.89c25.09,26.222,19.538,73.046-12.6,105.175-18.577,18.572-42.1,28.25-63.667,28.25-15.73,0-30.428-5.123-41.5-15.691L75.333,193.083l.036-.036c-24.2-26.4-18.542-72.583,13.31-104.392,18.612-18.573,42.1-28.251,63.7-28.251m0-6.4h0c-24.2,0-49.041,10.959-68.223,30.136C67.788,100.5,57.29,121.069,54.656,142.1a75.719,75.719,0,0,0,1.922,29.71,62.475,62.475,0,0,0,10.143,20.85l-.463.462,4.52,4.519L89.64,216.5l.035.035.036.036a61.037,61.037,0,0,0,21.21,13.164A70.845,70.845,0,0,0,135.655,234c24.2,0,49.041-10.994,68.187-30.136,16.549-16.545,27.047-37.36,29.574-58.565a74.885,74.885,0,0,0-2.242-29.959,61.826,61.826,0,0,0-14.662-25.618l-.854-.889-.036-.036-.036-.035-18.007-18-4.52-4.518-.463.462a60.991,60.991,0,0,0-16.121-8.61A69.787,69.787,0,0,0,152.382,54Z" fill="#231f20"/>
    </g>
    <path d="M88.928,88.94c-16.584,16.58-26.015,37-28.008,56.323-2.029,19.356,3.345,37.395,16.05,50.133s30.748,18.039,50.144,16.046c19.324-1.992,39.788-11.457,56.336-28s26.015-37.039,28.079-56.395c1.958-19.32-3.381-37.4-16.086-50.1S164.66,58.91,145.335,60.867C125.94,62.9,105.512,72.359,88.928,88.94Zm7.011,5.515,5.48,5.586c-1.53,1.494-2.953,3.095-4.377,4.661l-5.836-5.231C92.736,97.764,94.3,96.091,95.939,94.455Zm4.947-4.626c1.743-1.494,3.523-2.989,5.373-4.341l4.876,6.049c-1.779,1.174-3.167,2.526-5.018,3.985ZM86.864,104.808l6.085,4.911c-1.316,1.672-2.526,3.522-3.736,5.337l-6.264-4.626C84.266,108.438,85.725,106.445,86.864,104.808Zm25.125-23.233c1.957-1.21,3.95-2.384,6.014-3.416l4.129,6.547c-1.886,1.031-3.808,2.134-5.623,3.309ZM85.9,120.642c-1,1.957-2.029,4.02-2.847,5.87l-6.833-3.664c.961-2.064,2.1-4.59,3.132-6.583C81.561,117.653,83.8,119.254,85.9,120.642ZM124.338,75.17c2.171-.925,4.378-1.814,6.62-2.526l3.238,6.938c-2.135.641-4.128,1.53-6.157,2.313ZM73.767,129.323l6.9,3.2c-.711,2.349-1.281,4.128-1.815,6.369l-7.082-2.7a60.092,60.092,0,0,1,1.993-6.867Zm64.024-58.565h.071c2.455-.5,5.018-1.032,7.189-1.281l2.028,7.188a56.673,56.673,0,0,0-6.513,1.138H140.5c-.818-2.384-1.779-4.7-2.7-7.045ZM70.458,143.271c2.384.747,4.768,1.458,7.188,2.1a59.17,59.17,0,0,0-.533,6.689l-7.26-1.317a17.985,17.985,0,0,1,.605-7.471Zm82.066-74.292a55.9,55.9,0,0,1,7.687.392l.249,7.187c-2.349-.178-4.733-.392-6.762-.356ZM77.4,158.819a57.1,57.1,0,0,0,1.21,6.725l-7.011.569a65.933,65.933,0,0,1-1.352-7.828C72.273,158.534,75.12,158.677,77.4,158.819ZM167.969,70.9c2.634.747,5.339,1.779,7.687,2.7L173.7,80.223a57.055,57.055,0,0,0-6.513-2.349ZM74.194,173.941l6.584-1.957a42.77,42.77,0,0,0,3.31,6.155l-5.943,3.1A35.225,35.225,0,0,1,74.194,173.941Zm108.9-96.067a65.7,65.7,0,0,1,6.655,5.586l-4.8,4.626a54.815,54.815,0,0,0-5.267-4.412c1.139-1.957,2.242-3.878,3.416-5.8ZM88.43,183.512a51.306,51.306,0,0,0,5.267,4.447l-3.452,5.764A81.68,81.68,0,0,1,83.7,188.03c1.139-1.138,3.275-3.131,4.734-4.518ZM189.393,93.494l5.73-3.416a46.431,46.431,0,0,1,4.128,7.472l-6.583,1.957a54.855,54.855,0,0,0-3.275-6.013ZM99.711,191.517a58.888,58.888,0,0,0,6.406,2.349l-.819,6.973a74.878,74.878,0,0,1-7.865-2.775,62.508,62.508,0,0,1,2.278-6.547Zm95.234-85.5,7.011-.783a68.442,68.442,0,0,1,1.53,7.828c-2.562-.142-4.8-.285-7.26-.356l-.035-.035A60.185,60.185,0,0,0,194.945,106.018ZM119.5,195.645l1.246,7.222a66.86,66.86,0,0,1-7.723-.427l-.249-7.187C115.05,195.36,117.505,195.68,119.5,195.645ZM97.54,215.534a54.875,54.875,0,0,0,13.88,8.077l-6.015-6.013a77.77,77.77,0,0,1-7.865-2.064ZM215.515,97.586a66.759,66.759,0,0,1,2.491,10.211l6.727,6.725A55.179,55.179,0,0,0,215.515,97.586ZM196.547,119.4l7.224,1.352a66.72,66.72,0,0,1-.534,7.4l-7.189-2.028c.285-2.206.392-4.448.5-6.725Zm-70.358,75.857a56.3,56.3,0,0,0,6.584-1.1l2.6,7.116c-2.349.57-4.805.854-7.189,1.21Zm68.649-62.621,7.083,2.74c-.534,2.348-1.21,4.59-1.958,6.867L193.023,139c.748-2.135,1.353-4.448,1.815-6.369Zm-55.731,59.81c2.1-.6,4.093-1.53,6.157-2.312L149,196.89c-2.135.961-4.413,1.672-6.62,2.491Zm-22.883,26.543,8.221,8.219a66.75,66.75,0,0,0,9.288.819l-9.075-9.038C121.811,219.092,119.036,219.127,116.224,218.985Zm74.486-73.864,6.762,3.7c-.961,2.206-2.135,4.448-3.061,6.3l-6.548-4.128C189,149,189.785,146.9,190.71,145.121Zm28.364-26.9a79.111,79.111,0,0,1-.178,8.219l9.182,9.18a68.063,68.063,0,0,0-.57-8.966ZM151.136,187.39c1.886-1.032,3.772-2.1,5.623-3.238l4.555,6.333c-1.957,1.246-3.986,2.349-6.014,3.416Zm33.453-30.848,6.335,4.519c-1.353,1.992-2.705,4.056-3.951,5.657l-6.05-4.875C182.205,159.922,183.343,158.25,184.589,156.542ZM162.1,180.487c1.744-1.28,3.417-2.6,5.089-4.02l5.161,5.835c-1.744,1.494-3.524,2.918-5.374,4.305Zm14.769-13.627,5.766,5.266a54.376,54.376,0,0,1-5.232,5.515l-5.48-5.515C173.663,170.418,175.265,168.675,176.866,166.86Zm-43.7,51.271,9.609,9.607c2.954-.285,6.05-.783,8.5-1.281l-9.964-9.962C138.609,217.171,135.869,217.7,133.164,218.131Zm84.7-83.328a82.473,82.473,0,0,1-1.815,8.076l10.036,10.034a79.711,79.711,0,0,0,1.459-8.4Zm-69.255,79.521,10.214,10.212c2.563-.783,5.2-1.708,7.758-2.74L156.19,211.407C153.7,212.474,151.172,213.47,148.609,214.324Zm65.234-64.258c-.926,2.527-1.922,5.017-3.025,7.472l10.391,10.39c1.068-2.562,2.029-5.124,2.847-7.65ZM162.56,208.347l10.5,10.5c2.207-1.1,4.449-2.313,6.62-3.594l-10.57-10.567c-2.171,1.316-4.342,2.562-6.548,3.665Zm45.126-44.511c-1.175,2.17-2.42,4.3-3.773,6.44l10.57,10.567c1.317-2.135,2.6-4.3,3.7-6.511ZM174.731,200.91l10.641,10.639c2.029-1.388,4.021-2.918,6.014-4.483l-10.712-10.71C178.753,197.957,176.76,199.487,174.731,200.91Zm25.41-25.084c-1.566,2.171-3.2,4.27-4.947,6.334l10.712,10.709c1.744-2.1,3.346-4.2,4.912-6.333ZM185.728,191.98l10.712,10.709c1.851-1.672,3.2-3.095,4.982-4.838l-10.712-10.71c-1.637,1.637-3.452,3.487-4.982,4.839Z" fill="#fcf6ad"/>
  </g>
</svg>
