<?xml version="1.0" encoding="utf-8"?>
<!-- Generator: Adobe Illustrator 25.4.1, SVG Export Plug-In . SVG Version: 6.00 Build 0)  -->
<svg version="1.1" id="Layer_1" xmlns="http://www.w3.org/2000/svg" xmlns:xlink="http://www.w3.org/1999/xlink" x="0px" y="0px"
	 width="512px" height="512px" viewBox="0 0 512 512" style="enable-background:new 0 0 512 512;" xml:space="preserve">
<style type="text/css">
	.st0{fill:#231F20;}
</style>
<g transform="translate(0,0)">
	<path class="st0" d="M256,68.8c-65.9,0-125.2,18.6-167.6,47.9C45.9,146,20.7,185.6,20.7,228.6s25.2,82.5,67.7,111.9
		c42.3,29.3,101.8,47.9,167.6,47.9c65.8,0,125.3-18.6,167.8-47.9c42.3-29.4,67.6-68.9,67.6-111.9s-25.3-82.6-67.6-111.9
		C381.3,87.4,321.9,68.8,256,68.8z M259,90l-0.2,18.7c-6-0.1-12,0.2-18,0.5l-1.2-18.7C246.1,90.2,252.5,90,259,90z M278,90.6
		c6.4,0.4,12.9,0.9,19.3,1.8l-2.3,18.5c-5.9-1-11.3-1.1-17.9-1.7L278,90.6z M220.4,92.2l2.3,18.6c-6,0.6-12,1.7-18,2.7l-3.3-18.4
		C208,93.9,214.9,93,220.4,92.2z M316.5,95.4c6.3,1.3,12.6,2.6,18.8,4.4l-4.8,18c-5.8-1.5-11.8-2.8-17.7-3.9L316.5,95.4z M187,117.3
		c-5.9,1.6-12,3.4-17.3,5.1l-6.3-17.7c6-1.9,13.3-4.2,19.3-5.8C184.3,104.9,185.6,111.4,187,117.3z M353.7,105.4
		c6.1,2.1,12.3,4.3,18.2,6.9l-7.4,17.2c-5.5-2.5-11.2-4.4-16.8-6.5L353.7,105.4z M145.7,111.5l7.3,17.1c-6.1,2.8-10.8,4.8-16.2,7.7
		l-8.7-16.6C134.5,116.2,139.3,114.2,145.7,111.5L145.7,111.5z M389.3,120.7l0.1,0.1c5.9,3.3,12,6.7,16.8,10l-10.3,15.6
		c-4.9-3.3-10-6.3-15.2-9.1l-0.1-0.1C383.7,131.8,386.4,126.2,389.3,120.7L389.3,120.7z M111.3,129.5c3.3,5.3,6.6,10.5,10.1,15.7
		c-5,3.2-9.7,6.7-14.3,10.4l-11.8-14.5C101.9,134.1,108.2,130.8,111.3,129.5L111.3,129.5z M422,142.6c5,4.4,10.1,8.6,14.5,13.7
		l-13.8,12.6c-4.3-4.3-8.6-8.7-12.7-12L422,142.6z M94.2,167.5c-4.1,4.4-8,9.2-11,13.4L68.1,170c4.8-6.1,8.1-10.7,12.9-15.5
		C84.6,158.4,90,163.4,94.2,167.5z M266.5,158.8c13.4,23.7,25.1,48.6,37.3,73l-37.3-44.1L239.1,220l-15.7-10.2
		C237.8,192.8,252.1,175.8,266.5,158.8L266.5,158.8z M124.8,170.6c33.8,17,66,40.5,98,61.1l-68.3-28.4l26.4,85.4l85.6,6.3l85.9-6.3
		l-9.4,19.4l-76.5,5.6l-99.6-7.3L124.8,170.6z M409,170.7c-17.8,38.5-36.6,76.7-55.1,114.9l25.5-82.4l-57.2,23.6l-8.5-16.8
		L409,170.7z M448.9,172c3.7,5.7,7.1,12,9.9,17.6l-17,7.8c-2.3-5.3-5.4-10.1-8.3-15L448.9,172z M57.8,187.7l17,7.8
		c-2.5,5.1-4.2,10.5-5.6,16l-18-4.8C52.9,198.8,54.7,193.9,57.8,187.7z M465.1,209.3c1.1,7.2,2.1,14,2.1,20.7l-18.7-0.3
		c-0.4-5.7-0.6-11.6-1.7-16.4C452.9,212,459,210.6,465.1,209.3L465.1,209.3z M67.1,227.9c0.1,5.8,0.7,11.5,1.6,16.4l-18.3,3.9
		c-0.9-7-1.7-14.3-1.7-20.7C53.2,227.6,61.4,227.8,67.1,227.9L67.1,227.9z M446.6,246.4l18.2,3.9c-1.5,6.9-4.1,14.1-6.6,19.6
		l-17-7.8C443.5,256.6,445.3,251.2,446.6,246.4L446.6,246.4z M73.6,260.5c2.5,5.2,5.2,10.3,8,14.8l-15.5,10.4
		c-4.2-6.4-7.1-12-10.1-18C61.4,265.2,67.6,262.7,73.6,260.5L73.6,260.5z M432.7,277l15.5,10.5c-3.9,5.7-8.6,11.4-12.5,15.8
		c-4.8-4.6-9-8.6-13.7-12.9v-0.1C426.1,285.8,429.8,281.1,432.7,277z M104.7,301l-11.9,14.3c-5.2-4.3-10.4-9.4-14.5-13.8l13.8-12.6
		C96.4,293,100.7,297.7,104.7,301z M21.6,297.5c1.7,12.9,5.6,25.3,11.5,37.1v-20.3C28.9,308.9,25.1,303.3,21.6,297.5L21.6,297.5z
		 M490.4,297.5c-4.4,7.5-9.6,14.7-15.3,21.5v22.7C483.2,327.7,488.4,312.9,490.4,297.5z M409.3,302.3l11.7,14.5
		c-6.1,4.9-9.9,7.7-15.8,11.6l-10.3-15.6C399.9,309.6,404.6,306,409.3,302.3L409.3,302.3z M118.8,311.6c4.9,3.4,10.1,6.4,15.3,9.3
		l-9,16.4c-5.8-3-11.2-6.7-16.7-10.1L118.8,311.6z M379.6,321.8l8.7,16.6c-5.7,3.1-11.5,5.7-17.5,8.3l-7.4-17.2
		C369.1,327.2,374.9,324.3,379.6,321.8L379.6,321.8z M150,328.7c5.4,2.5,11.2,4.3,16.8,6.5l-6,17.7c-6.1-2-12.1-4.6-18.1-7
		L150,328.7z M51.8,334.9v27.8c5.1,5.9,10.7,11.7,16.8,17.1v-30.6C62.7,344.6,57.1,339.9,51.8,334.9z M346.6,335.9l6.1,17.7
		c-6.3,2.1-13.1,3.9-18.6,5.5l-4.8-18.1C335.5,339.6,341.2,337.4,346.6,335.9z M456.4,338.4c-5.3,4.7-10.8,9.3-16.7,13.6v31.1
		c6-5.1,11.6-10.5,16.7-16.1V338.4z M184,340.5c5.8,1.5,11.7,2.8,17.6,4l-3.5,18.4c-6.4-1.2-12.6-2.8-18.8-4.4L184,340.5z
		 M311.7,344.9l3.6,18.4c-6.6,1.1-13.4,2.3-19.1,2.9l-2.3-18.5C300.3,346.6,305.9,345.7,311.7,344.9z M219.5,347.4
		c6,0.8,12,1.4,18.1,1.8l-1.3,18.6c-6.4-0.4-12.8-1-19.2-1.8L219.5,347.4z M275.9,349.3l1,18.7c-6.8,0.5-14.3,0.8-21.4,0.5l0.1-18.6
		C262.4,349.9,269.1,349.7,275.9,349.3z M87.2,362.1v32.5c6.4,4.5,13.6,8.9,19.4,12.2v-33.7C99.9,369.7,93.4,366,87.2,362.1z
		 M421,364.4c-6.3,3.8-12.8,7.3-19.6,10.6v33.9c6.9-3.7,13.4-7.6,19.6-11.7V364.4z M125.4,381.8v34.5c6.7,3,13.7,5.9,20.9,8.5v-35.1
		C139.2,387.3,132.2,384.7,125.4,381.8z M382.7,383.4c-6.8,2.7-13.8,5.2-20.9,7.5v35.2c7.2-2.5,14.2-5.2,20.9-8.1V383.4z M165,395.3
		v35.5c6.6,1.9,13.4,3.6,20.3,5.1v-35.8C178.4,398.7,171.6,397.1,165,395.3L165,395.3z M343.1,396.3c-6.6,1.7-13.4,3.2-20.3,4.5
		v35.8c6.9-1.4,13.7-2.9,20.3-4.7V396.3z M204,403.3v36c6.8,1.1,13.8,1.9,20.9,2.6v-36.2C217.8,405.1,210.8,404.3,204,403.3z
		 M304.3,403.8c-7.4,1-14.8,1.8-22.4,2.3v36.2c7.6-0.6,15-1.4,22.4-2.4V403.8z M243.6,406.8V443c7,0.3,12.5,0.2,19.5,0.2V407
		C256.6,407,249.3,407.1,243.6,406.8L243.6,406.8z"/>
</g>
</svg>
