<?xml version="1.0" encoding="utf-8"?>
<!-- Generator: Adobe Illustrator 24.3.0, SVG Export Plug-In . SVG Version: 6.00 Build 0)  -->
<svg version="1.1" id="Layer_1" xmlns="http://www.w3.org/2000/svg" xmlns:xlink="http://www.w3.org/1999/xlink" x="0px" y="0px"
	 viewBox="0 0 512 512" style="enable-background:new 0 0 512 512;" xml:space="preserve">
<style type="text/css">
	.st0{fill:#231F20;}
	.st1{fill:#FFD400;}
</style>
<g>
	<path class="st0" d="M232.2,499.2c-48.4,0-90.9-16.1-122.8-46.6l-59.5-59.5l0.5-0.5c-30.7-37.3-43.8-87.3-37-141.7
		c7.2-57.1,35.7-113.1,80.3-157.6c52.2-52.1,119.7-82,185.3-82c44,0,83.1,13.4,113.9,38.7l0.5-0.5l57.1,57.1l2.4,2.5
		c36,37.7,52,90.5,45,148.9c-6.9,57.7-35.5,114.2-80.6,159.3C365.3,469.3,297.8,499.2,232.2,499.2
		C232.2,499.2,232.2,499.2,232.2,499.2z"/>
	<path class="st0" d="M279.1,20.2c43.1,0,83.5,13.8,114.3,42l0.1-0.1l50.6,50.6l2.4,2.5c70.5,73.7,54.9,205.3-35.4,295.6
		c-52.2,52.2-118.3,79.4-178.9,79.4c-44.2,0-85.5-14.4-116.6-44.1l-53-53l0.1-0.1c-68-74.2-52.1-204,37.4-293.4
		C152.4,47.4,218.4,20.2,279.1,20.2 M279.1,2.2C279.1,2.2,279.1,2.2,279.1,2.2C211.1,2.2,141.3,33,87.4,86.9
		c-46,46-75.5,103.8-82.9,162.9c-3.7,29.2-1.8,57.3,5.4,83.5c6,21.7,15.6,41.3,28.5,58.6l-1.3,1.3l12.7,12.7l53,53l0.1,0.1l0.1,0.1
		c17,16.2,37,28.7,59.6,37c21.6,8,44.9,12,69.5,12c68,0,137.8-30.9,191.6-84.7c46.5-46.5,76-105,83.1-164.6
		c3.5-29.5,1.4-57.8-6.3-84.2c-8.1-27.6-21.9-51.8-41.2-72l-2.4-2.5l-0.1-0.1l-0.1-0.1l-50.6-50.6l-12.7-12.7l-1.3,1.3
		c-13.6-10.2-28.8-18.3-45.3-24.2C325.8,6,303,2.2,279.1,2.2L279.1,2.2L279.1,2.2z"/>
</g>
<g transform="translate(0,0)">
	<path class="st1" d="M100.8,100.4c-46.6,46.6-73.1,104-78.7,158.3c-5.7,54.4,9.4,105.1,45.1,140.9s86.4,50.7,140.9,45.1
		c54.3-5.6,111.8-32.2,158.3-78.7s73.1-104.1,78.9-158.5c5.5-54.3-9.5-105.1-45.2-140.8S313.6,16,259.3,21.5
		C204.8,27.2,147.4,53.8,100.8,100.4z M120.5,115.9l15.4,15.7c-4.3,4.2-8.3,8.7-12.3,13.1L107.2,130
		C111.5,125.2,115.9,120.5,120.5,115.9z M134.4,102.9c4.9-4.2,9.9-8.4,15.1-12.2l13.7,17c-5,3.3-8.9,7.1-14.1,11.2L134.4,102.9z
		 M95,145l17.1,13.8c-3.7,4.7-7.1,9.9-10.5,15l-17.6-13C87.7,155.2,91.8,149.6,95,145z M165.6,79.7c5.5-3.4,11.1-6.7,16.9-9.6
		l11.6,18.4c-5.3,2.9-10.7,6-15.8,9.3L165.6,79.7z M92.3,189.5c-2.8,5.5-5.7,11.3-8,16.5l-19.2-10.3c2.7-5.8,5.9-12.9,8.8-18.5
		C80.1,181.1,86.4,185.6,92.3,189.5z M200.3,61.7c6.1-2.6,12.3-5.1,18.6-7.1l9.1,19.5c-6,1.8-11.6,4.3-17.3,6.5L200.3,61.7z
		 M58.2,213.9l19.4,9c-2,6.6-3.6,11.6-5.1,17.9l-19.9-7.6C54.2,225.7,56,220.6,58.2,213.9L58.2,213.9z M238.1,49.3h0.2
		c6.9-1.4,14.1-2.9,20.2-3.6l5.7,20.2c-6.2,0.7-12.3,1.8-18.3,3.2h-0.2C243.4,62.4,240.7,55.9,238.1,49.3L238.1,49.3z M48.9,253.1
		c6.7,2.1,13.4,4.1,20.2,5.9c-0.9,6.2-1.3,12.4-1.5,18.8l-20.4-3.7C46.1,263.6,47.8,256.4,48.9,253.1L48.9,253.1z M279.5,44.3
		c7.2,0.1,14.3,0,21.6,1.1l0.7,20.2c-6.6-0.5-13.3-1.1-19-1L279.5,44.3z M68.4,296.8c0.8,6.6,2,13.3,3.4,18.9l-19.7,1.6
		c-1.7-8.5-3.2-14.6-3.8-22C54,296,62,296.4,68.4,296.8z M322.9,49.7c7.4,2.1,15,5,21.6,7.6L339,75.9c-6-2.8-12.2-4.6-18.3-6.6
		L322.9,49.7z M59.4,339.3l18.5-5.5c2.5,6,5.8,11.7,9.3,17.3l-16.7,8.7C65.2,352,62.4,346.7,59.4,339.3z M365.4,69.3
		c6.8,5.2,13.1,10.1,18.7,15.7l-13.5,13c-5-4.5-10.1-9.2-14.8-12.4C359,80.1,362.1,74.7,365.4,69.3L365.4,69.3z M99.4,366.2
		c4.9,4.7,10.1,9.1,14.8,12.5l-9.7,16.2c-6.5-5.2-13.1-10.7-18.4-16C89.3,375.7,95.3,370.1,99.4,366.2L99.4,366.2z M383.1,113.2
		l16.1-9.6c4.7,6.8,8.8,14.6,11.6,21l-18.5,5.5C389.4,123.9,386.2,118.1,383.1,113.2L383.1,113.2z M131.1,388.7
		c6.1,2.6,12.2,4.9,18,6.6l-2.3,19.6c-8.3-2.3-15-5-22.1-7.8C126.3,401.2,128.7,394.7,131.1,388.7L131.1,388.7z M398.7,148.4
		l19.7-2.2c2,7.5,3.4,15.6,4.3,22c-7.2-0.4-13.5-0.8-20.4-1l-0.1-0.1C401.3,160.4,400.1,153.9,398.7,148.4z M186.7,400.3l3.5,20.3
		c-7.2,0.1-15.2-0.5-21.7-1.2l-0.7-20.2C174.2,399.5,181.1,400.4,186.7,400.3z M125,456.2c11.9,9.5,25,17.1,39,22.7L147.1,462
		C139.7,460.5,132.3,458.5,125,456.2L125,456.2z M456.5,124.7c3.1,9.3,5.4,19,7,28.7l18.9,18.9C476.5,154.9,467.9,138.9,456.5,124.7
		z M403.2,186l20.3,3.8c-0.2,8.4-0.6,13.4-1.5,20.8l-20.2-5.7C402.6,198.7,402.9,192.4,403.2,186L403.2,186z M205.5,399.2
		c6.3-0.6,12.5-1.8,18.5-3.1l7.3,20c-6.6,1.6-13.5,2.4-20.2,3.4L205.5,399.2z M398.4,223.2l19.9,7.7c-1.5,6.6-3.4,12.9-5.5,19.3
		l-19.5-9.1C395.4,235.1,397.1,228.6,398.4,223.2L398.4,223.2z M241.8,391.3c5.9-1.7,11.5-4.3,17.3-6.5l10.5,19
		c-6,2.7-12.4,4.7-18.6,7L241.8,391.3z M177.5,465.9l23.1,23.1c8.5,1.3,17.3,2.2,26.1,2.3l-25.5-25.4
		C193.2,466.2,185.4,466.3,177.5,465.9z M386.8,258.3l19,10.4c-2.7,6.2-6,12.5-8.6,17.7l-18.4-11.6
		C382,269.2,384.2,263.3,386.8,258.3z M466.5,182.7c0.2,7.7,0.1,15.4-0.5,23.1l25.8,25.8c0-8.5-0.5-16.9-1.6-25.2L466.5,182.7z
		 M275.6,377.1c5.3-2.9,10.6-5.9,15.8-9.1l12.8,17.8c-5.5,3.5-11.2,6.6-16.9,9.6L275.6,377.1z M369.6,290.4l17.8,12.7
		c-3.8,5.6-7.6,11.4-11.1,15.9l-17-13.7C362.9,299.9,366.1,295.2,369.6,290.4z M306.4,357.7c4.9-3.6,9.6-7.3,14.3-11.3l14.5,16.4
		c-4.9,4.2-9.9,8.2-15.1,12.1L306.4,357.7z M347.9,319.4l16.2,14.8c-4.4,5.2-9.4,10.8-14.7,15.5L334,334.2
		C338.9,329.4,343.4,324.5,347.9,319.4z M225.1,463.5l27,27c8.3-0.8,17-2.2,23.9-3.6l-28-28C240.4,460.8,232.7,462.3,225.1,463.5z
		 M463.1,229.3c-1.3,7.6-3,15.1-5.1,22.7l28.2,28.2c1.8-8,3.2-15.8,4.1-23.6L463.1,229.3z M268.5,452.8l28.7,28.7
		c7.2-2.2,14.6-4.8,21.8-7.7l-29.2-29.2C282.8,447.6,275.7,450.4,268.5,452.8z M451.8,272.2c-2.6,7.1-5.4,14.1-8.5,21l29.2,29.2
		c3-7.2,5.7-14.4,8-21.5L451.8,272.2z M307.7,436l29.5,29.5c6.2-3.1,12.5-6.5,18.6-10.1l-29.7-29.7C320,429.4,313.9,432.9,307.7,436
		L307.7,436z M434.5,310.9c-3.3,6.1-6.8,12.1-10.6,18.1l29.7,29.7c3.7-6,7.3-12.1,10.4-18.3L434.5,310.9z M341.9,415.1l29.9,29.9
		c5.7-3.9,11.3-8.2,16.9-12.6l-30.1-30.1C353.2,406.8,347.6,411.1,341.9,415.1z M413.3,344.6c-4.4,6.1-9,12-13.9,17.8l30.1,30.1
		c4.9-5.9,9.4-11.8,13.8-17.8L413.3,344.6z M372.8,390l30.1,30.1c5.2-4.7,9-8.7,14-13.6l-30.1-30.1C382.2,381,377.1,386.2,372.8,390
		L372.8,390z"/>
</g>
</svg>
