<svg xmlns="http://www.w3.org/2000/svg" width="4in" height="4in" viewBox="0 0 288 288">
  <g>
    <circle cx="144" cy="144" r="142" fill="#000009"/>
    <path d="M144,4a140,140,0,0,1,99,239A140,140,0,0,1,45.005,45.005,139.087,139.087,0,0,1,144,4m0-4A144,144,0,1,0,288,144,144,144,0,0,0,144,0Z" fill="#fff"/>
  </g>
  <path d="M238.61,144.907c-2-15-18-17-29-23-1-1-3-2-3-3,13.742-19.631,25.442-49.793.97-65.672a83.943,83.943,0,0,0-41.7-13.366A30.579,30.579,0,0,1,189.86,63.18c3.807,18.38-9.567,28.92-23.118,37.65-6.495,4.184-14.1,7.157-21.909,7.109-7.808.048-15.415-2.925-21.91-7.109-15.78-10.166-42.907-23.095-31.494-47.152,4.916-10.364,16.114-15.94,26.523-20.759-13.066.541-26.842,1.3-37.811,8.42C54.95,57.7,69.674,99.791,83.055,118.907c0,1-2,2-3,3-11,6-27,8-29,23-2,12,3,22,10,32,1,1,0,3,1,4,19,32,56.307,60.626,87,80.093,30.693-19.467,59.555-48.093,78.555-80.093,1-1,0-3,1-4C235.61,166.907,240.61,156.907,238.61,144.907ZM129.505,160.848c2.264,2.74,1.744,7.41-2.207,8.357-4.349,1.042-7.613,4.076-12.35,3.541-3.423-.386-6.421-2.246-9.046-4.372-5.817-4.709-9.675-11.146-14.537-16.729a4.926,4.926,0,0,1-.909-5.242c-2.489-5.611,5.9-10.406,8.762-4.762,2.365,4.658,9.876,6.846,14.317,8.909m93.741-6.821c-4.505,7.966-13.247,11.894-20.232,17.26-7.922,6.086-14.871,11.556-25.359,8.216a4.989,4.989,0,0,1-3.18-6.572,4.756,4.756,0,0,1-.3-5.211c3.749-7.031,12.915-10.672,19.838-13.555a118.863,118.863,0,0,1,23.589-7.483C205.814,135.6,209.552,139.705,207.276,143.729Z" fill="#fff"/>
</svg>
