<svg xmlns="http://www.w3.org/2000/svg" width="4in" height="4in" viewBox="0 0 288 288">
  <g>
    <circle cx="144" cy="144" r="142" fill="#000009"/>
    <path d="M144,4a140,140,0,0,1,99,239A140,140,0,0,1,45.005,45.005,139.087,139.087,0,0,1,144,4m0-4A144,144,0,1,0,288,144,144,144,0,0,0,144,0Z" fill="#fff"/>
  </g>
  <g>
    <path d="M149.055,261c-30.693-19.467-68-48.093-87-80.093-1-1,0-3-1-4-7-10-12-20-10-32,2-15,18-17,29-23,1-1,3-2,3-3-14-20-18-42-15.807-64.907,24.483,7.411-2.552,19.984,0,0,24.483,7.411,35.163,33.616,55.675,46.83,6.747,4.346,14.694,7.4,22.819,7.1" fill="#fff"/>
    <path d="M149.055,261c30.693-19.467,59.555-48.093,78.555-80.093,1-1,0-3,1-4,7-10,12-20,10-32-2-15-18-17-29-23-1-1-3-2-3-3,14-20,18-42,15.807-64.907-24.483,7.411,2.552,19.984,0,0-24.483,7.411-35.163,33.616-55.675,46.83-6.747,4.346-14.694,7.4-22.819,7.1" fill="#fff"/>
  </g>
</svg>
