<svg xmlns="http://www.w3.org/2000/svg" width="4in" height="4in" viewBox="0 0 288 288">
  <g>
    <circle cx="144" cy="144" r="142" fill="#fff"/>
    <path d="M144,4a140,140,0,0,1,99,239A140,140,0,0,1,45.005,45.005,139.087,139.087,0,0,1,144,4m0-4A144,144,0,1,0,288,144,144,144,0,0,0,144,0Z" fill="#231f20"/>
  </g>
  <path d="M114.086,36q-.844,0-1.7.053c-9.108.581-18.34,6.6-21.621,15.416-19.5,52.382-29.235,73.747-35.2,127.548a197.158,197.158,0,0,0,28.757,21.818l38-112.434,10.122,3.415L93.734,206.4a202.257,202.257,0,0,0,35.481,15.612l43.154-115.332,10.015,3.737L139.5,225.032a154.038,154.038,0,0,0,33.639,5.079L218.528,128l9.783,4.346L184.889,230a109.133,109.133,0,0,0,36.3-8.172C245.982,191.018,262.759,159,269.551,123c2.914-15.447-8.448-30.4-31.03-31.366L235,91.476l-1.252-3.29c-4.836-12.812-11.3-17.222-18.027-18.582s-14.46.878-20.3,4.221L187.946,78.1l-.518-8.584a23.192,23.192,0,0,0-13.914-20.388c-8-3.451-18.922-2.995-31.368,5.669l-5.974,4.149-2.181-6.939c-3.73-11.884-11.45-16.016-19.9-16.007ZM59.4,106.731c-18.391,25.812-31.791,63.647-29.686,98.039,15.761,12.5,31.252,19.282,45.819,20.28a53.4,53.4,0,0,0,23.695-3.684,212.89,212.89,0,0,1-52.99-36.357L44.322,183.2l.286-2.629c3.316-31.269,7.981-52.364,14.79-73.842Z" fill="#fec160"/>
</svg>
