<svg xmlns="http://www.w3.org/2000/svg" xmlns:xlink="http://www.w3.org/1999/xlink" width="8in" height="8in" viewBox="0 0 576 576">
  <defs>
    <symbol id="a" data-name="In Range" viewBox="0 0 112 112">
      <g>
        <rect x="2.5" y="2.5" width="107" height="107" fill="#939598"/>
        <path d="M107,5V107H5V5H107m5-5H0V112H112V0Z"/>
      </g>
    </symbol>
    <symbol id="b" data-name="Grid" viewBox="0 0 112 112">
      <g>
        <rect x="2.5" y="2.5" width="107" height="107" fill="#fff"/>
        <path d="M107,5V107H5V5H107m5-5H0V112H112V0Z"/>
      </g>
    </symbol>
    <symbol id="k" data-name="Player" viewBox="0 0 112 112">
      <g>
        <rect x="2.5" y="2.5" width="107" height="107" fill="#231f20"/>
        <path d="M107,5V107H5V5H107m5-5H0V112H112V0Z"/>
      </g>
      <path d="M56,5.6c-6.271,0-10.781,3.582-13.386,8.081a28.468,28.468,0,0,0-3.487,12.778c-7.109,3.8-14.984,7.621-21.325,11.532a45,45,0,0,0-8.408,6.334C7.211,46.542,5.6,49.04,5.6,51.986a4.667,4.667,0,0,0,1.206,3.025,9.466,9.466,0,0,0,2.279,1.875,29.284,29.284,0,0,0,6.366,2.777,57.234,57.234,0,0,0,11.125,2.4C23.093,68.544,18.458,74.5,14.4,80.2,9.7,86.786,5.6,93.106,5.6,100.127a24.984,24.984,0,0,0,.072,2.572A4.241,4.241,0,0,0,6.7,105.246a3.654,3.654,0,0,0,2.36,1.073,20.858,20.858,0,0,0,2.411.076H37.374c1.881,0,3.258.123,4.674-.86s1.934-2.326,2.943-4.331l.021-.041.018-.041s2.258-4.957,4.953-9.876A64.241,64.241,0,0,1,54.064,84.6a13.907,13.907,0,0,1,1.661-1.944A1.2,1.2,0,0,1,56,82.467a1.219,1.219,0,0,1,.275.191A13.907,13.907,0,0,1,57.936,84.6a64.241,64.241,0,0,1,4.081,6.644c2.694,4.919,4.953,9.876,4.953,9.876l.019.041.02.04c1.009,2.006,1.521,3.341,2.929,4.326s2.781.865,4.635.865h26.02a20.141,20.141,0,0,0,2.379-.076,3.631,3.631,0,0,0,2.351-1.086,4.243,4.243,0,0,0,1.006-2.538,25.469,25.469,0,0,0,.071-2.568c0-7.021-4.1-13.34-8.8-19.93-4.063-5.7-8.7-11.653-12.181-18.132a57.231,57.231,0,0,0,11.125-2.4,29.381,29.381,0,0,0,6.366-2.777,9.493,9.493,0,0,0,2.279-1.876,4.663,4.663,0,0,0,1.206-3.025c0-2.946-1.611-5.443-3.794-7.661A45,45,0,0,0,94.2,37.991c-6.341-3.912-14.216-7.738-21.325-11.532a28.465,28.465,0,0,0-3.487-12.778C66.781,9.182,62.271,5.6,56,5.6Z" fill="#fff"/>
    </symbol>
  </defs>
  <rect x="18" y="18" width="540" height="540" fill="#fff" stroke="#000" stroke-miterlimit="10" stroke-width="10"/>
  <g>
    <use width="112" height="112" transform="translate(234 450) scale(0.964 0.964)" xlink:href="#a"/>
    <use width="112" height="112" transform="translate(342 450) scale(0.964 0.964)" xlink:href="#b"/>
    <use width="112" height="112" transform="translate(450 450) scale(0.964 0.964)" xlink:href="#b"/>
    <use width="112" height="112" transform="translate(126 450) scale(0.964 0.964)" xlink:href="#b"/>
    <use width="112" height="112" transform="translate(234 342) scale(0.964 0.964)" xlink:href="#a"/>
    <use width="112" height="112" transform="translate(342 342) scale(0.964 0.964)" xlink:href="#a"/>
    <use width="112" height="112" transform="translate(126 342) scale(0.964 0.964)" xlink:href="#a"/>
    <use width="112" height="112" transform="translate(18 450) scale(0.964 0.964)" xlink:href="#b"/>
    <use width="112" height="112" transform="translate(450 342) scale(0.964 0.964)" xlink:href="#b"/>
    <use width="112" height="112" transform="translate(18 342) scale(0.964 0.964)" xlink:href="#b"/>
    <use width="112" height="112" transform="translate(234 234) scale(0.964 0.964)" xlink:href="#k"/>
    <use width="112" height="112" transform="translate(342 234) scale(0.964 0.964)" xlink:href="#a"/>
    <use width="112" height="112" transform="translate(450 234) scale(0.964 0.964)" xlink:href="#a"/>
    <use width="112" height="112" transform="translate(126 234) scale(0.964 0.964)" xlink:href="#a"/>
    <use width="112" height="112" transform="translate(18 234) scale(0.964 0.964)" xlink:href="#a"/>
    <use width="112" height="112" transform="translate(234 126) scale(0.964 0.964)" xlink:href="#a"/>
    <use width="112" height="112" transform="translate(342 126) scale(0.964 0.964)" xlink:href="#a"/>
    <use width="112" height="112" transform="translate(450 126) scale(0.964 0.964)" xlink:href="#b"/>
    <use width="112" height="112" transform="translate(126 126) scale(0.964 0.964)" xlink:href="#a"/>
    <use width="112" height="112" transform="translate(18 126) scale(0.964 0.964)" xlink:href="#b"/>
    <use width="112" height="112" transform="translate(234 18) scale(0.964 0.964)" xlink:href="#a"/>
    <use width="112" height="112" transform="translate(342 18) scale(0.964 0.964)" xlink:href="#b"/>
    <use width="112" height="112" transform="translate(450 18) scale(0.964 0.964)" xlink:href="#b"/>
    <use width="112" height="112" transform="translate(126 18) scale(0.964 0.964)" xlink:href="#b"/>
    <use width="112" height="112" transform="translate(18 18) scale(0.964 0.964)" xlink:href="#b"/>
  </g>
</svg>
