<svg xmlns="http://www.w3.org/2000/svg" xmlns:xlink="http://www.w3.org/1999/xlink" width="4in" height="4in" viewBox="0 0 288 288">
  <defs>
    <symbol id="a" data-name="Die" viewBox="0 0 288 288">
      <g>
        <rect x="3" y="3" width="282" height="282" rx="52.707" fill="#fff"/>
        <path d="M232.293,6A49.763,49.763,0,0,1,282,55.707V232.293A49.763,49.763,0,0,1,232.293,282H55.707A49.763,49.763,0,0,1,6,232.293V55.707A49.763,49.763,0,0,1,55.707,6H232.293m0-6H55.707A55.707,55.707,0,0,0,0,55.707V232.293A55.707,55.707,0,0,0,55.707,288H232.293A55.707,55.707,0,0,0,288,232.293V55.707A55.707,55.707,0,0,0,232.293,0Z"/>
      </g>
    </symbol>
  </defs>
  <use width="288" height="288" xlink:href="#a"/>
  <g>
    <circle cx="230.4" cy="57.6" r="28.8"/>
    <circle cx="57.6" cy="230.4" r="28.8"/>
  </g>
</svg>
