<?xml version="1.0" encoding="utf-8"?>
<!-- Generator: Adobe Illustrator 24.3.0, SVG Export Plug-In . SVG Version: 6.00 Build 0)  -->
<svg version="1.1" id="Layer_1" xmlns="http://www.w3.org/2000/svg" xmlns:xlink="http://www.w3.org/1999/xlink" x="0px" y="0px"
	 viewBox="0 0 512 512" style="enable-background:new 0 0 512 512;" xml:space="preserve">
<style type="text/css">
	.st0{fill:#FFFFFF;}
</style>
<path d="M0,0h512v512H0V0z"/>
<g transform="translate(0,0)">
	<path class="st0" d="M411.7,32.7v18h17.4v-18H411.7z M318.4,43.4l-0.2,18l37.9,0.5l0.2-18C356.3,43.9,318.4,43.4,318.4,43.4z
		 M90.4,56.1c-11.4,0-29.3,1-36,4.9s-9.1,7.9-9.1,11.1c0,3.1,8.2,13.9,14.9,17.7c6.5,3.8,16.4,6.5,27.6,6.6c2.3-3.7,5.7-6.7,9.4-9
		c9.8-4.7,18.9-6.9,28.3-6.4c0.3-0.8,0.4-1.6,0.4-2.3c0-3.1-2.4-7.2-9.1-11.1C110.1,63.7,101.8,56.1,90.4,56.1z M228.7,71.2l-0.4,18
		l24.8,0.5l0.4-18L228.7,71.2z M122.2,98.9c-6.5,0-12.2,1.7-15.7,3.8c-3.5,2.1-4.1,3.9-4.1,4.7s0.6,2.6,4.1,4.7
		c3.5,2.1,9.2,3.8,15.7,3.8c6.5,0,12.2-1.7,15.7-3.8c3.5-2.1,4.1-3.9,4.1-4.7s-0.6-2.6-4.1-4.7C134.4,100.6,128.7,98.9,122.2,98.9
		L122.2,98.9z M274.5,119.6l-0.7,18l13.4,0.5l0.7-18L274.5,119.6L274.5,119.6z M420.4,138.7l-0.4,18l24.8,0.5l0.4-18L420.4,138.7z
		 M198.1,160.6l-0.2,18l41.2,0.5l0.2-18L198.1,160.6z M355.8,190.4l-0.4,18l24.8,0.5l0.4-18L355.8,190.4z M71.7,191.1l-25.8,1
		l0.7,18l25.8-1L71.7,191.1z M143.3,198.3l-0.4,18l24.8,0.5l0.4-18L143.3,198.3z M421.7,239.1l-0.2,18l39,0.5l0.2-18L421.7,239.1
		L421.7,239.1z M171.1,240.1l-0.4,18l24.8,0.5l0.4-18L171.1,240.1L171.1,240.1z M364.1,256.7v18h19.4v-18H364.1z M277.3,263.9
		l-0.3,17.3l-26.2-0.2v-15.4h-14.9v15.2l-11.9-0.1l-0.1,18l59.7,0.5l0.1-17.2l18.1,0.4l0.4-18L277.3,263.9z M108.7,308.3l-0.3,18
		l31.4,0.5l0.3-18C140,308.8,108.7,308.3,108.7,308.3z M106.7,360.2l-0.2,18l42.3,0.5l0.2-18L106.7,360.2z M438.6,364.2l-0.2,18
		l37.9,0.5l0.2-18L438.6,364.2L438.6,364.2z M49.9,370.2l-0.4,18l24.8,0.5l0.4-18L49.9,370.2L49.9,370.2z M225.7,376.1l-0.4,18
		l24.8,0.5l0.4-18L225.7,376.1z M403.4,394.6c-9.3,0.1-26.3,6.4-35.2,8.1c-12.4,2.5-31.9,11.8-31.3,28.2c2.8,13.3,32.7,22.3,45,21.9
		c26-5.8,57.5-34.8,25.8-57.5C406.6,394.7,405.1,394.5,403.4,394.6L403.4,394.6z M207.8,405.9l-0.4,18l24.8,0.5l0.4-18L207.8,405.9z
		 M444.3,441.9l-0.5,18l33.8,1l0.5-18L444.3,441.9z M34.7,460.3l-0.8,18l22.3,1l0.8-18L34.7,460.3z"/>
</g>
<g transform="translate(0,0)">
	<path class="st0" d="M70.8,382.6l56.2,0.6l0.2,55.8l50.4-67l-7.1-21.9l217.4-217.4l7.3,31.2l44-92.9l-92.9,44l31.2,7.3L160.3,339.7
		l-22.5-7.4L70.8,382.6L70.8,382.6z"/>
</g>
</svg>
