<svg xmlns="http://www.w3.org/2000/svg" width="4in" height="4in" viewBox="0 0 288 288">
  <g>
    <circle cx="144" cy="144" r="142" fill="#ff7f00"/>
    <path d="M144,4a140,140,0,0,1,99,239A140,140,0,0,1,45.005,45.005,139.087,139.087,0,0,1,144,4m0-4A144,144,0,1,0,288,144,144,144,0,0,0,144,0Z" fill="#231f20"/>
  </g>
  <g>
    <g>
      <path d="M28.161,176.745a707.3,707.3,0,0,1,75.83-97.833l13.981,18.58c14.128-19.91,29.234-38.439,41.562-59.28,1.486-2.513,3.454-5.278,6.366-5.481.047,1.183,1.561,1.564,2.627,2.08,2.444,1.182,3.238,4.192,4.014,6.794,3.376,11.32,11.015,20.18,19.024,28.537,1.4,1.457,7.693,10.792,9.191,11.082,5.206,1.01,4.789-6.039,7.47-8.843,2.227-2.327,6.236-1.973,8.857-.1s4.187,4.848,5.66,7.712L263.048,158.4a5.108,5.108,0,0,1,.818,2.954c-.651,4.553-13.445,14.755-16.545,18.371l-22.7,26.481c-3.8,4.436-8.664,9.3-14.452,8.5-4.894-.68-8.24-5.189-12.587-7.538-8.4-4.539-18.66-.416-27.267,3.709l-50.918,24.406L98.845,213.271c-1.416-1.516-2.949-3.1-4.963-3.6a10.826,10.826,0,0,0-5.217.459l-24.4,6.277A48.755,48.755,0,0,0,29,189.141" fill="#fff"/>
      <path d="M30.1,177.881A714.07,714.07,0,0,1,105.582,80.5l-3.534-.455,13.981,18.58a2.292,2.292,0,0,0,3.886,0c7.736-10.865,15.829-21.468,23.627-32.288,3.786-5.252,7.5-10.559,11.05-15.972q2.544-3.878,4.967-7.832c1.745-2.857,3.324-6.92,6.939-7.636l-2.541-1.034c1.206,2.467,3.867,2.5,5.26,4.945,1.356,2.381,1.8,5.568,2.851,8.1a62.032,62.032,0,0,0,8.624,14.3c3.146,4.028,6.847,7.546,10.074,11.486,2.376,2.9,4.289,6.255,6.941,8.927,1.712,1.725,3.717,2.474,6.1,1.523,3.716-1.485,3.4-5.353,5.38-8.2,5.525-7.956,12.364,7.642,14.3,11.413l10.748,20.91,19.7,38.334,4.478,8.712c1.184,2.3,3.509,5.191,2.784,7.772-1.016,3.617-6.711,7.665-9.374,10.159-8.2,7.681-15.187,16.5-22.5,25.02-3.9,4.546-7.778,10.429-12.947,13.607-7.346,4.514-11.772-2.47-17.672-5.643-11.951-6.427-25.812,1.923-36.562,7.076l-43.9,21.039,2.727.352-12.842-13.758c-3.511-3.761-7.1-9.168-11.7-11.647-4.073-2.2-8.966-.174-13.07.882l-19.712,5.07,2.541,1.034a51.473,51.473,0,0,0-36.6-28.3c-2.829-.545-4.041,3.791-1.2,4.34a47.258,47.258,0,0,1,33.914,26.234,2.272,2.272,0,0,0,2.541,1.034l15.019-3.863c2.5-.643,5-1.329,7.509-1.931,4.322-1.036,6.264-1.1,9.868,2.077,7.406,6.522,13.808,14.794,20.547,22.013a2.308,2.308,0,0,0,2.726.352l42.14-20.2c6.337-3.038,12.674-6.578,19.47-8.471,8.642-2.408,13.619-.028,20.393,4.949,10.393,7.636,18.525.3,25.569-7.914,8.216-9.583,15.978-19.967,25.218-28.592,4.192-3.913,14.4-10.939,12.543-17.758-1.647-6.031-6.064-12.081-8.93-17.658l-11.2-21.781c-7.015-13.646-13.888-27.377-21.049-40.947-2.167-4.109-4.718-8.585-9.516-9.952a8.373,8.373,0,0,0-9.871,3.766c-.734,1.291-1.531,5.877-3.02,6.27-1.432.379-3.084-2.491-3.871-3.508-2.82-3.639-5.54-7.1-8.65-10.5-5.039-5.506-9.768-11.428-12.907-18.249-1.5-3.252-2.029-7.017-3.748-10.144a9.727,9.727,0,0,0-1.892-2.587c-.965-.871-2.785-1.168-3.367-2.358a2.293,2.293,0,0,0-2.541-1.034c-5.02.993-7.188,5.71-9.629,9.7-4.024,6.584-8.34,12.986-12.792,19.288-8.764,12.4-18.043,24.432-26.852,36.8h3.886L105.934,77.776a2.285,2.285,0,0,0-3.534-.455A720.9,720.9,0,0,0,26.218,175.61c-1.575,2.44,2.319,4.7,3.886,2.271Z" fill="#231f20"/>
    </g>
    <path d="M73.182,128.361l.154-5.007-7.682,3.182c9.6,8.721,19.143,17.5,28.794,26.164,3.245,2.912,6.64,4.954,11.108,3.244,4.934-1.889,9.209-6.741,13.082-10.206q6.424-5.75,12.5-11.865c1.751-1.76,3.836-4.771,6.4-5.182,2.585-.414,4.688,1.753,6.535,3.36,9.854,8.573,19.235,17.771,28.582,26.889,1.984,1.937,5.707,1.709,7.067-.91l20.728-39.924h-7.771a173.587,173.587,0,0,0,12.7,16.214c3.747,4.21,7.82,9.3,14.068,8.726,5.225-.476,9.189-4.618,11.7-8.928,1.977-3.393,3.77-12.533,8.538-13.083,5.687-.657,5.753-9.665,0-9-10.243,1.183-11.863,9.955-16.309,17.541-1.041,1.776-2.884,4.747-5.228,4.372-2.177-.348-4.438-3.807-5.813-5.335a153.89,153.89,0,0,1-11.888-15.049c-1.81-2.6-6.1-3.218-7.771,0l-20.728,39.923,7.068-.911c-9.354-9.125-18.778-18.245-28.582-26.889-3.3-2.906-6.936-5.844-11.5-6.156-4.8-.328-8.461,2.288-11.737,5.525-4.048,4-8.04,8.034-12.237,11.881q-3.344,3.066-6.78,6.03c-1.145.987-2.287,1.981-3.459,2.935-1.493,1.214-1.57,1.7-3.175,1.1-2.384-.888-5.439-4.942-7.383-6.708l-7.383-6.709L72.018,120.172a4.557,4.557,0,0,0-7.682,3.182l-.154,5.007c-.178,5.793,8.822,5.787,9,0Z" fill="#ff7f00"/>
    <path d="M254.847,170.1a2.816,2.816,0,0,1-.384.222q.291-.141-.089-.014c.583.1-.711-.08-.128.013a3.538,3.538,0,0,1-.431-.111c.192.093.168.078-.07-.044-.223-.145-.249-.158-.08-.038q-.267-.291-.081-.047a2.317,2.317,0,0,0-3.079-.807,2.266,2.266,0,0,0-.807,3.078,5.539,5.539,0,0,0,7.421,1.633c2.441-1.544.186-5.439-2.272-3.885Z" fill="#fff"/>
  </g>
</svg>
