<svg xmlns="http://www.w3.org/2000/svg" width="4in" height="4in" viewBox="0 0 288 288">
  <g>
    <circle cx="144" cy="144" r="142" fill="red"/>
    <path d="M144,4a140,140,0,0,1,99,239A140,140,0,0,1,45.005,45.005,139.087,139.087,0,0,1,144,4m0-4A144,144,0,1,0,288,144,144,144,0,0,0,144,0Z" fill="#231f20"/>
  </g>
  <g>
    <g>
      <path d="M166.474,29.57c-12.284,4.5-21.017,15.38-28.126,26.364-2.526,3.9-4.986,8.03-5.628,12.635-1.036,7.436,2.9,14.772,8.091,20.2s11.623,9.484,17.263,14.44,10.679,11.267,11.6,18.719c.811,6.6-1.787,13.285-5.905,18.5s-9.649,9.134-15.352,12.547a133.524,133.524,0,0,1-37.884,15.36c-5.414,1.274-11.465,2.12-16.244-.727s-6.432-10.879-1.69-13.785L91.431,155.2c-10.825,7.355-17.13,20.344-17.906,33.408s3.557,26.1,10.549,37.158a54.469,54.469,0,0,0,10.494,12.523,54.091,54.091,0,0,0,16.512,9.232c17.6,6.481,37.292,6.568,55.314,1.375s34.385-15.5,47.728-28.685a79.548,79.548,0,0,0,11.7-14.15c5.9-9.415,8.924-20.322,11.37-31.161,4.845-21.462,7.59-44.607-.839-64.93-6.327,18.162-12.886,36.745-25.112,51.593a307.076,307.076,0,0,0-14.566-64.706c-.644-1.882-1.763-4.106-3.752-4.122a3.166,3.166,0,0,0-.521,2.315q.888,22.972,1.775,45.946c-10.956-15.928-22.726-32.565-40.233-40.766l1.927,2.947L119.38,89.727C111.952,86.989,103.419,83,102.038,75.2c-1.042-5.886,2.587-11.529,6.416-16.119a107.7,107.7,0,0,1,34.328-27.2c5.756-2.885,12.3-5.292,18.526-3.638" fill="#fff"/>
      <path d="M165.875,27.4c-12.318,4.825-20.971,14.653-28.17,25.424-3.792,5.674-7.637,11.831-7.386,18.921.222,6.265,3.327,12.1,7.287,16.8,9.133,10.849,26.745,17.211,29.657,32.506,3.379,17.754-17,29.091-30.187,35.492a129.945,129.945,0,0,1-26.278,9.413c-4.222,1.017-8.924,2.052-13.194.69-3.871-1.235-8.339-7.538-3.873-10.879L91,152.232c-2.962,3.5-6.945,5.907-9.843,9.6A46.548,46.548,0,0,0,74.107,174.7c-3.749,10.32-3.663,21.657-.848,32.191a70.362,70.362,0,0,0,16.168,29.593c8.173,8.692,19.676,13.6,31.151,16.184,23.2,5.218,47.582.68,68.276-10.691,19.962-10.969,38.114-27.705,45.827-49.537a176.7,176.7,0,0,0,8.693-40.591c1.458-14.382.535-28.951-4.856-42.478a2.272,2.272,0,0,0-4.339,0c-6.186,17.745-12.591,35.791-24.533,50.6l3.841,1.591a318.74,318.74,0,0,0-7.372-40.734q-2.544-10.128-5.774-20.067c-1.269-3.907-2.219-9.125-6.824-10.2a2.286,2.286,0,0,0-2.541,1.034c-1.327,2.986-.72,6.235-.6,9.444l.5,12.985L191.923,141l4.192-1.135c-11.1-16.126-22.948-32.789-41.039-41.573-1.875-.911-4.405,1.049-3.078,3.078l1.926,2.946,2.541-3.3L122.714,88.566c-9.29-3.424-23.154-9-17-21.514,4.564-9.273,14.166-17.388,22.33-23.453,8.689-6.457,21.3-15.535,32.661-13.181,2.826.586,4.035-3.751,1.2-4.339-12.685-2.629-25.648,5.981-35.444,13.134C117.046,46.089,105.311,55.6,100.923,66.8c-4.174,10.652,3.054,18.582,12.3,22.829,13.507,6.207,28.105,10.575,42.05,15.715,1.834.676,3.577-1.722,2.541-3.305L155.883,99.1l-3.078,3.078c17.412,8.455,28.738,24.438,39.425,39.959,1.185,1.721,4.285,1.249,4.193-1.136l-.926-23.972-.463-11.986c-.114-2.958-1.358-8.5-.172-11.167l-2.541,1.034c2.54.591,3.617,6.833,4.262,8.861q1.152,3.618,2.213,7.265,2.388,8.2,4.316,16.532a309.824,309.824,0,0,1,5.875,34c.2,1.679,2.472,3.289,3.841,1.591,12.466-15.458,19.228-34.049,25.69-52.586h-4.339c8.6,21.573,5.325,45.182.045,67.157-2.669,11.111-6.26,22.086-13.185,31.333-6.356,8.487-14.634,15.875-23.249,22-17.749,12.611-39.051,20.107-60.968,19.232-11.427-.456-23.194-3.086-33.28-8.609-9.933-5.439-16.832-14.447-21.683-24.52-5.471-11.36-7.939-24.54-4.756-36.914a43.1,43.1,0,0,1,6.7-14.474c2.967-4.113,7.2-6.585,10.387-10.354,1.517-1.795-.533-5.176-2.726-3.534-4.009,3-4.893,7.848-2.847,12.4,2.526,5.623,8.487,7.644,14.318,7.468,8.238-.248,16.765-3.311,24.4-6.173a134,134,0,0,0,23.635-11.524c12.442-7.721,25.28-21.122,19.853-37.056-5.61-16.472-24.66-21.479-32.98-35.827-6.281-10.832-.462-20.28,5.993-29.339,6.022-8.451,13.4-16.238,23.236-20.092,2.666-1.044,1.506-5.4-1.2-4.339Z" fill="#231f20"/>
    </g>
    <g>
      <path d="M124.313,233.718a63.145,63.145,0,0,1-18.737-34.138L128.858,221.6c6.924-4.988,11.413-12.564,16.458-19.446a123.181,123.181,0,0,1,21.4-22.545l-20.3,40.32A292.052,292.052,0,0,1,198.855,199.8a229.856,229.856,0,0,1-49.995,30.268c-9.087,4.023-19.843,7.4-28.63,2.757" fill="red"/>
      <path d="M125.9,232.127a62.669,62.669,0,0,1-18.158-33.145l-3.761,2.189,23.282,22.022a2.279,2.279,0,0,0,2.727.352c7.037-5.345,11.667-12.545,16.795-19.6A125.059,125.059,0,0,1,168.305,181.2l-3.533-2.726L144.47,218.8a2.27,2.27,0,0,0,3.079,3.079,298.327,298.327,0,0,1,51.9-19.906l-2.189-3.761A231.828,231.828,0,0,1,162.1,221.149c-11.43,6.05-27.654,15.916-40.735,9.732-2.6-1.231-4.891,2.647-2.271,3.885,13.567,6.414,28.285-1.173,40.539-7.295a236.667,236.667,0,0,0,40.812-26.082c1.833-1.446-.169-4.327-2.189-3.76a304.7,304.7,0,0,0-52.98,20.359l3.079,3.079,20.3-40.32a2.261,2.261,0,0,0-3.534-2.727,127.882,127.882,0,0,0-19.487,20.009c-5.735,7.383-10.351,15.887-17.913,21.63l2.726.352-23.282-22.022a2.269,2.269,0,0,0-3.76,2.19,66.846,66.846,0,0,0,19.315,35.13c2.088,2.008,5.274-1.17,3.182-3.182Z" fill="#231f20"/>
    </g>
    <g>
      <path d="M216.7,94.283c.772-2.753-.126-5.674-1.134-8.349A97.957,97.957,0,0,0,189.78,48.049c11.571-.861,22.311,6.455,29.834,15.289a29.809,29.809,0,0,1,6.027,9.866c2.726,8.4-.73,17.425-4.135,25.574" fill="#fff"/>
      <path d="M218.867,94.881c1.426-8.646-4.612-18.509-8.9-25.68a102.53,102.53,0,0,0-18.6-22.743L189.78,50.3c11.135-.477,20.626,5.933,27.72,14.032,4.154,4.743,7.2,10.062,6.829,16.562-.347,6.041-2.7,11.761-4.992,17.286-1.107,2.673,3.245,3.839,4.339,1.2,2.748-6.634,5.6-13.74,5.159-21.069-.367-6.149-3.249-11.258-7.1-15.919C213.842,52.829,202.585,45.25,189.78,45.8c-1.853.079-3.09,2.459-1.591,3.84a96.122,96.122,0,0,1,21.829,29.093c2.112,4.326,5.334,9.956,4.51,14.952-.468,2.833,3.868,4.052,4.339,1.2Z" fill="#231f20"/>
    </g>
    <g>
      <path d="M57.642,148.734c-.621,1.151-2.4.22-3.122-.869-2.852-4.292-2.957-9.862-2.083-14.94C55.179,117,66.126,103.9,76.664,91.643c.69,2.767-2.765,4.526-5.4,5.621-6.443,2.68-11.61,7.676-16.428,12.725a57.473,57.473,0,0,0-8.517,10.643c-4.37,7.567-5.429,16.535-6.4,25.22-.186,1.673-.353,3.463.427,4.955,1.024,1.961,3.462,2.837,5.668,2.666a17.134,17.134,0,0,0,6.221-2.181" fill="#fff"/>
      <path d="M56.051,147.143c.2-.154-1.789-7.088-1.83-8a30.4,30.4,0,0,1,.882-8.065,54.368,54.368,0,0,1,5.468-14.029c4.775-8.706,11.244-16.314,17.684-23.815l-3.841-1.59c.147,2.938-7.785,5.323-9.9,6.744a61.427,61.427,0,0,0-9.019,7.692c-5.954,5.964-11.385,12.205-14.2,20.275a69.009,69.009,0,0,0-2.929,13.668c-.471,3.529-1.7,7.965-.192,11.383,2.812,6.386,10.447,4.168,15.194,1.83,2.6-1.279.32-5.162-2.271-3.885-1.753.863-5.827,2.9-7.815,1.349s-1.144-4.565-.919-6.588a98.007,98.007,0,0,1,1.839-11.543c1.833-7.8,5.623-13.922,11.046-19.746,4.627-4.97,9.526-9.918,15.683-12.957,3.68-1.815,8.222-3.341,7.978-8.222-.089-1.8-2.49-3.164-3.841-1.591-9.428,10.98-19.221,22.512-23.463,36.63-1.814,6.035-2.914,12.994-.655,19.067,1.329,3.576,4.446,7.547,8.278,4.576,2.286-1.772-.92-4.936-3.182-3.182Z" fill="#231f20"/>
    </g>
  </g>
</svg>
