<?xml version="1.0" encoding="utf-8"?>
<!-- Generator: Adobe Illustrator 24.3.0, SVG Export Plug-In . SVG Version: 6.00 Build 0)  -->
<svg version="1.1" id="Layer_1" xmlns="http://www.w3.org/2000/svg" xmlns:xlink="http://www.w3.org/1999/xlink" x="0px" y="0px"
	 viewBox="0 0 512 512" style="enable-background:new 0 0 512 512;" xml:space="preserve">
<style type="text/css">
	.st0{fill:#FFFFFF;}
	.st1{fill:#00FFFF;}
</style>
<g>
	<polygon class="st0" points="43.5,380.4 41.5,132.7 256,10.4 468.5,132.7 468.5,379.3 256,502.7 	"/>
	<path d="M256,19l205,118v238L256,494L51,376l-2-239L256,19 M256,1.7L248.6,6l-207,118l-7.6,4.4l0.1,8.8l2,239l0.1,8.6l7.4,4.3
		l205,118l7.5,4.3l7.5-4.4l205-119l7.5-4.3V375V137v-8.7l-7.5-4.3L263.5,6L256,1.7L256,1.7z"/>
</g>
<g transform="translate(0,0)">
	<path class="st1" d="M244.2,25.1L61.6,130l84.9,32.5l97.9-56.2V25.1H244.2z M267.8,25.1v81.2l97.9,56.2l84.9-32.5L267.8,25.1z
		 M279.9,47.4l47.8,26.4c-32.8-4.2-38.8,9.2-48.7,28.8L279.9,47.4L279.9,47.4z M230.5,51.3l-0.4,33.4c-28.9,1.2-74.2,14.4-140.9,44
		L230.5,51.3L230.5,51.3z M256,122l-96.6,55.5v156.9l96.6,55.5l96.6-55.5V177.5L256,122L256,122z M261.5,139.7
		c-49,33.8-79.1,164.8-83,199.1L178,187.7L261.5,139.7L261.5,139.7z M51,146.1v219.8l84.9-32.5V178.6L51,146.1z M461,146.1
		l-84.9,32.5v154.8l84.9,32.5V146.1z M67.5,169.4l52.9,20.8C59.9,229,80.1,312.9,65.6,352.8L67.5,169.4L67.5,169.4z M146.3,349.5
		L61.4,382l182.8,104.9v-81.2L146.3,349.5L146.3,349.5z M365.7,349.5l-97.9,56.2v81.2L450.4,382L365.7,349.5L365.7,349.5z
		 M144.4,366.7c-25.6,16.3-21.8,24.4,5.9,54.4l-57.7-38L144.4,366.7L144.4,366.7z"/>
</g>
</svg>
