<?xml version="1.0" encoding="utf-8"?>
<!-- Generator: Adobe Illustrator 25.4.1, SVG Export Plug-In . SVG Version: 6.00 Build 0)  -->
<svg version="1.1" id="Layer_1" xmlns="http://www.w3.org/2000/svg" xmlns:xlink="http://www.w3.org/1999/xlink" x="0px" y="0px"
	 width="512px" height="512px" viewBox="0 0 512 512" style="enable-background:new 0 0 512 512;" xml:space="preserve">
<style type="text/css">
	.st0{fill:#231F20;}
</style>
<g transform="translate(0,0)">
	<path class="st0" d="M247,25.1L107.1,130l65,32.5l75-56.2V25.1L247,25.1z M265,25.1v81.2l75,56.2l65-32.5L265,25.1z M274.3,47.4
		l36.6,26.4c-25.1-4.2-29.7,9.2-37.3,28.8L274.3,47.4L274.3,47.4z M236.5,51.3l-0.3,33.4c-22.1,1.2-56.8,14.4-107.9,44L236.5,51.3
		L236.5,51.3z M256,122l-74,55.5v156.9l74,55.5l74-55.5V177.5L256,122L256,122z M260.2,139.7c-37.5,33.8-60.6,164.8-63.6,199.1
		l-0.4-151.1L260.2,139.7L260.2,139.7z M99,146.1v219.8l65-32.5V178.6L99,146.1z M413,146.1l-65,32.5v154.8l65,32.5V146.1z
		 M111.6,169.4l40.5,20.8c-46.3,38.8-30.8,122.7-41.9,162.6L111.6,169.4L111.6,169.4z M172,349.5l-65,32.5L247,486.9v-81.2
		L172,349.5L172,349.5z M340,349.5l-75,56.2v81.2L404.9,382L340,349.5L340,349.5z M170.5,366.7c-19.6,16.3-16.7,24.4,4.5,54.4
		l-44.2-38L170.5,366.7L170.5,366.7z"/>
</g>
</svg>
