<?xml version="1.0" encoding="utf-8"?>
<!-- Generator: Adobe Illustrator 24.3.0, SVG Export Plug-In . SVG Version: 6.00 Build 0)  -->
<svg version="1.1" id="Layer_1" xmlns="http://www.w3.org/2000/svg" xmlns:xlink="http://www.w3.org/1999/xlink" x="0px" y="0px"
	 viewBox="0 0 512 512" style="enable-background:new 0 0 512 512;" xml:space="preserve">
<style type="text/css">
	.st0{fill:#FFFFFF;}
</style>
<path d="M0,0h512v512H0V0z"/>
<g transform="translate(0,0)">
	<path class="st0" d="M461.6,38.9C313.4,165.1,232.5,371.1,210.3,492.5h77.2C319.1,370,338.7,229,461.6,38.9L461.6,38.9z M78.4,91.4
		c52.4,62.8,102.3,132.5,142.1,199.3c7.3,12.3,14.2,24.4,20.8,36.4c7.8-19.2,16.5-38.7,26.1-58.3C215.6,197.5,153.9,133.8,78.4,91.4
		L78.4,91.4z M469.6,225.1C418,271.6,390.7,339.5,379,415.7c13.8,25.8,26.7,51.3,38.9,75.9h39.4C432,420.2,445.7,329.3,469.6,225.1z
		 M67,240.4c73,73.3,120.8,188.6,80.1,250.8h45c4.5-25.1,11.3-53.6,20.7-84.2C194.3,322.7,131.4,242.9,67,240.4L67,240.4z
		 M34.1,328.4c53,80.9,61.7,125,40.9,162.6h67.5C129.5,419,111.1,374.7,34.1,328.4L34.1,328.4z M335.1,374
		c-10.6,41.4-19.2,80.4-28.8,118.2H398C378.8,453.9,358,413.8,335.1,374L335.1,374z"/>
</g>
<g transform="translate(0,0)">
	<path class="st0" d="M42.6,155l36.2,37.1l-36.2,36.5l76.6-10.8l9.6-18.9l283.7-0.1L396.9,224l89.3-31.9l-89.3-31.9l15.6,25.1
		L129,185.4l-9.8-19.5L42.6,155L42.6,155z"/>
</g>
</svg>
