<svg xmlns="http://www.w3.org/2000/svg" width="4in" height="4in" viewBox="0 0 288 288">
  <path d="M288,288H-.219V0H288Z"/>
  <path d="M8.787,76.5c0-5.424,2.879-9.279,7.292-12.152,4.744-2.048,12.945-.972,15.039,4.194L65.58,130.125c5.279,4.814,12.063,3.555,13.66-5.067L76.964,27.782c-.833-3.259,3.7-11.681,11.571-12.821s11.968,4.333,12.328,7.473l7.015,98.45c1.836,4.545,8.662,5.2,10.587.276L143.093,19.919C142.878,13.226,149.694,9,160.777,9c8.443,0,12.146,8.828,10.751,16.118l-22.4,102.609c-.822,10.721,8.815,9.751,14.229,4.713l50.726-68.945c3.046-5.553,11.967-11.931,19.818-7.64s7.206,13.9,4.494,19.537l-45.412,70.8c-11.695,18.7-13.973,36.379-14.172,59.4.38,15.553,12.846,22.519,24.747,23.265l48.991-4.3c12.436.028,26.441,8.749,26.441,20.692s-19.685,10.324-30.387,13.073c0,0-77.621,20.653-104.716,20.678-73.955.076-75.327-5.828-95.591-42.373-11.723-31.153-2.486-55.441-10.553-87.57C31.578,124.493,8.788,76.5,8.788,76.5Z" fill="#fff"/>
</svg>
