<svg xmlns="http://www.w3.org/2000/svg" width="4in" height="4in" viewBox="0 0 288 288">
  <path d="M0,0H288.219V288H0Z"/>
  <path d="M279.212,76.5s-22.79,47.993-28.958,72.556c-8.067,32.129,1.17,56.417-10.553,87.57C219.437,273.171,218.065,279.075,144.11,279c-27.1-.025-104.716-20.678-104.716-20.678-10.7-2.749-30.387-1.129-30.387-13.073s14.005-20.664,26.441-20.692l48.991,4.3c11.9-.746,24.367-7.712,24.747-23.265-.2-23.021-2.477-40.7-14.172-59.4L49.6,75.391C46.89,69.754,46.245,60.144,54.1,55.854s16.772,2.087,19.818,7.64l50.726,68.945c5.414,5.038,15.051,6.008,14.229-4.713l-22.4-102.609C115.077,17.827,118.78,9,127.223,9c11.083,0,17.9,4.227,17.684,10.92L169.535,121.16c1.925,4.927,8.751,4.269,10.587-.276l7.015-98.45c.36-3.14,4.46-8.614,12.328-7.473s12.4,9.562,11.571,12.821l-2.276,97.276c1.6,8.622,8.381,9.881,13.66,5.067l34.462-61.586c2.094-5.166,10.3-6.242,15.039-4.194,4.413,2.873,7.292,6.728,7.292,12.152Z" fill="#fff"/>
</svg>
