<svg xmlns="http://www.w3.org/2000/svg" width="4in" height="4in" viewBox="0 0 288 288">
  <g>
    <circle cx="144" cy="144" r="142" fill="#00c1e9"/>
    <path d="M144,4a140,140,0,0,1,99,239A140,140,0,0,1,45.005,45.005,139.087,139.087,0,0,1,144,4m0-4A144,144,0,1,0,288,144,144,144,0,0,0,144,0Z"/>
  </g>
  <g>
    <polygon points="46.539 50.478 125.154 79.133 176.178 12.815 190.713 95.258 273.639 106.337 209.558 160.125 241.461 237.522 162.846 208.867 111.822 275.185 97.287 192.742 14.361 181.663 78.442 127.875 46.539 50.478" fill="#fff" stroke="#231f20" stroke-miterlimit="10" stroke-width="4"/>
    <polygon points="102.064 117.38 97.427 130.427 92.789 143.474 83.809 132.934 74.828 122.395 88.446 119.887 102.064 117.38" fill="#00c1e9" stroke="#231f20" stroke-miterlimit="10" stroke-width="4"/>
    <polygon points="189.235 99 184.598 112.047 179.961 125.094 170.981 114.555 162 104.015 175.618 101.508 189.235 99" fill="#00c1e9" stroke="#231f20" stroke-miterlimit="10" stroke-width="4"/>
    <polygon points="171.235 180.906 166.598 193.953 161.961 207 152.981 196.461 144 185.921 157.618 183.413 171.235 180.906" fill="#00c1e9" stroke="#231f20" stroke-miterlimit="10" stroke-width="4"/>
    <polygon points="109.354 163.518 117.677 174.584 126 185.65 112.255 187.325 98.51 189 103.932 176.259 109.354 163.518" fill="#00c1e9" stroke="#231f20" stroke-miterlimit="10" stroke-width="4"/>
    <polygon points="127.354 81 135.677 92.066 144 103.132 130.255 104.807 116.51 106.482 121.932 93.741 127.354 81" fill="#00c1e9" stroke="#231f20" stroke-miterlimit="10" stroke-width="4"/>
    <polygon points="190.844 136.518 199.167 147.584 207.49 158.65 193.745 160.325 180 162 185.422 149.259 190.844 136.518" fill="#00c1e9" stroke="#231f20" stroke-miterlimit="10" stroke-width="4"/>
  </g>
</svg>
