<svg xmlns="http://www.w3.org/2000/svg" width="4in" height="4in" viewBox="0 0 288 288">
  <g>
    <circle cx="144" cy="144" r="142" fill="#fff"/>
    <path d="M144,4a140,140,0,0,1,99,239A140,140,0,0,1,45.005,45.005,139.087,139.087,0,0,1,144,4m0-4A144,144,0,1,0,288,144,144,144,0,0,0,144,0Z" fill="#000009"/>
  </g>
  <g>
    <g>
      <path d="M142.321,129a174.437,174.437,0,0,1,41.312-15.154,59.114,59.114,0,0,1,5.2-30.2l36.937,5.041L197.252,46.557,251.73,68c3,1.181,6.221,2.569,7.311,5.393.811,2.1.271,4.6-.275,6.965q-5.951,25.831-11.9,51.662a105.98,105.98,0,0,1-17.9-37.836,123.315,123.315,0,0,1-25.41,45.959l-13.963-18.655a379.254,379.254,0,0,1-39.788,31.7" fill="#00c1e9"/>
      <path d="M143.446,130.948A178.44,178.44,0,0,1,184.2,116.023a2.265,2.265,0,0,0,1.683-2.166,59.281,59.281,0,0,1,4.9-29.095l-2.537,1.059,36.937,5.042c1.718.234,3.748-1.5,2.53-3.3L199.2,45.432l-2.531,3.3,29.055,11.435,12.712,5c4.88,1.92,10.668,3.38,15.166,6.079,5.933,3.56,2.451,10.871,1.228,16.179l-3.085,13.394-7.053,30.614,4.122-.542a108.474,108.474,0,0,1-17.669-37.278,2.268,2.268,0,0,0-4.352-.015,123.33,123.33,0,0,1-24.839,44.961l3.551.455L191.543,120.36a2.293,2.293,0,0,0-3.551-.455,388.775,388.775,0,0,1-39.311,31.332c-2.359,1.643-.131,5.555,2.25,3.9A397.97,397.97,0,0,0,191.2,123.065l-3.551-.455,13.962,18.655c.8,1.073,2.5,1.684,3.551.455A128.775,128.775,0,0,0,231.14,94.763l-4.351-.015a111.925,111.925,0,0,0,18.128,38.394c1.068,1.456,3.644,1.53,4.122-.543l8.154-35.4c1.3-5.654,2.731-11.3,3.905-16.98.693-3.355,1.083-6.866-1.189-9.732-2.644-3.336-7.442-4.6-11.229-6.095l-16.343-6.432-34.5-13.578c-1.8-.707-3.575,1.756-2.531,3.3L223.82,89.814l2.531-3.3-36.937-5.042a2.318,2.318,0,0,0-2.537,1.059c-4.311,9.953-6.474,20.447-5.494,31.3l1.683-2.166a183.6,183.6,0,0,0-41.87,15.384c-2.582,1.317-.324,5.211,2.25,3.9Z" fill="#231f20"/>
    </g>
    <g>
      <path d="M156.151,135.045a174.437,174.437,0,0,1,33.78,28.2,59.109,59.109,0,0,1,28.752-10.6l14.1,34.509L255.014,141.4l8.672,57.9c.477,3.189.885,6.672-1.015,9.029-1.413,1.751-3.845,2.532-6.17,3.244l-50.69,15.524a105.986,105.986,0,0,1,23.817-34.418,123.316,123.316,0,0,1-52.507.974l9.175-21.42a379.073,379.073,0,0,1-47.348-18.608" fill="#00c1e9"/>
      <path d="M155.026,136.994a178.417,178.417,0,0,1,33.3,27.832,2.266,2.266,0,0,0,2.717.375A59.267,59.267,0,0,1,218.7,154.9l-2.186-1.668,14.1,34.509c.656,1.606,3.173,2.5,4.122.543l22.228-45.763-4.121-.543,4.624,30.88,2.024,13.51c.777,5.186,2.406,10.929,2.318,16.174-.117,6.918-8.189,7.558-13.4,9.153l-13.142,4.025-30.039,9.2,2.531,3.3a108.487,108.487,0,0,1,23.449-33.94,2.268,2.268,0,0,0-2.163-3.777,123.339,123.339,0,0,1-51.357.97l1.382,3.3,9.174-21.42a2.293,2.293,0,0,0-1.381-3.3,388.407,388.407,0,0,1-46.79-18.378c-2.6-1.222-4.876,2.665-2.25,3.9a397.917,397.917,0,0,0,47.906,18.837l-1.382-3.3-9.174,21.42c-.528,1.231-.208,3.009,1.381,3.3a128.786,128.786,0,0,0,53.656-.979l-2.162-3.776a111.934,111.934,0,0,0-24.186,34.9c-.727,1.654.5,3.922,2.531,3.3l34.732-10.637c5.549-1.7,11.15-3.284,16.658-5.109,3.252-1.077,6.488-2.5,7.834-5.9,1.567-3.958.267-8.748-.336-12.772l-2.6-17.37-5.492-36.669c-.286-1.91-3.308-2.218-4.122-.543l-22.229,45.763,4.122.542-14.1-34.509a2.318,2.318,0,0,0-2.185-1.668c-10.776,1.243-20.945,4.617-29.854,10.892l2.717.375A183.5,183.5,0,0,0,157.276,133.1c-2.431-1.577-4.675,2.325-2.25,3.9Z" fill="#231f20"/>
    </g>
    <g>
      <path d="M157.831,150.046A174.436,174.436,0,0,1,150.3,193.4,59.1,59.1,0,0,1,173.851,213l-22.835,29.467,50.746-3.63L155.956,275.3c-2.523,2.008-5.335,4.1-8.326,3.636-2.224-.348-4.116-2.064-5.895-3.721l-38.79-36.137a105.984,105.984,0,0,1,41.716,3.417,123.315,123.315,0,0,1-27.1-44.986l23.138-2.764a379.158,379.158,0,0,1-7.56-50.308" fill="#00c1e9"/>
      <path d="M155.581,150.046a178.433,178.433,0,0,1-7.452,42.756,2.266,2.266,0,0,0,1.034,2.541,59.279,59.279,0,0,1,22.745,18.8l.352-2.727-22.835,29.467c-1.062,1.371-.575,4,1.591,3.841l50.746-3.63-1.591-3.841-24.43,19.445L165.053,265.2c-4.1,3.266-8.262,7.549-12.848,10.094-6.05,3.358-10.64-3.312-14.626-7.026L127.523,258.9l-22.987-21.414-1.591,3.841a108.507,108.507,0,0,1,41.118,3.336,2.267,2.267,0,0,0,2.189-3.76,123.342,123.342,0,0,1-26.518-43.993l-2.17,2.848,23.138-2.764a2.293,2.293,0,0,0,2.169-2.848,388.551,388.551,0,0,1-7.479-49.71c-.243-2.864-4.745-2.89-4.5,0a398,398,0,0,0,7.64,50.907l2.17-2.849-23.138,2.764c-1.33.159-2.709,1.326-2.169,2.849a128.793,128.793,0,0,0,27.675,45.978l2.189-3.761a111.918,111.918,0,0,0-42.314-3.5c-1.795.2-3.147,2.391-1.591,3.841l26.578,24.76c4.246,3.956,8.419,8.014,12.753,11.872,2.56,2.278,5.405,4.371,9.023,3.837,4.211-.622,7.708-4.143,10.892-6.677l13.742-10.938,29.011-23.091c1.511-1.2.266-3.974-1.591-3.841l-50.746,3.63,1.591,3.841,22.835-29.467a2.316,2.316,0,0,0,.351-2.727c-6.464-8.71-14.47-15.83-24.359-20.408L152.468,194a183.582,183.582,0,0,0,7.613-43.953c.149-2.894-4.351-2.886-4.5,0Z" fill="#231f20"/>
    </g>
    <g>
      <path d="M145.679,159a174.437,174.437,0,0,1-41.312,15.154,59.114,59.114,0,0,1-5.2,30.2l-36.937-5.041,28.517,42.132L36.27,220c-3-1.181-6.221-2.569-7.311-5.393-.811-2.1-.271-4.6.275-6.965q5.95-25.832,11.9-51.662a105.98,105.98,0,0,1,17.9,37.836,123.315,123.315,0,0,1,25.41-45.959l13.963,18.655a379.254,379.254,0,0,1,39.788-31.7" fill="#00c1e9"/>
      <path d="M144.554,157.052A178.44,178.44,0,0,1,103.8,171.977a2.265,2.265,0,0,0-1.683,2.166,59.281,59.281,0,0,1-4.9,29.1l2.537-1.059-36.937-5.042c-1.718-.234-3.748,1.5-2.53,3.3L88.8,242.568l2.531-3.3L62.276,227.835l-12.712-5c-4.88-1.92-10.668-3.38-15.166-6.079-5.933-3.56-2.451-10.871-1.228-16.179l3.085-13.394,7.053-30.614-4.122.542a108.474,108.474,0,0,1,17.669,37.278,2.268,2.268,0,0,0,4.352.015A123.33,123.33,0,0,1,86.046,149.44l-3.551-.455L96.457,167.64a2.293,2.293,0,0,0,3.551.455,388.775,388.775,0,0,1,39.311-31.332c2.359-1.643.131-5.555-2.25-3.9A397.97,397.97,0,0,0,96.8,164.935l3.551.455L86.392,146.735c-.8-1.073-2.5-1.684-3.551-.455A128.775,128.775,0,0,0,56.86,193.237l4.351.015a111.925,111.925,0,0,0-18.128-38.394c-1.068-1.456-3.644-1.53-4.122.543l-8.154,35.4c-1.3,5.654-2.731,11.3-3.9,16.98-.693,3.355-1.083,6.866,1.189,9.732,2.644,3.336,7.442,4.6,11.229,6.095l16.343,6.432,34.5,13.578c1.8.707,3.575-1.756,2.531-3.3L64.18,198.186l-2.531,3.3,36.937,5.042a2.318,2.318,0,0,0,2.537-1.059c4.311-9.953,6.474-20.447,5.494-31.3l-1.683,2.166a183.6,183.6,0,0,0,41.87-15.384c2.582-1.317.324-5.211-2.25-3.9Z" fill="#231f20"/>
    </g>
    <g>
      <path d="M131.849,152.955a174.437,174.437,0,0,1-33.78-28.2,59.109,59.109,0,0,1-28.752,10.6l-14.1-34.509L32.986,146.6l-8.672-57.9c-.477-3.189-.885-6.672,1.015-9.029,1.413-1.751,3.845-2.532,6.17-3.244l50.69-15.524A105.986,105.986,0,0,1,58.372,95.326a123.316,123.316,0,0,1,52.507-.974l-9.175,21.42a379.073,379.073,0,0,1,47.348,18.608" fill="#00c1e9"/>
      <path d="M132.974,151.006a178.417,178.417,0,0,1-33.3-27.832,2.266,2.266,0,0,0-2.717-.375,59.267,59.267,0,0,1-27.649,10.3l2.186,1.668-14.1-34.509c-.656-1.606-3.173-2.5-4.122-.543L31.038,145.479l4.121.543-4.624-30.88-2.024-13.51c-.777-5.186-2.406-10.929-2.318-16.174.117-6.918,8.189-7.558,13.4-9.153L52.733,72.28l30.039-9.2-2.531-3.3a108.487,108.487,0,0,1-23.449,33.94A2.268,2.268,0,0,0,58.955,97.5a123.339,123.339,0,0,1,51.357-.97l-1.382-3.3-9.174,21.42a2.293,2.293,0,0,0,1.381,3.3,388.407,388.407,0,0,1,46.79,18.378c2.6,1.222,4.876-2.665,2.25-3.9a397.917,397.917,0,0,0-47.906-18.837l1.382,3.3,9.174-21.42c.528-1.231.208-3.009-1.381-3.3a128.786,128.786,0,0,0-53.656.979l2.162,3.776a111.934,111.934,0,0,0,24.186-34.9c.727-1.654-.5-3.922-2.531-3.3L46.875,69.371c-5.549,1.7-11.15,3.284-16.658,5.109-3.252,1.077-6.488,2.495-7.834,5.895-1.567,3.958-.267,8.748.336,12.772l2.6,17.37,5.492,36.669c.286,1.91,3.308,2.218,4.122.543l22.229-45.763-4.122-.542,14.1,34.509a2.318,2.318,0,0,0,2.185,1.668c10.776-1.243,20.945-4.617,29.854-10.892l-2.717-.375A183.5,183.5,0,0,0,130.724,154.9c2.431,1.577,4.675-2.325,2.25-3.9Z" fill="#231f20"/>
    </g>
    <g>
      <path d="M130.169,137.954A174.436,174.436,0,0,1,137.7,94.6,59.1,59.1,0,0,1,114.149,75l22.835-29.467-50.746,3.63L132.044,12.7c2.523-2.008,5.335-4.1,8.326-3.636,2.224.348,4.116,2.064,5.895,3.721l38.79,36.137a105.984,105.984,0,0,1-41.716-3.417,123.315,123.315,0,0,1,27.1,44.986L147.3,93.257a379.158,379.158,0,0,1,7.56,50.308" fill="#00c1e9"/>
      <path d="M132.419,137.954A178.433,178.433,0,0,1,139.871,95.2a2.266,2.266,0,0,0-1.034-2.541,59.279,59.279,0,0,1-22.745-18.8l-.352,2.727,22.835-29.467c1.062-1.371.575-4-1.591-3.841l-50.746,3.63,1.591,3.841,24.43-19.445L122.947,22.8c4.1-3.266,8.262-7.549,12.848-10.094,6.05-3.358,10.64,3.312,14.626,7.026L160.477,29.1l22.987,21.414,1.591-3.841a108.507,108.507,0,0,1-41.118-3.336,2.267,2.267,0,0,0-2.189,3.76,123.342,123.342,0,0,1,26.518,43.993l2.17-2.848L147.3,91.007a2.293,2.293,0,0,0-2.169,2.848,388.551,388.551,0,0,1,7.479,49.71c.243,2.864,4.745,2.89,4.5,0a398,398,0,0,0-7.64-50.907l-2.17,2.849,23.138-2.764c1.33-.159,2.709-1.326,2.169-2.849A128.793,128.793,0,0,0,144.93,43.916l-2.189,3.761a111.918,111.918,0,0,0,42.314,3.5c1.795-.2,3.147-2.391,1.591-3.841l-26.578-24.76c-4.246-3.956-8.419-8.014-12.753-11.872-2.56-2.278-5.405-4.371-9.023-3.837-4.211.622-7.708,4.143-10.892,6.677L113.658,24.479,84.647,47.57c-1.511,1.2-.266,3.974,1.591,3.841l50.746-3.63-1.591-3.841L112.558,73.407a2.316,2.316,0,0,0-.351,2.727c6.464,8.71,14.47,15.83,24.359,20.408L135.532,94a183.582,183.582,0,0,0-7.613,43.953c-.149,2.894,4.351,2.886,4.5,0Z" fill="#231f20"/>
    </g>
  </g>
</svg>
