<svg xmlns="http://www.w3.org/2000/svg" width="4in" height="4in" viewBox="0 0 288 288">
  <g>
    <circle cx="144" cy="144" r="142" fill="#fff"/>
    <path d="M144,4a140,140,0,0,1,99,239A140,140,0,0,1,45.005,45.005,139.087,139.087,0,0,1,144,4m0-4A144,144,0,1,0,288,144,144,144,0,0,0,144,0Z" fill="#231f20"/>
  </g>
  <path d="M136.249,36.823c-1.217,0-2.428.017-3.638.049-.951.027-1.9.056-2.847.1-4.643.826-6.786,2.858-7.95,5.184a10.678,10.678,0,0,0,.2,9.086,11.65,11.65,0,0,0,7.72,6.518c3.665.938,8.71.453,15.34-3.785l5.3,8.3C142.04,67.594,133.978,69,127.3,67.289a21.622,21.622,0,0,1-14.2-11.884,20.44,20.44,0,0,1-.542-16.656C89.944,42.4,69.477,51.072,53.755,63.273c-5.167,5.629-5.672,12.172-3.407,16.64,2.544,5.018,8.537,8.68,20.525,4.888l2.979,9.382c-15.053,4.762-27.46-.309-32.276-9.81A21.468,21.468,0,0,1,39.4,76.967a80.432,80.432,0,0,0-6.847,9.4l.067.032c-4.537,10.331-4.641,17.487-2.832,22.138s5.6,7.605,11.44,9.234c11.676,3.255,30.583-.673,43.9-10.616,5.7-4.256,11.1-14.578,11.571-22.583.235-4-.613-7.165-2.288-9.184s-4.357-3.531-9.909-3.473l-.1-9.842c7.631-.079,13.826,2.5,17.579,7.028s4.877,10.351,4.543,16.048c-.669,11.394-6.634,23.265-15.5,29.89C75.283,126.79,54.5,131.684,38.6,127.25c-7.368-2.054-13.89-6.524-17.25-13.447-5.028,23.937,2.277,46.171,16.179,61.558a67.548,67.548,0,0,0,5.778,5.677,34.73,34.73,0,0,1-1.959-12.689,27.571,27.571,0,0,1,9.07-20.031c4.81-4.185,11.456-6.6,19.4-6.583.53,0,1.071.009,1.612.031,1.238.053,2.509.16,3.8.33l-1.285,9.761c-8.21-1.079-13.539.8-17.084,3.884s-5.5,7.7-5.695,12.97c-.39,10.547,6.357,22.862,20.9,26.434l-.017.1c14.322,2.733,30.3.2,46.349-9.6.01-.006.023-.008.033-.015,3.339-2.344,5.138-4.639,6.024-6.617a8.372,8.372,0,0,0,.279-6.551c-1.487-4.367-6.815-8.855-11.7-10.106-7.9-2.023-12.921.756-15.274,4.066s-2.5,6.557,1.135,9.381l-6.041,7.768c-7.472-5.811-7.949-16.057-3.11-22.861,3.63-5.1,10-8.6,17.678-8.822.32-.01.647-.019.971-.016a29.425,29.425,0,0,1,7.078.953c8.166,2.091,15.716,8.047,18.581,16.46a19.07,19.07,0,0,1,.989,7.012,181.919,181.919,0,0,1,27.536-11.489c15.884-7.258,22.77-19.982,22.5-30.7-.271-10.794-6.946-19.878-22.319-21.4l.971-9.793c19.312,1.91,30.792,15.721,31.174,30.943.222,8.87-3.031,18.1-9.58,25.956a80.891,80.891,0,0,1,25.034.857,22.982,22.982,0,0,1-2.352-10.765c.356-11.606,10.228-22.433,25.742-22.6q1.551-.018,3.176.115l-.79,9.809c-13.129-1.052-18.066,5.839-18.286,12.987-.217,7.068,4.5,14.98,18.024,16.03,14.905.132,25.591-7.952,30.827-19.965,7.011-16.083,3.686-40.2-18.352-62.249-.417-.418-.831-.839-1.251-1.251a21.285,21.285,0,0,1-1.5,5.711c-3.818,9.16-12.763,15.342-22.055,17.069-12.817,2.382-23.328-2.816-28.179-10.748s-3.577-19.145,5.151-25.05l5.515,8.164c-4.694,3.175-4.888,7.474-2.272,11.751s8.517,7.983,17.99,6.222c5.955-1.107,12.586-5.967,14.764-11.192a10.542,10.542,0,0,0,.215-8.148,19.7,19.7,0,0,0-6.173-8.032l-.1-.082A157.212,157.212,0,0,0,185.3,44.673c.009.017.023.032.033.049a25.178,25.178,0,0,1,1.613,20.2C182.61,77.835,169,88.012,152.167,87.45c-3.659-.121-7.142,1.643-10.1,5.086a25.324,25.324,0,0,0-5.629,13.859c-1,10.745,3.646,22.588,21.776,28.442l-3.032,9.366c-21.638-6.986-29.932-23.989-28.558-38.713A34.731,34.731,0,0,1,134.6,86.118c4.452-5.171,10.785-8.744,17.892-8.509,12.662.423,22.292-7.418,25.117-15.834a14.916,14.916,0,0,0-.922-12.327c-2.09-3.82-6.231-7.6-13.644-10.353a154.061,154.061,0,0,0-26.8-2.272Zm53.311,132.7c-22.077,1.8-46.016,12.325-65.985,24.524-29.485,18.012-60.512,14.08-82.527-2.254,8.661,30.993,39.35,37.284,71.367,29.445a24.451,24.451,0,0,0,9.037-6.336,29.81,29.81,0,0,0,7.258-13.5l9.662,1.909a38.494,38.494,0,0,1-9.7,18.287c-4.714,5.08-10.855,9.138-17.957,10.2-3.564,7.938-6.5,15.633-7.687,21.019-1.87,8.459,7.483,11.706,11.67,3.176a176.342,176.342,0,0,1,41.823-54.233c13.728-9.034,25.495-20.174,33.034-32.244Z" fill="#3d7ec1"/>
</svg>
