<svg xmlns="http://www.w3.org/2000/svg" width="4in" height="4in" viewBox="0 0 288 288">
  <g>
    <circle cx="144" cy="144" r="142" fill="#ff0"/>
    <path d="M144,4a140,140,0,0,1,99,239A140,140,0,0,1,45.005,45.005,139.087,139.087,0,0,1,144,4m0-4A144,144,0,1,0,288,144,144,144,0,0,0,144,0Z" fill="#231f20"/>
  </g>
  <g>
    <path d="M153,18c-11.028,24-14.546,69.507-12.094,95.805a126.718,126.718,0,0,0-39.42-42.759c-6.073,23.368,1.417,48.165-1.233,72.164-15.319-9.62-22.313-29.677-38.586-37.578a4.62,4.62,0,0,0-3.339-.607c-1.553.5-2.185,2.318-2.573,3.9-10.443,42.734,2.073,87.981-4.211,131.522q15.8-34.96,32.129-69.683,8.126,11.106,16.314,22.168c5.381,7.269,11.255,14.889,19.738,18.026a356.844,356.844,0,0,1,7.6-68.761,200,200,0,0,1,38.645,43.382c6.715-33.316,1.608-69.155,14.841-100.46q20.514,27.372,42.747,53.4c-3.842,1.095-5.118,5.8-5.756,9.74L207.33,212.969a124.986,124.986,0,0,0-17.286-40.945,361.632,361.632,0,0,0-23.859,96.849l27.354-43.953,25.018,28.838q24.795-69.137,44.768-139.877c-5.227-.072-9.6-3.793-13.456-7.318Q217.435,76.929,186.112,46.11a14.016,14.016,0,0,1-3.654-4.837,14.028,14.028,0,0,1-.536-5.239l.5-20.631a77.512,77.512,0,0,1-29.837-2.959" fill="#fff"/>
    <path d="M151.057,16.864c-6.582,14.645-9.4,30.832-11.239,46.685a247.253,247.253,0,0,0-1.162,50.256l4.193-1.136A131.955,131.955,0,0,0,102.622,69.1a2.266,2.266,0,0,0-3.305,1.345c-5.881,24.013,1.106,48.5-1.314,72.762l3.385-1.943c-12.515-8.186-18.937-22.37-30.163-31.927-3.373-2.872-10.372-9.053-15.035-5.659-2.441,1.776-2.856,5.574-3.433,8.267-.882,4.111-1.554,8.261-2.084,12.43-4.886,38.394,4.007,77.1-1.3,115.475-.311,2.25,2.953,4.3,4.113,1.734Q69.3,206.628,85.615,171.9H81.73c6.369,8.7,12.626,17.513,19.232,26.037,5,6.449,10.493,12.081,18.165,15.191,1.4.569,2.828-.853,2.848-2.17A363.253,363.253,0,0,1,129.5,142.8l-3.76.993a203.3,203.3,0,0,1,38.293,42.927c.984,1.481,3.717,1.489,4.113-.537,6.493-33.256,1.715-68.577,14.841-100.46l-4.113.537q20.715,27.588,43.1,53.852l.993-3.761c-3.976,1.6-5.846,4.821-6.853,8.89-1.694,6.845-2.364,14.092-3.49,21.05q-3.729,23.04-7.457,46.081H209.5a131.155,131.155,0,0,0-17.514-41.483,2.283,2.283,0,0,0-4.112.538,369.83,369.83,0,0,0-23.939,97.447c-.249,2.348,3.107,2.881,4.193,1.136l27.354-43.953-3.533.455,25.017,28.838c1.194,1.376,3.235.477,3.761-.993Q245.492,185.2,265.5,114.479a2.282,2.282,0,0,0-2.17-2.848c-5.786-.477-9.979-4.93-14.026-8.636q-5.76-5.276-11.484-10.589Q225.65,81.117,213.643,69.657q-11.652-11.123-23.154-22.4c-1.741-1.707-4.266-3.574-5.423-5.756-1.412-2.662-.873-6.318-.8-9.216l.411-16.88a2.264,2.264,0,0,0-2.25-2.25,79.875,79.875,0,0,1-29.239-2.878c-2.787-.807-3.977,3.534-1.2,4.339a83.543,83.543,0,0,0,30.435,3.039l-2.25-2.25c-.152,6.252-.322,12.5-.456,18.756-.109,5.041.2,8.635,3.719,12.452,8.472,9.183,17.988,17.6,27.024,26.228q13.771,13.145,27.753,26.067c7.108,6.569,14.794,16.374,25.111,17.225l-2.169-2.848q-19.99,70.681-44.768,139.877l3.76-.993L195.13,223.329a2.27,2.27,0,0,0-3.533.455l-27.355,43.954,4.193,1.135a365.659,365.659,0,0,1,23.778-96.251l-4.112.538a127.527,127.527,0,0,1,17.06,40.407c.478,2.064,3.979,2.226,4.339,0q3.094-19.119,6.188-38.237L218.7,156.7c.67-4.143.621-14.073,5.454-16.013a2.288,2.288,0,0,0,.993-3.76q-22.013-25.812-42.4-52.941a2.289,2.289,0,0,0-4.113.537C165.5,116.451,170.3,151.713,163.8,184.985l4.113-.537a207.421,207.421,0,0,0-39-43.838c-1.2-1.009-3.39-.8-3.761.993a369.764,369.764,0,0,0-7.681,69.359l2.848-2.169c-7.779-3.154-13.07-9.846-17.942-16.386-5.632-7.559-11.2-15.168-16.766-22.775-.895-1.223-3.095-1.681-3.885,0Q65.411,204.357,49.6,239.316l4.113,1.733c4.691-33.939-1.377-67.941.208-101.972A159.506,159.506,0,0,1,57.1,113.144c.693-3.243.189-6.608,4.669-4.938a17.243,17.243,0,0,1,3.5,2.159,48.822,48.822,0,0,1,7.71,6.946c8.709,9.4,15.208,20.69,26.142,27.842,1.557,1.018,3.228-.367,3.386-1.943,2.377-23.833-4.617-48,1.153-71.566l-3.305,1.345a126.881,126.881,0,0,1,38.612,41.952c1.051,1.84,4.4,1.152,4.193-1.136a245.319,245.319,0,0,1,.832-47.271c1.677-15.966,4.324-32.647,10.955-47.4,1.177-2.62-2.7-4.911-3.886-2.272Z" fill="#231f20"/>
  </g>
</svg>
