<svg xmlns="http://www.w3.org/2000/svg" width="4in" height="4in" viewBox="0 0 288 288">
  <g>
    <circle cx="144" cy="144" r="142" fill="#7f7f7f"/>
    <path d="M144,4a140,140,0,0,1,99,239A140,140,0,0,1,45.005,45.005,139.087,139.087,0,0,1,144,4m0-4A144,144,0,1,0,288,144,144,144,0,0,0,144,0Z" fill="#231f20"/>
  </g>
  <g>
    <path d="M35.849,181.534A1.766,1.766,0,0,0,33,182.6a167.747,167.747,0,0,0,28.086-15.7c1-.693,2.14-1.433,3.339-1.219a4.623,4.623,0,0,1,1.687.814l8.449,5.608c3.87,2.568,7.743,5.139,11.787,7.423a266.355,266.355,0,0,0-38.087,25.094c1.6.113,2.608-2,2-3.48a5.582,5.582,0,0,0-3.718-2.786,17.008,17.008,0,0,1-4.493-1.632c-2.1-1.4-2.984-3.986-4.342-6.112s-4.02-4.009-6.264-2.856" fill="#fff"/>
    <path d="M186.545,132.087q-14.4,32.2-28.49,64.543,23.862-10.708,47.2-22.545a10.81,10.81,0,0,0,3.362-2.282,11.407,11.407,0,0,0,2.076-5.1c4.663-19.829,14.175-38.126,23.6-56.185.75-1.437,2.254-3.123,3.652-2.3" fill="#fff"/>
    <path d="M125.545,163.087q-14.4,32.2-28.49,64.543,23.862-10.708,47.2-22.545a10.81,10.81,0,0,0,3.362-2.282,11.407,11.407,0,0,0,2.076-5.1c4.663-19.829,14.175-38.126,23.6-56.185.75-1.437,2.254-3.123,3.652-2.3" fill="#fff"/>
    <g>
      <path d="M50.136,132.807l134.59-69.876c2.36-1.225,4.852-2.482,7.509-2.4,2.758.084,5.245,1.593,7.561,3.092a265.313,265.313,0,0,1,43.629,35.308L94.146,176.667a10.7,10.7,0,0,1-4.812,1.593c-2.805,0-5.089-2.144-7.056-4.144L46.484,137.738" fill="#fff"/>
      <path d="M51.271,134.749l99.172-51.487L175.236,70.39c4-2.078,7.952-4.382,12.058-6.244,5.658-2.568,9.68.261,14.4,3.41a267.154,267.154,0,0,1,40.141,32.964l.456-3.534L141.307,149.573l-25.466,13.262-12.293,6.4c-3.78,1.968-8.985,6.018-13.142,6.617-4.511.651-9.282-6.118-12.044-8.925l-9.637-9.794-20.65-20.988c-2.034-2.067-5.216,1.115-3.182,3.182q11.014,11.193,22.027,22.387l11.014,11.193c2.282,2.32,4.605,5.237,7.626,6.662,2.773,1.308,5.407,1,8.18-.2,4.732-2.048,9.263-4.785,13.835-7.166L134.8,158.032l109.764-57.16a2.27,2.27,0,0,0,.455-3.534,269.8,269.8,0,0,0-42.565-34.669c-6.722-4.394-11.481-5.361-18.86-1.681-8.924,4.449-17.714,9.2-26.564,13.791L49,130.864c-2.571,1.335-.3,5.219,2.271,3.885Z" fill="#231f20"/>
    </g>
    <path d="M44.136,141.289c-4.223,10.371-8.638,20.687-12.67,31.133-3.191,8.265-.5,14.728,5.063,21.176,6.653,7.717,14.77,14.05,22.79,20.265q14.045,10.882,28.119,21.728c1.418,1.1,3.915.557,3.841-1.591l-1.792-52.428c-.07-2.033-3.242-3.319-4.193-1.136l-1.832,4.2c-1.146,2.628,2.73,4.922,3.886,2.271l1.832-4.2-4.193-1.135L86.779,234l3.841-1.591c-15.4-11.9-32.069-23.106-45.977-36.78-3.3-3.246-6.927-6.769-8.977-10.982-2.347-4.822-.706-8.947,1.177-13.593q5.791-14.295,11.633-28.569c1.091-2.681-3.26-3.847-4.34-1.2Z" fill="#231f20"/>
    <path d="M91.864,183.7l.981-4.373-4.42-.6.076,56.194a2.277,2.277,0,0,0,3.386,1.942c59.362-29.538,118.82-59.2,174.7-95.041,1.792-1.149,1.2-4.281-1.135-4.192-1.986.075-4.147-7.14-4.84-8.691l-4.3-9.634L248.1,100.915c-1.179-2.64-5.058-.353-3.886,2.271l10.95,24.524c1.989,4.457,4.046,14.66,10.289,14.423l-1.136-4.193c-55.883,35.838-115.341,65.5-174.7,95.041L93,234.924l-.076-56.194c0-2.483-3.853-3.126-4.42-.6l-.98,4.372c-.633,2.821,3.7,4.026,4.339,1.2Z" fill="#231f20"/>
  </g>
</svg>
