<svg xmlns="http://www.w3.org/2000/svg" width="4in" height="4in" viewBox="0 0 288 288">
  <g>
    <circle cx="147.945" cy="144" r="142" fill="#fff"/>
    <path d="M147.945,4a140,140,0,0,1,99,239A140,140,0,0,1,48.95,45.005,139.087,139.087,0,0,1,147.945,4m0-4a144,144,0,1,0,144,144,144,144,0,0,0-144-144Z" fill="#231f20"/>
  </g>
  <path d="M124.641,68.591C87.313,75.624,50.593,100.415,18,144.34,52.461,192.261,91.2,219.562,131.268,225c-27-9.212-47-41.416-47-79.6,0-34.986,16.79-64.949,40.374-76.811Zm44.959.021c23.562,11.876,40.331,41.823,40.331,76.789,0,37.613-19.4,69.424-45.8,79.173,38.662-6.219,77.8-32.6,114.865-80.233C246.01,101.6,208.236,75.855,169.6,68.612Zm-22.5,8.637c-28.814,0-52.058,30.429-52.058,68.152s23.245,68.15,52.059,68.15,52.058-30.427,52.058-68.15S175.914,77.249,147.1,77.249Zm.519,15.237a31.327,31.327,0,0,1,6.606.712c-9.42,2.869-16.439,13.914-16.439,27.114,0,15.379,9.527,27.845,21.281,27.845s21.282-12.466,21.282-27.845a36,36,0,0,0-.755-7.354,63.89,63.89,0,0,1,8.557,32.586c0,29.3-18.146,53.058-40.531,53.058s-40.531-23.755-40.531-53.058,18.146-53.058,40.531-53.058Z" fill="#ca549f"/>
</svg>
