<svg xmlns="http://www.w3.org/2000/svg" width="4in" height="4in" viewBox="0 0 288 288">
  <g>
    <circle cx="144" cy="144" r="142" fill="#fff"/>
    <path d="M144,4a140,140,0,0,1,99,239A140,140,0,0,1,45.005,45.005,139.087,139.087,0,0,1,144,4m0-4A144,144,0,1,0,288,144,144,144,0,0,0,144,0Z" fill="#231f20"/>
  </g>
  <path d="M120.7,68.591C83.367,75.624,46.647,100.415,14.055,144.34c34.461,47.921,73.2,75.222,113.268,80.66-27-9.212-47-41.416-47-79.6,0-34.986,16.79-64.949,40.374-76.811Zm44.959.021c23.561,11.876,40.331,41.823,40.331,76.789,0,37.613-19.4,69.424-45.8,79.173,38.662-6.219,77.8-32.6,114.865-80.233C242.065,101.6,204.291,75.855,165.655,68.612Zm-22.5,8.637C114.34,77.249,91.1,107.678,91.1,145.4s23.245,68.15,52.058,68.15,52.059-30.427,52.059-68.15-23.245-68.152-52.059-68.152Zm.519,15.237a31.334,31.334,0,0,1,6.606.712c-9.42,2.869-16.439,13.914-16.439,27.114,0,15.379,9.527,27.845,21.281,27.845S176.4,135.691,176.4,120.312a36,36,0,0,0-.756-7.354,63.89,63.89,0,0,1,8.558,32.586c0,29.3-18.146,53.058-40.531,53.058s-40.531-23.755-40.531-53.058,18.146-53.058,40.531-53.058Z" fill="#ca549f"/>
</svg>
