<svg xmlns="http://www.w3.org/2000/svg" width="4in" height="4in" viewBox="0 0 288 288">
  <g>
    <rect x="4" y="4" width="280" height="280" rx="32" fill="#ca549f"/>
    <path d="M252,8a28.032,28.032,0,0,1,28,28V252a28.032,28.032,0,0,1-28,28H36A28.032,28.032,0,0,1,8,252V36A28.032,28.032,0,0,1,36,8H252m0-8H36A36.106,36.106,0,0,0,0,36V252a36.106,36.106,0,0,0,36,36H252a36.106,36.106,0,0,0,36-36V36A36.106,36.106,0,0,0,252,0Z" fill="#231f20"/>
  </g>
  <path d="M120.964,68.591C84.922,75.624,49.469,100.415,18,144.34,51.273,192.261,88.677,219.562,127.362,225c-26.071-9.212-45.38-41.416-45.38-79.6,0-34.986,16.211-64.949,38.982-76.811Zm43.408.021c22.749,11.876,38.941,41.823,38.941,76.789,0,37.613-18.735,69.424-44.217,79.173,37.329-6.219,75.118-32.6,110.9-80.233C238.148,101.6,201.676,75.855,164.372,68.612Zm-21.725,8.637c-27.82,0-50.262,30.429-50.262,68.152s22.443,68.15,50.263,68.15,50.264-30.427,50.264-68.15-22.444-68.152-50.264-68.152Zm.5,15.237a29.255,29.255,0,0,1,6.378.712c-9.095,2.869-15.873,13.914-15.873,27.114,0,15.379,9.2,27.845,20.548,27.845s20.548-12.466,20.548-27.845a37.172,37.172,0,0,0-.73-7.354,65.649,65.649,0,0,1,8.263,32.586c0,29.3-17.521,53.058-39.134,53.058s-39.133-23.755-39.133-53.058,17.521-53.058,39.133-53.058Z" fill="#fff"/>
</svg>
