<svg xmlns="http://www.w3.org/2000/svg" width="4in" height="4in" viewBox="0 0 288 288">
  <g>
    <circle cx="144" cy="144" r="142" fill="lime"/>
    <path d="M144,4a140,140,0,0,1,99,239A140,140,0,0,1,45.005,45.005,139.087,139.087,0,0,1,144,4m0-4A144,144,0,1,0,288,144,144,144,0,0,0,144,0Z" fill="#231f20"/>
  </g>
  <g>
    <g>
      <path d="M148.311,36.429c-14.782,1.418-28.4,8.552-39.537,17.751S88.681,74.61,79.809,85.754c-11.179,14.04-22.673,28.732-26.147,45.93-4.955,24.538,7.991,50.116,28.008,66.651,16.468,13.6,39.3,22.238,60.615,17.244,9.949-2.33,20.027-8.871,21.115-18.4a41.117,41.117,0,0,0,29.695,3.113c10.127-2.824,18.68-9.551,24.7-17.67,17.066-23.011,12.159-57.845-10.7-75.942-12.317-9.751-28.179-14.527-42.039-22.259S138.376,63.81,139.378,48.751c.516-7.752,6.073-15.915,14.341-16.686" fill="#fff"/>
      <path d="M148.311,34.179c-22.347,2.468-40.563,15.866-55.268,32.135C85.1,75.1,77.718,84.5,70.572,93.945c-6.485,8.571-12.512,17.614-16.334,27.719-15.4,40.71,18.334,83.89,56.892,94.9,11.1,3.17,23.471,3.911,34.591.4,9.114-2.877,18.236-9.166,19.849-19.2l-3.305,1.345c33.4,16.647,67.213-12.983,67.955-47.03a59.7,59.7,0,0,0-15.492-41.4c-13.013-14.13-32.272-19.06-48.534-28.213-9.357-5.266-18.854-12.852-22.88-23.149-3.814-9.757-.956-23.36,11-25.09,2.855-.413,1.641-4.749-1.2-4.339-15.306,2.214-18.812,20.346-13.375,32.483,7.269,16.226,24.259,24.53,39.542,31.5,16.6,7.566,32.672,15.711,40.97,32.882,7.072,14.634,7.492,32.63.177,47.256-10.293,20.58-34.367,31.952-55.9,21.22-1.163-.58-3.059-.188-3.305,1.345-1.536,9.554-10.864,14.752-19.544,16.834-9.925,2.38-20.435,1.478-30.145-1.415a83.72,83.72,0,0,1-45.758-34.85C55.7,161.366,51.737,142.379,58.016,124.4c6.5-18.609,20.963-34.7,33.512-49.514,14.8-17.467,33.113-33.59,56.783-36.2,2.847-.315,2.879-4.819,0-4.5Z" fill="#231f20"/>
    </g>
    <path d="M167.445,199.106a4.672,4.672,0,0,0-3.378.749l2.727,3.534c4.088-5.076,16.711,1.654,20.992,3.775,5.917,2.931,11.628,6.528,15.275,12.188,5.595,8.685,8.722,35.814-6.609,36.654-2.881.158-2.9,4.659,0,4.5,18.953-1.038,17.977-30.118,11.259-42.137-4.488-8.028-12.571-12.882-20.731-16.544-6.052-2.716-17.995-8.29-23.368-1.618a2.261,2.261,0,0,0,2.726,3.534l1.107-.135c2.882.268,2.864-4.233,0-4.5Z" fill="#231f20"/>
    <path d="M155.679,192.49l-2.43,3.312h3.886c-5.285-7.143-11.815-13.086-17.751-19.655A62.419,62.419,0,0,1,125.1,150.172c-5.487-20.424-1.538-41.667,2.286-62.006.533-2.83-3.8-4.043-4.339-1.2-3.877,20.621-7.783,42.011-2.7,62.788a64.97,64.97,0,0,0,11.428,24.3c6.574,8.528,15.061,15.352,21.472,24.017a2.292,2.292,0,0,0,3.886,0l2.429-3.312c1.715-2.337-2.188-4.584-3.885-2.271Z" fill="#231f20"/>
  </g>
</svg>
