<svg xmlns="http://www.w3.org/2000/svg" width="4in" height="4in" viewBox="0 0 288 288">
  <g>
    <circle cx="144" cy="144" r="142" fill="#f0f"/>
    <path d="M144,4a140,140,0,0,1,99,239A140,140,0,0,1,45.005,45.005,139.087,139.087,0,0,1,144,4m0-4A144,144,0,1,0,288,144,144,144,0,0,0,144,0Z" fill="#231f20"/>
  </g>
  <g>
    <path d="M126.353,256.054c3.65-4.926,7.329-10.039,8.832-15.94,3.634-14.261-6.479-28.627-18.573-37.371s-26.555-14.178-37.92-23.809C63.1,165.72,55.037,146.168,47.52,127.388c-1.375-3.437-2.775-7.022-2.48-10.7.663-8.282,9.767-13.732,18.255-14.271s16.763,2.339,25.16,3.665,18.044.687,23.866-5.37c8.071-8.4,4.69-22.125,8.813-32.916,1.75-4.583,4.841-8.545,7.974-12.362,3.646-4.443,7.535-8.894,12.65-11.627s11.762-3.428,16.645-.316c5.557,3.541,7.252,10.7,7.618,17.17s-.048,13.293,3,19.048c4.144,7.821,13.628,11.5,22.586,12.5s18.1-.029,26.983,1.46a47.831,47.831,0,0,1,25.534,13.01c1.6,1.582,3.17,3.509,3.1,5.73-.059,1.766-1.153,3.32-2.246,4.727-15.127,19.448-37.579,31.884-59.108,44.309-4.886,2.819-9.849,5.74-13.533,9.956s-5.932,10.023-4.456,15.375c2.2,7.985,11.635,12.446,14.048,20.373,2.089,6.862-1.73,14.066-6.108,19.808A93.788,93.788,0,0,1,122.787,261" fill="#fff"/>
    <path d="M128.3,257.19c6.178-8.377,11.3-17.162,9.453-27.938-1.711-9.989-8.308-18.769-15.87-25.212-8.537-7.275-18.818-12.054-28.427-17.693C82.86,180.13,73.887,172.54,67,162.3c-6.48-9.633-11.159-20.327-15.511-31.048-2.234-5.5-6.125-12.4-3.045-18.26,2.585-4.919,8.551-7.545,13.81-8.2,11.765-1.457,23.045,4.608,34.832,4.084,8.987-.4,17.258-4.276,20.907-12.9,4.052-9.571,1.6-20.68,6.44-30.017,4.816-9.283,15.547-22.91,27.191-22.257,14.39.807,11.447,19.3,12.919,28.954,1.467,9.618,7.673,16.124,16.651,19.451,11.312,4.192,23.486,1.975,35.192,3.52a46.041,46.041,0,0,1,17.006,5.71,44.34,44.34,0,0,1,7.384,5.286,14.475,14.475,0,0,1,2.707,2.634c2.355,3.721.877,5.078-1.113,7.571-14.748,18.485-36.056,30.219-56.2,41.842-9.307,5.372-20.789,12.22-20.977,24.407-.183,11.914,14.321,16.187,15.049,27.254.479,7.283-4.977,14.085-9.451,19.258A90.169,90.169,0,0,1,157,242.532a93.849,93.849,0,0,1-34.81,16.3c-2.815.676-1.623,5.016,1.2,4.34,21.847-5.243,42.247-18.011,55.375-36.428,6-8.423,8.418-18.168,1.654-26.849-3.077-3.95-7.571-7.191-9.673-11.84-3.665-8.107,2.766-15.8,9.046-20.211,10-7.02,21.258-12.336,31.567-18.918,9.862-6.3,19.41-13.26,27.653-21.6,3.409-3.451,8.256-7.767,9.936-12.49,1.581-4.445-1.262-7.949-4.389-10.852a50.918,50.918,0,0,0-29.785-13.056c-12.669-1.248-27,1.578-38.149-6.125-11.7-8.078-5.943-22.941-10.292-34.419-3.369-8.889-11.984-12.945-21.1-10.382-9.894,2.783-17.682,12.584-23.026,20.879-6.328,9.823-4.314,20.75-7.648,31.4-4.567,14.593-20.831,12.748-32.679,10.234-10.428-2.213-21.73-4.519-31.233,1.813-9.875,6.579-8.331,16.121-4.4,25.889,4.857,12.073,9.92,24.232,17.315,35.01C71,176.07,80.579,184.079,91.9,190.649c12.114,7.03,25.414,12.976,34.245,24.287,4.286,5.489,7.6,12.179,7.54,19.286-.062,8-4.719,14.519-9.275,20.7-1.72,2.333,2.183,4.58,3.886,2.272Z" fill="#231f20"/>
  </g>
</svg>
