<?xml version="1.0" encoding="utf-8"?>
<!-- Generator: Adobe Illustrator 24.3.0, SVG Export Plug-In . SVG Version: 6.00 Build 0)  -->
<svg version="1.1" xmlns="http://www.w3.org/2000/svg" xmlns:xlink="http://www.w3.org/1999/xlink" x="0px" y="0px"
	 viewBox="0 0 144 144" style="enable-background:new 0 0 144 144;" xml:space="preserve">
<style type="text/css">
	.st0{fill:#C7B299;stroke:#000000;stroke-miterlimit:10;}
	.st1{fill:#FFFFFF;stroke:#000000;stroke-miterlimit:10;}
	.st2{fill:#333333;}
	.st3{display:none;}
	.st4{display:inline;fill:#333333;}
</style>
<g id="Layer_1">
	<path class="st0" d="M123.7,135H20.3C14.1,135,9,129.9,9,123.7V20.3C9,14.1,14.1,9,20.3,9h103.3c6.3,0,11.3,5.1,11.3,11.3v103.3
		C135,129.9,129.9,135,123.7,135z"/>
</g>
<g id="Layer_2">
	<path class="st1" d="M128.3,4.5H69.7c-6.2,0-11.2,5-11.2,11.2v0c0,6.2,5,11.2,11.2,11.2h58.5c6.2,0,11.2-5,11.2-11.2v0
		C139.5,9.5,134.5,4.5,128.3,4.5z"/>
	<path class="st1" d="M103.5,126L103.5,126c0-5-4-9-9-9H18c-5,0-9,4-9,9v0c0,5,4,9,9,9h76.5C99.5,135,103.5,131,103.5,126z"/>
	<circle class="st1" cx="58.5" cy="126" r="9"/>
	<circle class="st1" cx="76.5" cy="126" r="9"/>
	<circle class="st1" cx="94.5" cy="126" r="9"/>
	<path class="st1" d="M18,40.5L18,40.5c-5,0-9,4-9,9V126c0,5,4,9,9,9h0c5,0,9-4,9-9V49.5C27,44.5,23,40.5,18,40.5z"/>
	<path class="st1" d="M54,4.5H22.5c-9.9,0-18,8.1-18,18v0c0,9.9,8.1,18,18,18H54c9.9,0,18-8.1,18-18v0C72,12.6,63.9,4.5,54,4.5z"/>
	<g>
		<path class="st1" d="M133.6,139.5h-24.3c-3.2,0-5.9-2.6-5.9-5.9v-24.3c0-3.2,2.6-5.9,5.9-5.9h24.3c3.2,0,5.9,2.6,5.9,5.9v24.3
			C139.5,136.9,136.9,139.5,133.6,139.5z"/>
		<circle cx="112.5" cy="130.5" r="4.5"/>
		<circle cx="130.5" cy="112.5" r="4.5"/>
	</g>
	<path class="st1" d="M24.8,99L24.8,99c-11.2,0-20.3,9.1-20.3,20.2v0c0,11.2,9.1,20.2,20.2,20.2h0c11.2,0,20.2-9.1,20.2-20.2v0
		C45,108.1,35.9,99,24.8,99z"/>
	<circle class="st1" cx="18" cy="85.5" r="9"/>
	<circle class="st1" cx="18" cy="67.5" r="9"/>
	<circle class="st1" cx="18" cy="49.5" r="9"/>
	<path class="st1" d="M121.5,31.5H81c-5,0-9,4-9,9V45H40.5c-5,0-9,4-9,9v36c0,5,4,9,9,9H45v4.5c0,5,4,9,9,9h36c5,0,9-4,9-9V99h22.5
		c5,0,9-4,9-9V54V40.5C130.5,35.5,126.5,31.5,121.5,31.5z"/>
	<path class="st2" d="M54,9l13.5,5.2c0,0,1.2,21.8-13.5,21.8S40.5,14.2,40.5,14.2L54,9z"/>
</g>
<g id="Layer_3" class="st3">
	<path class="st4" d="M72,13.5L121.5,36c0,0,4.5,94.5-49.5,94.5S22.5,36,22.5,36L72,13.5z"/>
</g>
</svg>
