<svg xmlns="http://www.w3.org/2000/svg" width="4in" height="4in" viewBox="0 0 288 288">
  <g>
    <rect x="4" y="4" width="280" height="280" rx="32" fill="#f04f37"/>
    <path d="M252,8a28.032,28.032,0,0,1,28,28V252a28.032,28.032,0,0,1-28,28H36A28.032,28.032,0,0,1,8,252V36A28.032,28.032,0,0,1,36,8H252m0-8H36A36.106,36.106,0,0,0,0,36V252a36.106,36.106,0,0,0,36,36H252a36.106,36.106,0,0,0,36-36V36A36.106,36.106,0,0,0,252,0Z" fill="#231f20"/>
  </g>
  <path d="M99.7,27.354c-73.933,19.966-102.352,88.466-36,111.5h-.539c.313.043.627.092.938.138a119.155,119.155,0,0,0,14.525,3.905c24.739,9.717,42.633,33.262,44.084,56.271-16.484,11.36-29.251,30.91-29.251,30.91L106.39,249.1,86.116,260.647h40.317c-19.883-19.888-5.784-42.253,17.768-42.253,23.875,0,36.371,23.664,17.784,42.253h39.9L182.028,249.1l12.928-19.028s-12.973-19.871-29.65-31.186c1.576-22.922,19.428-46.317,44.068-55.995a119.088,119.088,0,0,0,14.524-3.905c.311-.046.626-.095.939-.137h-.554c66.365-23.029,37.953-91.532-35.982-111.5-20.03,19.364,3.216,50.013,21.457,27.975,18.15,33.978,4.232,62.755-35.551,41.024-5.843,12.047-16.828,20.35-29.85,20.35-13.134,0-24.183-8.444-29.988-20.658-40.221,22.321-54.356-6.577-36.121-40.716,18.243,22.038,41.488-8.611,21.458-27.974Zm44.655,17.668c-13.471,0-25.247,13.553-25.247,31.286s11.776,30.985,25.247,30.985,25.246-13.251,25.246-30.984S157.83,45.022,144.359,45.022Z" fill="#fff"/>
</svg>
