<svg xmlns="http://www.w3.org/2000/svg" width="4in" height="4in" viewBox="0 0 288 288">
  <g>
    <circle cx="144" cy="144" r="142" fill="#fff"/>
    <path d="M144,4a140,140,0,0,1,99,239A140,140,0,0,1,45.005,45.005,139.087,139.087,0,0,1,144,4m0-4A144,144,0,1,0,288,144,144,144,0,0,0,144,0Z" fill="#231f20"/>
  </g>
  <path d="M100.309,27c-73.933,19.965-102.352,88.466-36,111.5h-.539c.313.042.627.092.938.138a119.155,119.155,0,0,0,14.525,3.905c24.739,9.717,42.633,33.262,44.084,56.271-16.484,11.36-29.251,30.91-29.251,30.91L107,248.75,86.721,260.294h40.317c-19.883-19.888-5.784-42.254,17.768-42.254,23.875,0,36.371,23.665,17.784,42.254h39.9L182.633,248.75l12.928-19.028s-12.973-19.871-29.65-31.187c1.576-22.921,19.428-46.316,44.068-55.994a119.088,119.088,0,0,0,14.524-3.905c.311-.046.626-.1.938-.137h-.553C291.253,115.47,262.841,46.967,188.906,27c-20.03,19.364,3.216,50.013,21.457,27.975C228.513,88.953,214.6,117.73,174.812,96c-5.843,12.046-16.828,20.35-29.85,20.35-13.134,0-24.183-8.444-29.988-20.658-40.221,22.32-54.356-6.577-36.121-40.716C97.1,77.013,120.341,46.364,100.311,27Zm44.655,17.667c-13.471,0-25.247,13.554-25.247,31.287s11.776,30.985,25.247,30.985S170.21,93.689,170.21,75.956s-11.775-31.287-25.246-31.287Z" fill="#f04f37"/>
</svg>
