<svg xmlns="http://www.w3.org/2000/svg" width="4in" height="4in" viewBox="0 0 288 288">
  <g>
    <circle cx="144" cy="144" r="142" fill="#7f00ff"/>
    <path d="M144,4a140,140,0,0,1,99,239A140,140,0,0,1,45.005,45.005,139.087,139.087,0,0,1,144,4m0-4A144,144,0,1,0,288,144,144,144,0,0,0,144,0Z" fill="#231f20"/>
  </g>
  <g>
    <path d="M242.546,166.814a61.955,61.955,0,0,0-18.2-33.062c13.9-15.626,19.418-38.592,12.718-58.549-7.006-20.863-26.193-35.978-47.124-42.779s-43.518-6.342-65.4-4.025C110,29.937,95.186,32.386,82.469,39.592c-7.736,4.384-14.433,10.39-20.651,16.747-9.251,9.455-17.8,20.177-21.466,32.886S38.814,117,48.461,126.053c1.418,1.33,3.033,2.6,3.712,4.42,1.935,5.185-4.447,9.216-7.871,13.563-6.717,8.529-1.516,21.777,7.153,28.312s19.737,8.77,29.667,13.158A211.517,211.517,0,0,0,74.3,230.554c-.117,2.772-.134,5.725,1.32,8.089,1.63,2.648,4.722,3.951,7.626,5.066q23.637,9.079,48.077,15.853l-3.056,5.186c-.839,2.29,1.375,4.773,3.782,5.166s4.794-.635,7.016-1.64l27.542-12.45c14.424-6.52,30.9-15.762,32.383-31.521.547-5.8-1.153-11.547-1.674-17.347s.5-12.361,5.092-15.944c2.792-2.18,6.423-2.878,9.881-3.644A139.387,139.387,0,0,0,234.3,180.54c3.183-1.285,6.585-2.941,7.992-6.072C243.35,172.1,243.039,169.362,242.546,166.814ZM133.1,120.706c-1.536,14.214-11.042,28.449-23.227,35.842-5.244,3.182-11.686,5.131-17.762,3.387a15.758,15.758,0,0,1-5.181-2.609c-8.151-.9-15.794-4.561-19.62-12.324-3.91-7.936-3.138-17.563-.183-25.678,5.68-15.6,20.131-30.2,37.929-28.35C121.127,92.643,134.974,103.4,133.1,120.706ZM194.475,158a29.924,29.924,0,0,1-3.3,2.427c-.249,3.235-3.742,6.375-7.508,4.332-.393-.214-.783-.436-1.173-.656-7.339,1.692-15.181.338-22.5-3.289a4.226,4.226,0,0,1-2.249-5.477c-7.075-5.2-9.541-15.787-8.184-25.2a39.82,39.82,0,0,1,6.347-16.6c.037-.116.068-.232.106-.349,5.271-16.3,22.788-24.609,37.919-15.215,9.927,6.164,14.449,17.791,14.152,29.143S203.256,150.5,194.475,158Z" fill="#fff"/>
    <g>
      <path d="M244.715,166.216a65.748,65.748,0,0,0-18.778-34.055v3.182c18.345-21.177,21.985-52.741,5.483-76.1-17.377-24.593-47.687-33.9-76.576-34.587a213.025,213.025,0,0,0-50.91,4.651C88.328,32.8,75.269,40.169,63.779,51.217c-18.587,17.873-39.7,49.114-19.389,73.759,1.228,1.491,2.937,2.666,4.088,4.179,2.322,3.051,1.61,5.167-.7,7.83-2.187,2.526-4.835,4.649-6.531,7.573-3.178,5.477-2.672,12.154-.272,17.819,6.748,15.929,24.745,18.949,39.006,25.072l-1.034-2.541a222.923,222.923,0,0,0-5.712,30.479c-.61,5.3-1.13,10.671-1.214,16.006-.061,3.827.423,7.537,3.252,10.352,2.468,2.457,5.941,3.59,9.121,4.8q7.448,2.841,14.987,5.435,15.514,5.363,31.338,9.749l-1.345-3.306c-1.392,2.363-3.862,5.15-3.461,8.071.749,5.463,6.851,6.394,11.177,4.987,7.531-2.45,14.825-6.565,22.04-9.827,6.682-3.02,13.473-5.883,19.85-9.525,9.788-5.588,19.692-13.561,21.893-25.244,1.361-7.227-1.085-14.1-1.4-21.282-.15-3.367.182-7.013,1.919-9.981,2.472-4.225,7.106-5.086,11.493-6.087a123.658,123.658,0,0,0,23.916-7.632c7-3.205,9.188-8.235,7.913-15.69-.487-2.848-4.824-1.641-4.339,1.2,1.175,6.874-2.6,9.329-8.329,11.611-3.843,1.531-7.79,2.828-11.762,3.98-6.222,1.806-14.281,2.161-19.469,6.417-11.77,9.655-1.493,26.13-4.7,38.2-3.5,13.193-18.018,20.45-29.407,25.7-7.846,3.617-15.746,7.123-23.619,10.682-2,.906-13.886,6.416-12.4,1.057.407-1.459,1.79-3.037,2.568-4.356a2.275,2.275,0,0,0-1.345-3.306q-12.648-3.528-25.12-7.641c-8.417-2.792-17.6-5.308-25.521-9.313-5.28-2.668-4.873-7.62-4.588-12.734q.372-6.648,1.162-13.261A214.7,214.7,0,0,1,83.291,186.1a2.276,2.276,0,0,0-1.034-2.541c-11.985-5.145-27.893-7.633-35.35-19.5-3.265-5.2-5.009-12.3-1.441-17.8,2.829-4.364,8.511-7.289,9.22-12.875.647-5.093-3.75-7.637-6.654-11.032-4.7-5.5-6.891-12.8-7.1-19.944-.432-14.667,7.476-27.717,16.826-38.4,9.691-11.072,20.865-21.355,34.8-26.669,14.159-5.4,29.8-6.852,44.812-7.794,28.586-1.793,59.52,1.743,81.4,22.054,10.876,10.1,18.126,23.618,18.824,38.591a60.237,60.237,0,0,1-14.836,41.968,2.3,2.3,0,0,0,0,3.182,61.532,61.532,0,0,1,17.621,32.07C240.964,170.246,245.3,169.047,244.715,166.216Z" fill="#231f20"/>
      <path d="M130.854,120.706a47.106,47.106,0,0,1-11.136,24.444c-5.517,6.438-13.666,13.127-22.582,13.188-4.663.032-8.078-2.761-12.454-3.615a22.961,22.961,0,0,1-11.5-5.492c-7.262-6.857-7.345-18.044-4.651-26.986,4.484-14.886,17.694-29.637,34.319-29.159,15.526.446,29.374,11.234,28,27.62-.243,2.886,4.259,2.87,4.5,0,1.188-14.164-7.559-25.351-20.675-29.917-14.729-5.127-29.627-.382-39.81,11.164-10.055,11.4-16.781,29.68-9.5,44.184,3.206,6.384,9.222,10.6,16.027,12.434,7.7,2.072,13.88,5.673,22.143,3.25,17.381-5.095,29.622-23.9,31.813-41.115C135.718,117.841,131.215,117.867,130.854,120.706Z" fill="#231f20"/>
      <path d="M192.884,156.406c-1.437,1.164-2.649,2.238-3.878,3.42q.065,2.861-2.949,2.062a3.1,3.1,0,0,1-2.964.043,26.153,26.153,0,0,0-2.607.243c-3.233.483-22.132.135-20.569-6.242a2.225,2.225,0,0,0-.578-2.189c-10.737-8.568-9.271-25.445-3.186-36.323,2.7-4.833,4.378-10.121,8.369-14.168a22.965,22.965,0,0,1,15.293-6.962c13.7-.577,23.614,11.432,25.608,24.037,2.064,13.044-2.693,27.27-12.539,36.079-2.162,1.935,1.029,5.108,3.182,3.182,17.008-15.217,20.738-47.661.871-62.281A27.052,27.052,0,0,0,167.882,95.1a29.617,29.617,0,0,0-10.942,10.649c-1.328,2.2-1.983,4.568-3.093,6.839-1.369,2.8-3.081,5.324-4.2,8.276-4.451,11.718-4.025,27.654,6.512,36.063l-.579-2.189c-2.489,10.148,13.952,12.425,20.9,12.321,2.279-.034,4.392-.6,6.593-.132,1.97.417,3.4,1.041,5.43.268a8.057,8.057,0,0,0,3.87-3.3,14.449,14.449,0,0,1,3.7-4.3C198.318,157.765,195.117,154.6,192.884,156.406Z" fill="#231f20"/>
    </g>
  </g>
</svg>
