<svg xmlns="http://www.w3.org/2000/svg" width="4in" height="4in" viewBox="0 0 288 288">
  <g>
    <circle cx="144" cy="144" r="142" fill="#fff"/>
    <path d="M144,4a140,140,0,0,1,99,239A140,140,0,0,1,45.005,45.005,139.087,139.087,0,0,1,144,4m0-4A144,144,0,1,0,288,144,144,144,0,0,0,144,0Z" fill="#231f20"/>
  </g>
  <path d="M163.905,27a12.487,12.487,0,0,0-8.811,3.581c-.242.245-.459.494-.673.753l-.094-.094c-8.938,11.393-17.883,25.737-22.9,41.762-5.608,17.927-6.41,37.568,2.848,57.686l-8.5,3.943a85.114,85.114,0,0,1-7.276-45.72,61.845,61.845,0,0,0-11.863,9.2c-11.2-14.675-25.028-28.443-38.31-38.2a11.381,11.381,0,0,0-2.41-1.855,11.731,11.731,0,0,0-5.32-1.523c-.191-.009-.373-.016-.564-.015s-.387.008-.578.015a17.551,17.551,0,0,0-7.731,2.294A30.659,30.659,0,0,0,40.462,70.366,30.35,30.35,0,0,0,36,85.836c.066,4.987,1.951,10.082,6.464,12.66.184.105.377.189.564.281l-.064.126c13.671,8.459,31.732,19.79,43.382,33.988-3.3,11.554-3.925,23.488-1.315,33.877,7.663,30.51,31.262,58.2,56.6,75.718,12.672,8.758,25.742,14.969,37.168,17.841s20.97,2.285,27-1.336c13.6-8.167,22.7-22.935,28.2-40.473a58.049,58.049,0,0,1-10.83,4.963c-17.916,6.082-39.114,4.388-56.9-5.057s-32.1-27-35.32-51.877l9.279-1.208c2.841,21.957,14.977,36.574,30.423,44.776s34.259,9.639,49.515,4.46,26.877-16.4,29.563-34.631c2.22-15.07-1.936-35.446-16.949-61a174.4,174.4,0,0,0-28.357,5.811l-2.6-9.016a191.617,191.617,0,0,1,19.969-4.664,11.442,11.442,0,0,0,4.022-.362,11.614,11.614,0,0,0,1.471-.518c.016,0,.031-.013.047-.015,0,0,0-.012,0-.016,4.118-1.784,6.729-5.766,7.966-10.068a30.811,30.811,0,0,0-.14-16.145,30.286,30.286,0,0,0-7.748-14.1,15.716,15.716,0,0,0-9.78-4.744,11.367,11.367,0,0,0-3.4.315l-.046-.2a148.848,148.848,0,0,0-25.54,12.124,73.546,73.546,0,0,0-10.267,16.774c-3.529,8.5-4.262,16.646-1.22,25.852l-8.874,2.968A45.438,45.438,0,0,1,169.745,90.5c3.718-8.96,9.88-17.386,17.355-25.82l-.078-.079a11.17,11.17,0,0,0,.907-.816c3.649-3.708,4.127-9.1,2.927-13.962a30.68,30.68,0,0,0-8.169-13.9l-.031-.016A30.13,30.13,0,0,0,168.947,27.6a19.142,19.142,0,0,0-3.678-.565c-.232-.012-.472-.028-.7-.03s-.441-.006-.658,0Zm.328,9.36c.181,0,.378,0,.579.015a11.1,11.1,0,0,1,1.831.331,21.536,21.536,0,0,1,9.375,5.811,22.082,22.082,0,0,1,5.743,9.565c.7,2.838.18,4.411-.5,5.1s-2.138,1.191-4.9.488a21.585,21.585,0,0,1-9.374-5.827,22.088,22.088,0,0,1-5.744-9.564c-.7-2.838-.181-4.4.5-5.089a3.374,3.374,0,0,1,2.489-.833ZM59.992,65.906a2.777,2.777,0,0,1,1.3.33c.844.483,1.7,1.761,1.738,4.619a21.69,21.69,0,0,1-3.177,10.584A22.075,22.075,0,0,1,52.136,89.5c-2.55,1.414-4.2,1.314-5.04.833s-1.7-1.761-1.736-4.619a21.723,21.723,0,0,1,3.176-10.6,22.025,22.025,0,0,1,7.715-8.041,8.651,8.651,0,0,1,3.16-1.131,4.248,4.248,0,0,1,.58-.031Zm55.055.644c-6.511.038-13.243,2.758-17.027,7.1,3.429,3.59,6.745,7.26,9.905,11a64.375,64.375,0,0,1,12.615-7.335q.856-3.611,1.956-7.114c.216-.691.444-1.372.673-2.058a19.921,19.921,0,0,0-8.123-1.586Zm101.722,7.931a3.2,3.2,0,0,1,.438,0,6.281,6.281,0,0,1,3.662,2.106,21.649,21.649,0,0,1,5.227,9.737,22.151,22.151,0,0,1,.2,11.167c-.806,2.809-2.037,3.92-2.972,4.177s-2.437-.048-4.477-2.041a21.658,21.658,0,0,1-5.226-9.738,22.143,22.143,0,0,1-.2-11.167c.808-2.809,2.039-3.919,2.974-4.177a1.879,1.879,0,0,1,.376-.063Z" fill="#f05f81"/>
</svg>
