<svg xmlns="http://www.w3.org/2000/svg" width="4in" height="4in" viewBox="0 0 288 288">
  <g>
    <rect x="4" y="4" width="280" height="280" rx="32" fill="#f05f81"/>
    <path d="M252,8a28.032,28.032,0,0,1,28,28V252a28.032,28.032,0,0,1-28,28H36A28.032,28.032,0,0,1,8,252V36A28.032,28.032,0,0,1,36,8H252m0-8H36A36.106,36.106,0,0,0,0,36V252a36.106,36.106,0,0,0,36,36H252a36.106,36.106,0,0,0,36-36V36A36.106,36.106,0,0,0,252,0Z" fill="#231f20"/>
  </g>
  <path d="M156.617,27a12.483,12.483,0,0,0-8.811,3.581c-.242.245-.459.494-.673.753l-.094-.094c-8.938,11.393-17.884,25.737-22.895,41.762-5.608,17.927-6.41,37.568,2.848,57.686l-8.5,3.943a85.1,85.1,0,0,1-7.276-45.72,61.845,61.845,0,0,0-11.863,9.2c-11.2-14.675-25.028-28.443-38.31-38.2a11.381,11.381,0,0,0-2.41-1.855,11.732,11.732,0,0,0-5.321-1.523c-.19-.009-.373-.016-.563-.015s-.388.008-.578.015a17.555,17.555,0,0,0-7.732,2.294A30.664,30.664,0,0,0,33.174,70.366a30.35,30.35,0,0,0-4.46,15.47c.066,4.987,1.951,10.082,6.463,12.66.185.105.378.189.564.281l-.063.126c13.671,8.459,31.732,19.79,43.381,33.988-3.3,11.554-3.924,23.488-1.314,33.877,7.663,30.51,31.261,58.2,56.6,75.718,12.671,8.758,25.742,14.969,37.168,17.841s20.97,2.285,27-1.336c13.6-8.167,22.7-22.935,28.2-40.473a58.049,58.049,0,0,1-10.83,4.963c-17.917,6.082-39.114,4.388-56.9-5.057s-32.1-27-35.321-51.877l9.28-1.208c2.841,21.957,14.977,36.574,30.423,44.776s34.258,9.639,49.515,4.46,26.877-16.4,29.563-34.631c2.22-15.07-1.936-35.446-16.949-61a174.4,174.4,0,0,0-28.357,5.811l-2.6-9.016a191.657,191.657,0,0,1,19.968-4.664,11.445,11.445,0,0,0,4.023-.362A11.614,11.614,0,0,0,220,110.2c.016,0,.031-.013.047-.015,0,0,0-.012,0-.016,4.118-1.784,6.729-5.766,7.966-10.068a30.8,30.8,0,0,0-.141-16.145,30.276,30.276,0,0,0-7.747-14.1,15.716,15.716,0,0,0-9.78-4.744,11.367,11.367,0,0,0-3.4.315l-.046-.2a148.891,148.891,0,0,0-25.541,12.124A73.575,73.575,0,0,0,171.1,94.113c-3.529,8.5-4.262,16.646-1.221,25.852L161,122.933A45.444,45.444,0,0,1,162.457,90.5c3.718-8.96,9.88-17.386,17.355-25.82l-.078-.079a11.34,11.34,0,0,0,.907-.816c3.649-3.708,4.127-9.1,2.927-13.962a30.68,30.68,0,0,0-8.169-13.9l-.031-.016A30.13,30.13,0,0,0,161.659,27.6a19.142,19.142,0,0,0-3.678-.565c-.233-.012-.472-.028-.7-.03s-.441-.006-.658,0Zm.328,9.36c.18,0,.378,0,.579.015a11.1,11.1,0,0,1,1.831.331,21.536,21.536,0,0,1,9.375,5.811,22.1,22.1,0,0,1,5.743,9.565c.7,2.838.18,4.411-.5,5.1s-2.139,1.191-4.9.488a21.593,21.593,0,0,1-9.375-5.827,22.1,22.1,0,0,1-5.744-9.564c-.7-2.838-.18-4.4.5-5.089a3.373,3.373,0,0,1,2.489-.833ZM52.7,65.906a2.778,2.778,0,0,1,1.3.33c.844.483,1.7,1.761,1.738,4.619a21.69,21.69,0,0,1-3.177,10.584A22.075,22.075,0,0,1,44.848,89.5c-2.55,1.414-4.2,1.314-5.04.833s-1.7-1.761-1.737-4.619a21.725,21.725,0,0,1,3.177-10.6,22.017,22.017,0,0,1,7.715-8.041,8.651,8.651,0,0,1,3.16-1.131,4.234,4.234,0,0,1,.579-.031Zm55.055.644c-6.51.038-13.242,2.758-17.026,7.1,3.429,3.59,6.745,7.26,9.905,11a64.346,64.346,0,0,1,12.615-7.335q.856-3.611,1.956-7.114c.216-.691.444-1.372.673-2.058a19.921,19.921,0,0,0-8.123-1.586Zm101.723,7.931a3.2,3.2,0,0,1,.438,0,6.281,6.281,0,0,1,3.662,2.106,21.658,21.658,0,0,1,5.227,9.737,22.151,22.151,0,0,1,.2,11.167c-.806,2.809-2.037,3.92-2.973,4.177s-2.436-.048-4.476-2.041a21.648,21.648,0,0,1-5.226-9.738,22.143,22.143,0,0,1-.205-11.167c.808-2.809,2.038-3.919,2.974-4.177a1.867,1.867,0,0,1,.376-.063Z" fill="#fff"/>
</svg>
