<svg xmlns="http://www.w3.org/2000/svg" width="4in" height="4in" viewBox="0 0 288 288">
  <g>
    <circle cx="144" cy="144" r="142" fill="blue"/>
    <path d="M144,4a140,140,0,0,1,99,239A140,140,0,0,1,45.005,45.005,139.087,139.087,0,0,1,144,4m0-4A144,144,0,1,0,288,144,144,144,0,0,0,144,0Z" fill="#231f20"/>
  </g>
  <g>
    <g>
      <path d="M143.808,18.625l-1.819-3.231a146.8,146.8,0,0,1-3.327,21.184,94.946,94.946,0,0,1-8,22.606c-4.87,9.345-11.918,17.957-18.927,26.512L79.91,124.531c-10.113,12.342-20.39,24.983-24.5,39.117-3.278,11.278-2.456,23.017-.147,34.428,2.966,14.654,8.638,29.452,20.949,41.089,17.185,16.244,46.769,24.407,74.168,21.115s51.732-17.625,63.252-36.446a70.78,70.78,0,0,0,6.994-15.69c12.006-37.869-1.96-78.167-26.784-112.4C177.41,73.084,156.083,51.952,146.7,27.159c-1.028-2.715-1.9-5.646-.662-8.312" fill="#fff"/>
      <path d="M145.75,17.49l-1.818-3.232c-1.171-2.081-4-.963-4.193,1.136-1.1,12.328-3.425,24.874-8.118,36.382-4.708,11.545-12.494,21.331-20.313,30.9C96.332,101.01,80.394,118.851,66.469,138c-6.095,8.383-11.539,17.542-13.919,27.729-2.466,10.555-1.685,21.49.371,32.042C56.667,217,65.428,234.847,81.636,246.5c31.29,22.5,77.873,21.921,110.052,1.763a72.1,72.1,0,0,0,32.064-42.727c5.43-19.549,4.126-40.275-1.678-59.579-6.975-23.2-19.961-43.689-34.834-62.583-7.593-9.647-15.536-19.032-22.682-29.024a158.9,158.9,0,0,1-9.786-15.264c-2.863-5.156-8.425-13.643-6.565-19.641.86-2.773-3.483-3.958-4.339-1.2-2.457,7.922,4.009,17.874,7.817,24.525A205.032,205.032,0,0,0,168.107,66.53c12.981,16.692,26.866,32.616,37.1,51.244,18.654,33.964,28.529,84.207-1.532,115.17-27.46,28.285-75.181,33.171-109.667,15.759C75.6,239.41,63.958,223.335,58.828,203.541c-2.832-10.929-4.524-22.7-2.5-33.921,1.91-10.6,7.3-19.993,13.513-28.639,14.837-20.651,32.236-39.58,48.137-59.414,7.3-9.106,14.036-18.523,18.323-29.459,4.578-11.68,6.828-24.26,7.94-36.714l-4.192,1.135,1.818,3.232c1.42,2.524,5.308.258,3.885-2.271Z" fill="#231f20"/>
    </g>
    <g>
      <path d="M145.111,238.653c.6,2.048-1.8,4.056-4.527,4.573a18.918,18.918,0,0,1-8.24-.776c-17.692-4.7-32.642-14.864-40.531-27.568a41.127,41.127,0,0,1-1.974-40.875c.378,13.958,6.455,27.8,17.219,39.226a61.481,61.481,0,0,0,22.147,15.307c8.983,3.541,19.752,4.908,29.5,2.761-3.409,5.248-10.464,9.086-18.209,9.906" fill="blue"/>
      <path d="M142.861,238.653c.418,6.924-22.271-2.692-24.59-3.84a65.531,65.531,0,0,1-18.441-13.29c-12.044-12.63-15.736-30.465-8.048-46.381l-4.193-1.135c1.49,35.355,35.931,66.594,71.711,59.463l-2.541-3.305c-3.74,5.282-10.008,7.964-16.266,8.792-2.83.374-2.867,4.879,0,4.5,8-1.059,15.387-4.291,20.152-11.021,1.231-1.739-.8-3.653-2.541-3.305-32.85,6.547-64.654-22.83-66.015-55.124-.087-2.071-3.163-3.268-4.193-1.136-9.464,19.6-3.6,41.2,12.409,55.352a76.146,76.146,0,0,0,25.911,14.718c5.178,1.767,21.786,6.336,21.145-4.288-.174-2.877-4.675-2.9-4.5,0Z" fill="#231f20"/>
    </g>
  </g>
</svg>
