<svg xmlns="http://www.w3.org/2000/svg" width="4in" height="4in" viewBox="0 0 288 288">
  <g>
    <circle cx="144" cy="144" r="142" fill="blue"/>
    <path d="M144,4a140,140,0,0,1,99,239A140,140,0,0,1,45.005,45.005,139.087,139.087,0,0,1,144,4m0-4A144,144,0,1,0,288,144,144,144,0,0,0,144,0Z" fill="#231f20"/>
  </g>
  <g>
    <g>
      <path d="M141.814,17.886l-1.045-2.492a149.428,149.428,0,0,1-1.913,16.338,90.884,90.884,0,0,1-4.6,17.435c-2.8,7.206-6.851,13.848-10.881,20.446l-18.3,29.952C99.265,109.083,93.356,118.832,91,129.732c-1.885,8.7-1.412,17.752-.084,26.552,1.7,11.3,4.966,22.715,12.043,31.69,9.88,12.528,26.889,18.824,42.641,16.284s29.741-13.593,36.364-28.108a65.228,65.228,0,0,0,4.021-12.1c6.9-29.206-1.127-60.285-15.4-86.684-9.448-17.478-21.71-33.776-27.1-52.9-.59-2.094-1.091-4.354-.38-6.41" fill="#fff"/>
      <path d="M143.984,17.288,142.939,14.8c-.958-2.285-4.239-2.077-4.42.6-1.191,17.586-5.26,33.311-14.311,48.5-8.706,14.613-18.141,28.829-26.494,43.648-8.217,14.58-11.552,29.2-9.445,45.9,1.7,13.489,5.342,27.407,14.535,37.833,17.27,19.587,47.471,20.3,67.116,4.1,22.728-18.743,23.783-53.121,17.748-79.71C183.9,99.044,176.885,83.473,168.331,68.8c-4.446-7.627-9.167-15.1-13.358-22.872a130.824,130.824,0,0,1-6-12.453c-1.746-4.266-4.674-10.136-3.711-14.819.581-2.827-3.756-4.036-4.339-1.2-1.2,5.839,1.539,11.874,3.711,17.212a157.176,157.176,0,0,0,9.351,18.738c7.118,12.441,15,24.416,20.762,37.584,11.426,26.1,18.248,61.7,3.281,87.89-13.749,24.054-46.943,31.779-68.365,12.906C98.5,181.952,94.352,166.773,92.648,152.5c-.947-7.942-1.045-16.078.918-23.88s5.749-14.968,9.8-21.868C112.3,91.566,122.2,76.917,130.784,61.534c7.98-14.3,11.137-29.921,12.235-46.14l-4.42.6,1.046,2.492c1.1,2.631,5.459,1.475,4.339-1.2Z" fill="#fff"/>
    </g>
    <path d="M90.689,199.543l.2-.651a2.241,2.241,0,0,0-.579-2.189c-3.854-3.727-11.707.547-15.662,2.4-5.134,2.4-8.229,6.784-6.369,12.577,1.927,6,8.066,8.634,13.614,10.3a125.435,125.435,0,0,0,24.941,4.51c32.161,2.841,67.023-1.192,96.5-14.808,4-1.848,16.432-5.81,14.284-12.208-1-2.977-5.305-4.432-7.852-5.493a46.261,46.261,0,0,0-12.725-3.138c-2.872-.328-2.849,4.174,0,4.5a40.053,40.053,0,0,1,12.325,3.344c1.746.807,4.078,1.337,2.415,3.543-.929,1.231-3.918,2.192-5.3,2.909a135.548,135.548,0,0,1-20.108,8.4,184.426,184.426,0,0,1-42.693,8.3c-14.735,1.2-29.8,1.4-44.462-.725C92.223,220.1,83.9,219,77.6,215.574c-5.334-2.9-7.693-9.105-1.208-12.322,1.262-.626,9.611-4.451,10.732-3.367l-.579-2.189-.2.65c-.853,2.775,3.489,3.961,4.34,1.2Z" fill="#fff"/>
    <path d="M56.949,199a29.605,29.605,0,0,0-24.14,9.859c-6.192,7.152.171,13.944,6.728,18.122,8.868,5.652,20.133,8.095,30.216,10.542a255.57,255.57,0,0,0,33.582,5.777,258.651,258.651,0,0,0,69.138-2.12c21.859-3.617,45.29-9.485,64.791-20.337,6.86-3.817,18.936-12.15,17.884-21.406-.5-4.409-4.578-6.266-8.3-7.558a45.017,45.017,0,0,0-20.191-1.954c-2.839.342-2.874,4.846,0,4.5a42.567,42.567,0,0,1,14.652.566c1.95.444,5.178.984,6.836,2.206,4.573,3.37.993,7.731-1.427,10.6-5.188,6.142-12.591,9.98-19.863,13.106a239.54,239.54,0,0,1-52.1,15.343A252.331,252.331,0,0,1,64.97,231.655c-8.783-2.366-19.155-4.638-26.183-10.786-11.776-10.3,9.94-17.86,18.162-17.369,2.893.173,2.883-4.327,0-4.5Z" fill="#fff"/>
    <g>
      <path d="M142.563,187.579c.344,1.579-1.036,3.128-2.6,3.527a8.275,8.275,0,0,1-4.737-.6,40.736,40.736,0,0,1-24.437-52.786,54.927,54.927,0,0,0,9.9,30.252,37.3,37.3,0,0,0,12.732,11.806,22.928,22.928,0,0,0,16.958,2.129,14.033,14.033,0,0,1-10.469,7.64" fill="blue"/>
      <path d="M140.313,187.579c-.059,1.664-4.475.762-5.18.5a34.119,34.119,0,0,1-3.5-1.559,39.918,39.918,0,0,1-5.629-3.471,38.968,38.968,0,0,1-10.438-11.68c-5.873-10.1-6.465-22.152-2.613-33.048l-4.42-.6c.768,21.246,16.474,52.844,42.438,46.356l-2.541-3.305a12.52,12.52,0,0,1-9.124,6.606c-2.839.554-1.637,4.892,1.2,4.339a16.834,16.834,0,0,0,11.813-8.674,2.277,2.277,0,0,0-2.541-3.305c-22.844,5.708-36.086-23.885-36.742-42.017a2.261,2.261,0,0,0-4.42-.6,43.048,43.048,0,0,0,23.953,54.749c4.758,1.971,11.993,2.695,12.243-4.293.1-2.9-4.4-2.892-4.5,0Z" fill="blue"/>
    </g>
  </g>
</svg>
